<?xml version="1.0" encoding="UTF-8" standalone="no"?>
<!-- Created with Inkscape (http://www.inkscape.org/) -->

<svg
   width="56.314819mm"
   height="51.278294mm"
   viewBox="0 0 56.314819 51.278294"
   version="1.1"
   id="svg3368"
   inkscape:version="1.1.1 (c3084ef, 2021-09-22)"
   sodipodi:docname="black-facing.svg"
   xmlns:inkscape="http://www.inkscape.org/namespaces/inkscape"
   xmlns:sodipodi="http://sodipodi.sourceforge.net/DTD/sodipodi-0.dtd"
   xmlns="http://www.w3.org/2000/svg"
   xmlns:svg="http://www.w3.org/2000/svg">
  <sodipodi:namedview
     id="namedview3370"
     pagecolor="#ffffff"
     bordercolor="#999999"
     borderopacity="1"
     inkscape:pageshadow="0"
     inkscape:pageopacity="0"
     inkscape:pagecheckerboard="0"
     inkscape:document-units="mm"
     showgrid="false"
     fit-margin-top="0"
     fit-margin-left="0"
     fit-margin-right="0"
     fit-margin-bottom="0"
     inkscape:zoom="0.64052329"
     inkscape:cx="106.94381"
     inkscape:cy="97.576468"
     inkscape:window-width="1312"
     inkscape:window-height="969"
     inkscape:window-x="0"
     inkscape:window-y="23"
     inkscape:window-maximized="0"
     inkscape:current-layer="layer1" />
  <defs
     id="defs3365" />
  <g
     inkscape:label="Layer 1"
     inkscape:groupmode="layer"
     id="layer1"
     transform="translate(46.539188,-127.81774)">
    <g
       id="g2032"
       transform="matrix(0.35277777,0,0,-0.35277777,-19.476573,171.29192)">
      <path
         d="m 0,0 c 2.694,-0.896 37.452,-12.034 82.075,-5.425 0.909,0.134 1.195,-1.186 0.303,-1.409 -13.45,-3.37 -39.955,-7.901 -83.781,-7.247 -66.723,0.998 -2.704,13.388 1.064,14.105 C -0.218,0.047 -0.116,0.039 0,0"
         style="fill:#945553;fill-opacity:1;fill-rule:nonzero;stroke:none"
         id="path2034" />
    </g>
    <g
       id="g2036"
       transform="matrix(0.35277777,0,0,-0.35277777,-26.695077,174.39785)">
      <path
         d="m 0,0 c 0,0 -0.523,-2.753 3.089,-2.754 3.611,0 18.583,0.944 23.278,-1.224 2.902,-1.339 5.294,-3.469 6.699,-4.901 0.265,-0.269 -0.062,-0.699 -0.394,-0.518 -1.973,1.076 -5.138,2.701 -6.942,3.103 -0.3,0.066 -0.514,-0.293 -0.318,-0.531 1,-1.21 3.181,-3.913 4.061,-5.494 0.17,-0.304 -0.18,-0.629 -0.47,-0.437 l -6.843,4.534 c -0.299,0.2 -0.657,-0.152 -0.459,-0.452 0.818,-1.235 1.958,-3.027 2.485,-4.171 0.138,-0.302 -0.2,-0.599 -0.478,-0.417 -2.29,1.503 -8.801,5.326 -9.946,5.226 -1.336,-0.117 -19.866,1.809 -19.866,1.809 0,0 -2.893,1.095 -0.236,2.839 0,0 1.61,0.775 1.269,2.157 C -5.412,0.151 -0.066,3.963 0,0"
         style="fill:#ae6661;fill-opacity:1;fill-rule:nonzero;stroke:none"
         id="path2038" />
    </g>
    <g
       id="g2040"
       transform="matrix(0.35277777,0,0,-0.35277777,-34.839975,174.39785)">
      <path
         d="m 0,0 c 0,0 0.523,-2.753 -3.089,-2.754 -3.612,0 -18.583,0.944 -23.278,-1.224 -2.903,-1.339 -5.295,-3.469 -6.699,-4.901 -0.265,-0.269 0.061,-0.699 0.394,-0.518 1.973,1.076 5.137,2.701 6.941,3.103 0.301,0.066 0.515,-0.293 0.318,-0.531 -0.999,-1.21 -3.18,-3.913 -4.061,-5.494 -0.169,-0.304 0.181,-0.629 0.471,-0.437 l 6.842,4.534 c 0.3,0.2 0.658,-0.152 0.46,-0.452 -0.818,-1.235 -1.958,-3.027 -2.485,-4.171 -0.139,-0.302 0.199,-0.599 0.477,-0.417 2.29,1.503 8.802,5.326 9.947,5.226 1.336,-0.117 19.866,1.809 19.866,1.809 0,0 2.892,1.095 0.236,2.839 0,0 -1.611,0.775 -1.27,2.157 C 5.411,0.151 0.066,3.963 0,0"
         style="fill:#ae6661;fill-opacity:1;fill-rule:nonzero;stroke:none"
         id="path2042" />
    </g>
    <g
       id="g2044"
       transform="matrix(0.35277777,0,0,-0.35277777,-16.645391,161.53215)">
      <path
         d="m 0,0 c 0,-43.4 -17.923,-41.054 -40.031,-41.054 -22.11,0 -40.032,-2.346 -40.032,41.054 0,43.4 17.922,78.583 40.032,78.583 C -17.923,78.583 0,43.4 0,0"
         style="fill:#383838;fill-opacity:1;fill-rule:nonzero;stroke:none"
         id="path2046" />
    </g>
    <g
       id="g2048"
       transform="matrix(0.35277777,0,0,-0.35277777,-19.458652,166.54957)">
      <path
         d="m 0,0 c 0,-24.407 -14.353,-23.088 -32.057,-23.088 -17.704,0 -32.056,-1.319 -32.056,23.088 0,24.407 14.352,44.193 32.056,44.193 C -14.353,44.193 0,24.407 0,0"
         style="fill:#494949;fill-opacity:1;fill-rule:nonzero;stroke:none"
         id="path2050" />
    </g>
    <g
       id="g2052"
       transform="matrix(0.35277777,0,0,-0.35277777,-25.525125,136.70506)">
      <path
         d="m 0,0 2.023,-4.476 c 0,0 15.259,-5.711 19.888,6.824 1.012,2.738 1.172,5.719 0.773,8.61 l -1.331,9.627 C 18.201,26.564 4.276,6.438 0,0"
         style="fill:#ae6661;fill-opacity:1;fill-rule:nonzero;stroke:none"
         id="path2054" />
    </g>
    <g
       id="g2056"
       transform="matrix(0.35277777,0,0,-0.35277777,-19.371163,128.71553)">
      <path
         d="m 0,0 c -5.618,-2.838 -16.669,-8.884 -21.097,-14.569 l 3.653,-8.078 C -13.168,-16.209 0.757,3.917 3.908,-2.062 3.652,-0.213 1.666,0.841 0,0"
         style="fill:#5b5b5a;fill-opacity:1;fill-rule:nonzero;stroke:none"
         id="path2058" />
    </g>
    <g
       id="g2060"
       transform="matrix(0.35277777,0,0,-0.35277777,-36.206989,136.34159)">
      <path
         d="m 0,0 -2.323,-4.328 c 0,0 -15.612,-4.661 -19.379,8.16 -0.822,2.8 -0.779,5.785 -0.185,8.642 l 1.983,9.515 C -16.354,27.739 -3.829,6.714 0,0"
         style="fill:#ae6661;fill-opacity:1;fill-rule:nonzero;stroke:none"
         id="path2062" />
    </g>
    <g
       id="g2064"
       transform="matrix(0.35277777,0,0,-0.35277777,-41.803878,127.95247)">
      <path
         d="M 0,0 C 5.412,-3.213 16.026,-9.996 20.058,-15.969 L 15.865,-23.78 C 12.036,-17.066 -0.489,3.959 -4.039,-1.792 -3.658,0.036 -1.605,0.953 0,0"
         style="fill:#5b5b5a;fill-opacity:1;fill-rule:nonzero;stroke:none"
         id="path2066" />
    </g>
    <g
       id="g2068"
       transform="matrix(0.35277777,0,0,-0.35277777,-35.084238,133.79655)">
      <path
         d="m 0,0 c 1.515,1.084 3.337,1.624 5.198,1.56 l 7.223,-0.246 7.223,-0.245 c 1.861,-0.064 3.642,-0.725 5.08,-1.91 3.79,-3.124 10.805,-10.589 14.017,-24.861 0.562,-2.495 -0.073,-5.111 -1.696,-7.088 -0.054,-0.065 -0.108,-0.132 -0.163,-0.199 -13.563,-16.303 -38.774,-15.445 -51.196,1.742 -0.051,0.071 -0.101,0.141 -0.15,0.209 -1.485,2.082 -1.94,4.736 -1.211,7.187 C -11.499,-9.83 -3.993,-2.859 0,0"
         style="fill:#444443;fill-opacity:1;fill-rule:nonzero;stroke:none"
         id="path2070" />
    </g>
    <g
       id="g2072"
       transform="matrix(0.35277777,0,0,-0.35277777,-25.301181,140.05991)">
      <path
         d="m 0,0 c -0.053,-1.554 -1.354,-2.77 -2.908,-2.717 -1.554,0.052 -2.771,1.355 -2.718,2.908 0.053,1.554 1.355,2.771 2.909,2.718 C -1.164,2.856 0.053,1.554 0,0"
         style="fill:#1e1c1c;fill-opacity:1;fill-rule:nonzero;stroke:none"
         id="path2074" />
    </g>
    <g
       id="g2076"
       transform="matrix(0.35277777,0,0,-0.35277777,-34.563679,139.74466)">
      <path
         d="m 0,0 c -0.053,-1.554 -1.354,-2.771 -2.908,-2.718 -1.554,0.053 -2.771,1.356 -2.718,2.909 0.053,1.554 1.355,2.77 2.909,2.718 C -1.163,2.856 0.054,1.553 0,0"
         style="fill:#1e1c1c;fill-opacity:1;fill-rule:nonzero;stroke:none"
         id="path2078" />
    </g>
    <g
       id="g2080"
       transform="matrix(0.35277777,0,0,-0.35277777,-31.37732,144.4746)">
      <path
         d="m 0,0 1.1,-0.038 c 0,0 -0.23,-7.328 6.386,-4.296 0,0 -4.912,-3.298 -6.862,-0.333 C 0.493,-4.469 0.23,-4.46 0.086,-4.649 -2.062,-7.474 -6.737,-3.851 -6.737,-3.851 -0.343,-7.325 0,0 0,0"
         style="fill:#383838;fill-opacity:1;fill-rule:nonzero;stroke:none"
         id="path2082" />
    </g>
    <g
       id="g2084"
       transform="matrix(0.35277777,0,0,-0.35277777,-32.375363,143.42336)">
      <path
         d="M 0,0 C 0.848,1.031 4.592,1.52 6.73,-0.106 7.028,-0.333 6.86,-0.829 6.693,-1.094 5.904,-2.346 2.673,-5.204 -0.105,-0.77 -0.251,-0.538 -0.174,-0.212 0,0"
         style="fill:#ae6661;fill-opacity:1;fill-rule:nonzero;stroke:none"
         id="path2086" />
    </g>
    <g
       id="g2088"
       transform="matrix(0.35277777,0,0,-0.35277777,-36.689977,141.77589)">
      <path
         d="m 0,0 c -0.036,-1.066 -1.43,-1.884 -3.113,-1.827 -1.683,0.057 -3.018,0.968 -2.982,2.035 0.036,1.065 1.43,1.883 3.114,1.826 C -1.299,1.977 0.036,1.066 0,0"
         style="fill:#ae6661;fill-opacity:1;fill-rule:nonzero;stroke:none"
         id="path2090" />
    </g>
    <g
       id="g2092"
       transform="matrix(0.35277777,0,0,-0.35277777,-22.796248,142.24857)">
      <path
         d="m 0,0 c -0.036,-1.066 -1.431,-1.884 -3.113,-1.827 -1.684,0.057 -3.019,0.968 -2.983,2.035 0.037,1.065 1.431,1.883 3.114,1.826 C -1.299,1.977 0.036,1.066 0,0"
         style="fill:#ae6661;fill-opacity:1;fill-rule:nonzero;stroke:none"
         id="path2094" />
    </g>
    <g
       id="g2096"
       transform="matrix(0.35277777,0,0,-0.35277777,-41.895883,144.4746)">
      <path
         d="M 0,0 C 0,0 -20.053,-26.947 -8.486,-35.391 3.079,-43.835 3.292,-10.528 3.292,-10.528 Z"
         style="fill:#383838;fill-opacity:1;fill-rule:nonzero;stroke:none"
         id="path2098" />
    </g>
    <g
       id="g2100"
       transform="matrix(0.35277777,0,0,-0.35277777,-19.542719,144.4746)">
      <path
         d="M 0,0 C 0,0 20.053,-26.947 8.486,-35.391 -3.079,-43.835 -3.292,-10.528 -3.292,-10.528 Z"
         style="fill:#383838;fill-opacity:1;fill-rule:nonzero;stroke:none"
         id="path2102" />
    </g>
    <g
       id="g2104"
       transform="matrix(0.35277777,0,0,-0.35277777,-43.228783,153.09836)">
      <path
         d="m 0,0 h 21.088 c 0,0 7.423,-2.189 0.662,-6.411 -6.761,-4.222 -22.366,-5.839 -22.366,-5.839 z"
         style="fill:#383838;fill-opacity:1;fill-rule:nonzero;stroke:none"
         id="path2106" />
    </g>
    <g
       id="g2108"
       transform="matrix(0.35277777,0,0,-0.35277777,-18.88299,153.09836)">
      <path
         d="m 0,0 h -21.088 c 0,0 -7.423,-2.189 -0.662,-6.411 6.761,-4.222 22.366,-5.839 22.366,-5.839 z"
         style="fill:#383838;fill-opacity:1;fill-rule:nonzero;stroke:none"
         id="path2110" />
    </g>
    <g
       id="g2112"
       transform="matrix(0.35277777,0,0,-0.35277777,-33.943566,150.52541)">
      <path
         d="m 0,0 c 0.588,-0.067 0.218,-0.662 -0.167,-1.113 l -0.449,-0.48 c 2.055,1.346 3.514,1.359 4.16,1.264 0.102,-0.014 0.194,-0.065 0.271,-0.13 0.068,-0.075 0.122,-0.164 0.14,-0.266 0.117,-0.643 0.155,-2.1 -1.117,-4.203 l 0.465,0.467 c 0.436,0.399 1.017,0.791 1.105,0.206 0.006,-4.06 -4.181,-6.397 -6.758,-7.453 -1.142,-0.467 -1.976,-0.689 -1.976,-0.689 l 0.009,0.008 -0.145,-0.044 c -0.897,-0.09 -1.775,0.277 -2.425,0.888 -0.633,0.627 -1.031,1.491 -0.972,2.392 l 0.039,0.145 -0.009,-0.008 c 0,0 0.193,0.841 0.62,1.999 C -6.244,-4.405 -4.058,-0.138 0,0"
         style="fill:#ae6661;fill-opacity:1;fill-rule:nonzero;stroke:none"
         id="path2114" />
    </g>
    <g
       id="g2116"
       transform="matrix(0.35277777,0,0,-0.35277777,-27.881222,150.52541)">
      <path
         d="m 0,0 c -0.588,-0.067 -0.217,-0.662 0.167,-1.113 l 0.449,-0.48 c -2.055,1.346 -3.513,1.359 -4.16,1.264 -0.102,-0.014 -0.194,-0.065 -0.27,-0.13 -0.069,-0.075 -0.123,-0.164 -0.141,-0.266 -0.117,-0.643 -0.155,-2.1 1.117,-4.203 l -0.465,0.467 c -0.436,0.399 -1.017,0.791 -1.105,0.206 -0.005,-4.06 4.181,-6.397 6.759,-7.453 1.141,-0.467 1.975,-0.689 1.975,-0.689 l -0.008,0.008 0.144,-0.044 c 0.897,-0.09 1.775,0.277 2.425,0.888 0.634,0.627 1.031,1.491 0.972,2.392 l -0.038,0.145 0.008,-0.008 c 0,0 -0.193,0.841 -0.62,1.999 C 6.245,-4.405 4.058,-0.138 0,0"
         style="fill:#ae6661;fill-opacity:1;fill-rule:nonzero;stroke:none"
         id="path2118" />
    </g>
  </g>
</svg>
