<?xml version="1.0" encoding="UTF-8" standalone="no"?>
<!-- Created with Inkscape (http://www.inkscape.org/) -->

<svg
   width="80.238358mm"
   height="39.968349mm"
   viewBox="0 0 80.238358 39.968349"
   version="1.1"
   id="svg1795"
   inkscape:version="1.1.1 (c3084ef, 2021-09-22)"
   sodipodi:docname="black-pulling.svg"
   xmlns:inkscape="http://www.inkscape.org/namespaces/inkscape"
   xmlns:sodipodi="http://sodipodi.sourceforge.net/DTD/sodipodi-0.dtd"
   xmlns="http://www.w3.org/2000/svg"
   xmlns:svg="http://www.w3.org/2000/svg">
  <sodipodi:namedview
     id="namedview1797"
     pagecolor="#ffffff"
     bordercolor="#999999"
     borderopacity="1"
     inkscape:pageshadow="0"
     inkscape:pageopacity="0"
     inkscape:pagecheckerboard="0"
     inkscape:document-units="mm"
     showgrid="false"
     fit-margin-top="0"
     fit-margin-left="0"
     fit-margin-right="0"
     fit-margin-bottom="0"
     inkscape:zoom="0.64052329"
     inkscape:cx="272.4335"
     inkscape:cy="386.40281"
     inkscape:window-width="1312"
     inkscape:window-height="969"
     inkscape:window-x="0"
     inkscape:window-y="23"
     inkscape:window-maximized="0"
     inkscape:current-layer="layer1" />
  <defs
     id="defs1792" />
  <g
     inkscape:label="Layer 1"
     inkscape:groupmode="layer"
     id="layer1"
     transform="translate(90.514176,-51.064505)">
    <g
       id="g1058"
       transform="matrix(0.35277777,0,0,-0.35277777,-83.169454,83.541402)">
      <path
         d="m 0,0 v 0.001 c -0.579,1.278 -0.013,2.784 1.267,3.363 l 12.462,5.645 c 0.721,0.327 1.041,1.177 0.714,1.897 l -3.833,8.463 c -0.431,0.953 -0.231,2.065 0.491,2.821 2.003,2.101 6.42,5.709 11.769,3.756 3.4,-1.241 5.671,-4.453 6.147,-8.04 0.465,-3.51 0.749,-8.962 -0.383,-15.55 -0.169,-0.984 -0.921,-1.769 -1.893,-2 C 22.565,-0.632 10.999,-3.006 1.848,-1.46 1.027,-1.321 0.343,-0.758 0,0"
         style="fill:#444443;fill-opacity:1;fill-rule:nonzero;stroke:none"
         id="path1060" />
    </g>
    <g
       id="g1062"
       transform="matrix(0.35277777,0,0,-0.35277777,-39.430196,73.472419)">
      <path
         d="m 0,0 c 0,0 19.027,5.871 39.021,0 18.365,-5.393 50.058,-9.434 30.372,2.968 -0.732,0.461 -0.045,1.4 0.778,1.063 7.65,-3.132 17.534,-8.467 9.46,-12.752 C 70.459,-13.589 50.569,-9.61 41.198,-7.317 35.35,-5.886 29.271,-5.132 23.177,-5.322 14.904,-5.581 4.849,-7.319 0,-13.619 -9.029,-25.353 0,0 0,0"
         style="fill:#ae6661;fill-opacity:1;fill-rule:nonzero;stroke:none"
         id="path1064" />
    </g>
    <g
       id="g1066"
       transform="matrix(0.35277777,0,0,-0.35277777,-43.4344,84.464339)">
      <path
         d="m 0,0 c 0,0 9.149,-1.936 18.299,33.217 0,0 -0.715,2.156 -2.314,5.593 -14.214,30.569 -45.452,46.495 -76.006,39.629 -13.822,-3.106 -37.54,-34.082 -48.902,-47.679 0,0 10.612,-30.266 41.284,-33.018 C -64.044,-2.58 0,0 0,0"
         style="fill:#383838;fill-opacity:1;fill-rule:nonzero;stroke:none"
         id="path1068" />
    </g>
    <g
       id="g1070"
       transform="matrix(0.35277777,0,0,-0.35277777,-70.40539,61.650201)">
      <path
         d="m 0,0 3.909,-3.22 c 0,0 16.719,1.661 15.296,15.367 -0.31,2.994 -1.519,5.825 -3.206,8.318 l -5.613,8.302 C 4.748,32.864 1.025,7.904 0,0"
         style="fill:#ae6661;fill-opacity:1;fill-rule:nonzero;stroke:none"
         id="path1072" />
    </g>
    <g
       id="g1074"
       transform="matrix(0.35277777,0,0,-0.35277777,-68.348307,51.456511)">
      <path
         d="m 0,0 c -3.906,-5.184 -11.379,-15.808 -12.888,-23.083 l 7.057,-5.813 C -4.806,-20.991 -1.083,3.969 4.555,-0.129 3.477,1.466 1.158,1.537 0,0"
         style="fill:#5b5b5a;fill-opacity:1;fill-rule:nonzero;stroke:none"
         id="path1076" />
    </g>
    <g
       id="g1078"
       transform="matrix(0.35277777,0,0,-0.35277777,-80.454018,66.176375)">
      <path
         d="m 0,0 -0.18,-5.062 c 0,0 -12.323,-11.419 -21.644,-1.272 -2.036,2.217 -3.355,4.998 -4.105,7.913 l -2.497,9.705 C -27.76,18.221 -6.6,4.469 0,0"
         style="fill:#ae6661;fill-opacity:1;fill-rule:nonzero;stroke:none"
         id="path1080" />
    </g>
    <g
       id="g1082"
       transform="matrix(0.35277777,0,0,-0.35277777,-89.451579,60.962249)">
      <path
         d="M 0,0 C 6.47,-0.509 19.379,-1.953 25.827,-5.645 L 25.505,-14.78 C 18.905,-10.312 -2.255,3.44 -2.921,-3.496 -3.401,-1.632 -1.919,0.151 0,0"
         style="fill:#5b5b5a;fill-opacity:1;fill-rule:nonzero;stroke:none"
         id="path1084" />
    </g>
    <g
       id="g1086"
       transform="matrix(0.35277777,0,0,-0.35277777,-80.573927,63.310408)">
      <path
         d="m 0,0 c 0.908,1.692 2.349,3.021 4.1,3.81 l 6.795,3.06 6.793,3.061 c 1.752,0.789 3.702,0.987 5.571,0.545 4.928,-1.165 14.817,-4.879 24.287,-16.622 1.655,-2.052 2.259,-4.762 1.657,-7.33 -0.02,-0.085 -0.041,-0.17 -0.061,-0.258 -5.127,-21.258 -28.844,-31.941 -48.163,-21.694 -0.079,0.042 -0.157,0.084 -0.233,0.125 -2.322,1.251 -3.951,3.499 -4.392,6.099 C -6.165,-14.33 -2.393,-4.464 0,0"
         style="fill:#444443;fill-opacity:1;fill-rule:nonzero;stroke:none"
         id="path1088" />
    </g>
    <g
       id="g1090"
       transform="matrix(0.35277777,0,0,-0.35277777,-68.671134,64.652269)">
      <path
         d="M 0,0 C 0.659,-1.461 0.008,-3.18 -1.454,-3.838 -2.915,-4.497 -4.634,-3.846 -5.292,-2.384 -5.95,-0.923 -5.3,0.796 -3.838,1.454 -2.376,2.112 -0.658,1.462 0,0"
         style="fill:#181717;fill-opacity:1;fill-rule:nonzero;stroke:none"
         id="path1092" />
    </g>
    <g
       id="g1094"
       transform="matrix(0.35277777,0,0,-0.35277777,-77.384463,68.576922)">
      <path
         d="M 0,0 C 0.658,-1.462 0.008,-3.181 -1.454,-3.839 -2.916,-4.497 -4.634,-3.846 -5.293,-2.385 -5.951,-0.923 -5.3,0.796 -3.838,1.454 -2.377,2.112 -0.658,1.461 0,0"
         style="fill:#181717;fill-opacity:1;fill-rule:nonzero;stroke:none"
         id="path1096" />
    </g>
    <g
       id="g1098"
       transform="matrix(0.35277777,0,0,-0.35277777,-72.282944,71.502861)">
      <path
         d="m 0,0 1.034,0.466 c 0,0 3.123,-6.886 7.864,-1.07 0,0 -3.043,-5.286 -6.197,-3.431 C 2.489,-3.911 2.242,-4.022 2.195,-4.263 1.494,-7.854 -4.482,-6.63 -4.482,-6.63 3.016,-6.934 0,0 0,0"
         style="fill:#383838;fill-opacity:1;fill-rule:nonzero;stroke:none"
         id="path1100" />
    </g>
    <g
       id="g1102"
       transform="matrix(0.35277777,0,0,-0.35277777,-73.685094,70.984701)">
      <path
         d="M 0,0 C 0.314,1.34 3.557,3.497 6.275,2.966 6.653,2.893 6.725,2.356 6.69,2.035 6.53,0.518 4.842,-3.598 0.253,-0.76 0.013,-0.611 -0.065,-0.275 0,0"
         style="fill:#ae6661;fill-opacity:1;fill-rule:nonzero;stroke:none"
         id="path1104" />
    </g>
    <g
       id="g1106"
       transform="matrix(0.35277777,0,0,-0.35277777,-78.427274,71.424297)">
      <path
         d="m 0,0 c 0.452,-1.003 -0.466,-2.395 -2.049,-3.107 -1.583,-0.714 -3.233,-0.479 -3.684,0.524 -0.453,1.003 0.464,2.395 2.048,3.107 C -2.102,1.237 -0.452,1.003 0,0"
         style="fill:#ae6661;fill-opacity:1;fill-rule:nonzero;stroke:none"
         id="path1108" />
    </g>
    <g
       id="g1110"
       transform="matrix(0.35277777,0,0,-0.35277777,-65.356928,65.537318)">
      <path
         d="m 0,0 c 0.451,-1.003 -0.466,-2.394 -2.049,-3.106 -1.584,-0.714 -3.233,-0.479 -3.685,0.524 -0.452,1.003 0.465,2.395 2.048,3.107 C -2.102,1.238 -0.452,1.004 0,0"
         style="fill:#ae6661;fill-opacity:1;fill-rule:nonzero;stroke:none"
         id="path1112" />
    </g>
    <g
       id="g1114"
       transform="matrix(0.35277777,0,0,-0.35277777,-46.489879,81.068853)">
      <path
         d="m 0,0 c 0,0 -0.066,-5.721 -3.83,-5.799 -3.765,-0.079 -19.154,1.568 -24.529,-3.048 -3.323,-2.853 -6.29,-7.34 -8.072,-10.35 -0.336,-0.568 -0.091,-1.456 0.295,-1.073 2.295,2.284 5.954,5.736 7.923,6.612 0.33,0.146 0.473,-0.598 0.214,-1.099 -1.311,-2.542 -4.184,-8.217 -5.453,-11.528 -0.244,-0.637 0.048,-1.307 0.392,-0.9 l 8.139,9.59 c 0.357,0.42 0.651,-0.304 0.379,-0.932 -1.127,-2.59 -2.714,-6.347 -3.518,-8.74 -0.211,-0.632 0.075,-1.243 0.405,-0.857 2.72,3.179 10.356,11.279 11.527,11.095 1.367,-0.215 21.104,4.193 21.104,4.193 0,0 3.257,2.343 0.878,5.919 0,0 -1.506,1.576 -0.843,4.463 C 5.673,0.433 0.951,8.257 0,0"
         style="fill:#ae6661;fill-opacity:1;fill-rule:nonzero;stroke:none"
         id="path1116" />
    </g>
    <g
       id="g1118"
       transform="matrix(0.35277777,0,0,-0.35277777,-55.649331,76.782462)">
      <path
         d="m 0,0 c 5.604,15.83 19.378,29.148 52.768,12.347 0,0 3.019,-3.412 3.019,-7.12 V -9.792 c 0,0 -0.183,-6.198 -7.493,-9.054 -4.259,-1.663 -13.458,-5.326 -24.892,-7.78 C 7.848,-29.964 -5.31,-14.997 0,0"
         style="fill:#444443;fill-opacity:1;fill-rule:nonzero;stroke:none"
         id="path1120" />
    </g>
    <g
       id="g1122"
       transform="matrix(0.35277777,0,0,-0.35277777,-71.057182,86.735664)">
      <path
         d="m 0,0 v 0 c -0.579,1.279 -0.012,2.785 1.267,3.364 l 12.462,5.645 c 0.722,0.326 1.042,1.176 0.715,1.897 l -3.833,8.463 c -0.431,0.953 -0.231,2.064 0.491,2.821 2.002,2.1 6.42,5.709 11.769,3.756 3.399,-1.242 5.671,-4.453 6.147,-8.04 0.464,-3.51 0.749,-8.963 -0.383,-15.55 -0.169,-0.984 -0.921,-1.77 -1.893,-2 C 22.566,-0.632 10.999,-3.006 1.849,-1.46 1.028,-1.321 0.344,-0.758 0,0"
         style="fill:#444443;fill-opacity:1;fill-rule:nonzero;stroke:none"
         id="path1124" />
    </g>
    <g
       id="g1126"
       transform="matrix(0.35277777,0,0,-0.35277777,-73.805674,89.058035)">
      <path
         d="M 0,0 C -0.543,0.277 0.029,0.718 0.562,1.015 L 1.171,1.316 C -1.301,0.759 -2.715,1.272 -3.305,1.598 -3.398,1.649 -3.469,1.73 -3.519,1.821 c -0.039,0.097 -0.058,0.202 -0.039,0.308 0.119,0.663 0.609,2.085 2.597,3.655 L -1.578,5.502 c -0.567,-0.229 -1.269,-0.397 -1.143,0.2 1.461,3.923 6.349,4.668 9.219,4.757 1.273,0.039 2.158,-0.047 2.158,-0.047 L 8.646,10.407 8.8,10.396 C 9.699,10.16 10.415,9.488 10.821,8.664 11.206,7.829 11.278,6.851 10.896,6.002 l -0.089,-0.126 0.011,0.005 c 0,0 -0.49,-0.742 -1.321,-1.706 C 7.622,1.999 3.969,-1.332 0,0"
         style="fill:#ae6661;fill-opacity:1;fill-rule:nonzero;stroke:none"
         id="path1128" />
    </g>
    <g
       id="g1130"
       transform="matrix(0.35277777,0,0,-0.35277777,-85.27649,83.89933)">
      <path
         d="M 0,0 C -0.357,0.494 0.354,0.625 0.964,0.646 L 1.643,0.637 c -2.455,0.631 -3.479,1.733 -3.856,2.291 -0.059,0.089 -0.085,0.193 -0.088,0.297 0.009,0.103 0.04,0.206 0.105,0.291 0.408,0.536 1.492,1.578 3.978,2.069 L 1.104,5.615 C 0.496,5.67 -0.206,5.841 0.179,6.314 3.268,9.14 7.957,7.573 10.553,6.344 11.703,5.799 12.451,5.318 12.451,5.318 H 12.439 L 12.572,5.239 C 13.266,4.618 13.596,3.694 13.581,2.775 13.544,1.856 13.161,0.953 12.435,0.372 L 12.298,0.3 h 0.012 c 0,0 -0.776,-0.438 -1.955,-0.917 C 7.695,-1.697 2.925,-2.996 0,0"
         style="fill:#ae6661;fill-opacity:1;fill-rule:nonzero;stroke:none"
         id="path1132" />
    </g>
  </g>
</svg>
