<?xml version="1.0" encoding="UTF-8" standalone="no"?>
<!-- Created with Inkscape (http://www.inkscape.org/) -->

<svg
   version="1.1"
   id="svg1938"
   xml:space="preserve"
   width="155.71078"
   height="234.67047"
   viewBox="0 0 155.71079 234.67047"
   sodipodi:docname="brown-up-away.ai.svg"
   inkscape:version="1.1.1 (c3084ef, 2021-09-22)"
   xmlns:inkscape="http://www.inkscape.org/namespaces/inkscape"
   xmlns:sodipodi="http://sodipodi.sourceforge.net/DTD/sodipodi-0.dtd"
   xmlns="http://www.w3.org/2000/svg"
   xmlns:svg="http://www.w3.org/2000/svg"><defs
     id="defs1942"><clipPath
       clipPathUnits="userSpaceOnUse"
       id="clipPath1954"><path
         d="M 0,500 H 500 V 0 H 0 Z"
         id="path1952" /></clipPath><clipPath
       clipPathUnits="userSpaceOnUse"
       id="clipPath2266"><path
         d="M 0,500 H 500 V 0 H 0 Z"
         id="path2264" /></clipPath></defs><sodipodi:namedview
     id="namedview1940"
     pagecolor="#ffffff"
     bordercolor="#999999"
     borderopacity="1"
     inkscape:pageshadow="0"
     inkscape:pageopacity="0"
     inkscape:pagecheckerboard="0"
     showgrid="false"
     fit-margin-top="0"
     fit-margin-left="0"
     fit-margin-right="0"
     fit-margin-bottom="0"
     inkscape:zoom="1.1145"
     inkscape:cx="244.05564"
     inkscape:cy="140.42172"
     inkscape:window-width="1609"
     inkscape:window-height="969"
     inkscape:window-x="0"
     inkscape:window-y="23"
     inkscape:window-maximized="0"
     inkscape:current-layer="g1950" /><g
     id="g1944"
     inkscape:groupmode="layer"
     inkscape:label="215406-P1ATE6-552"
     transform="matrix(1.3333333,0,0,-1.3333333,-88.813406,545.53154)"><g
       id="g1948"><g
         id="g1950"
         clip-path="url(#clipPath1954)"><g
           id="g1956"
           transform="translate(179.6064,365.9365)"><path
             d="m 0,0 c 0.991,-0.243 1.524,1.042 0.603,1.459 -10.101,4.582 -23.055,5.897 -16.419,-22.652 10.323,-44.413 22.376,-66.16 -8.693,-65.447 0,0 -7.834,-3.922 0,-10.339 0,0 51.028,-9.632 16.033,73.453 -1.444,3.43 -2.541,7 -3.002,10.659 C -12.348,-5.953 -11.391,2.794 0,0"
             style="fill:#dcb3ae;fill-opacity:1;fill-rule:nonzero;stroke:none"
             id="path1958" /></g><g
           id="g1960"
           transform="translate(93.4761,350.9839)"><path
             d="m 0,0 c 0,0 -9.184,-18.133 -9.542,-22.07 0,0 -5.607,2.844 -5.368,-2.336 0.239,-5.18 7.141,-16.633 9.535,-15.917 2.395,0.716 6.809,7.635 6.809,7.635 l 3.85,18.128 z"
             style="fill:#8a694c;fill-opacity:1;fill-rule:nonzero;stroke:none"
             id="path1962" /></g><g
           id="g1964"
           transform="translate(99.4614,252.478)"><path
             d="m 0,0 c 0,0 0.763,-2.746 -2.899,-3.051 -3.661,-0.305 -18.917,-0.611 -23.494,-3.204 -2.829,-1.603 -5.075,-3.963 -6.378,-5.533 -0.246,-0.296 0.122,-0.705 0.443,-0.493 1.909,1.257 4.98,3.171 6.775,3.732 0.3,0.092 0.547,-0.254 0.367,-0.512 -0.911,-1.312 -2.894,-4.234 -3.653,-5.911 -0.146,-0.323 0.236,-0.623 0.514,-0.404 l 6.554,5.173 c 0.286,0.227 0.679,-0.099 0.503,-0.42 -0.724,-1.32 -1.729,-3.233 -2.166,-4.437 -0.116,-0.318 0.252,-0.591 0.518,-0.382 2.195,1.717 8.474,6.141 9.643,6.136 1.365,-0.006 19.985,3.509 19.985,3.509 0,0 2.841,1.354 0,2.899 0,0 -1.697,0.648 -1.468,2.078 C 5.473,0.61 -0.267,4.024 0,0"
             style="fill:#feca9e;fill-opacity:1;fill-rule:nonzero;stroke:none"
             id="path1966" /></g><g
           id="g1968"
           transform="translate(110.2588,385.1792)"><path
             d="m 0,0 -2.212,-4.48 c 0,0 -15.71,-5.279 -19.983,7.625 -0.934,2.818 -0.993,5.855 -0.487,8.78 l 1.686,9.742 C -17.586,27.635 -4.125,6.693 0,0"
             style="fill:#eacbc7;fill-opacity:1;fill-rule:nonzero;stroke:none"
             id="path1970" /></g><g
           id="g1972"
           transform="translate(93.3071,408.8066)"><path
             d="m 0,0 c 5.613,-3.08 16.639,-9.608 20.943,-15.541 l -3.991,-8.086 C 12.827,-16.934 -0.634,4.008 -4.044,-1.961 -3.72,-0.09 -1.665,0.913 0,0"
             style="fill:#b6967e;fill-opacity:1;fill-rule:nonzero;stroke:none"
             id="path1974" /></g><g
           id="g1976"
           transform="translate(137.3848,386.1338)"><path
             d="m 0,0 2.861,-2.466 c 0,0 14.033,0.761 14.454,10.843 0.092,2.202 -0.579,4.309 -1.684,6.182 l -3.679,6.237 C 7.764,23.952 1.771,5.764 0,0"
             style="fill:#eacbc7;fill-opacity:1;fill-rule:nonzero;stroke:none"
             id="path1978" /></g><g
           id="g1980"
           transform="translate(145.582,407.1484)"><path
             d="m 0,0 c -3.838,-3.691 -11.263,-11.273 -13.36,-16.563 l 5.163,-4.452 C -6.426,-15.251 -0.434,2.938 3.755,-0.219 3.048,0.979 1.138,1.095 0,0"
             style="fill:#b6967e;fill-opacity:1;fill-rule:nonzero;stroke:none"
             id="path1982" /></g><g
           id="g1984"
           transform="translate(137.7383,388.2056)"><path
             d="m 0,0 c 0,-1.582 1.282,-2.863 2.863,-2.863 1.582,0 2.864,1.281 2.864,2.863 0,1.581 -1.282,2.863 -2.864,2.863 C 1.282,2.863 0,1.581 0,0"
             style="fill:#1e1c1c;fill-opacity:1;fill-rule:nonzero;stroke:none"
             id="path1986" /></g><g
           id="g1988"
           transform="translate(149.4297,350.9839)"><path
             d="m 0,0 5.727,15.271 c 0,0 5.726,13.361 -5.727,19.087 0,0 -7.635,1.909 -9.544,5.726 -1.909,3.818 -7.635,5.727 -13.361,5.727 -5.727,0 -26.723,0 -32.45,-41.994 -1.419,-9.323 -3.102,-17.894 -3.935,-28.285 -0.009,-0.121 0.078,-0.231 0.118,-0.346 0,0 -5.727,-20.997 1.908,-66.808 0,0 1.909,-24.814 59.173,-7.635 0,0 26.723,7.635 11.453,47.72 l -9.545,26.723 c 0,0 9.545,7.635 -3.817,24.814"
             style="fill:#997a5c;fill-opacity:1;fill-rule:nonzero;stroke:none"
             id="path1990" /></g><g
           id="g1992"
           transform="translate(115.0713,388.2056)"><path
             d="m 0,0 c 0,-1.582 1.282,-2.863 2.863,-2.863 1.582,0 2.864,1.281 2.864,2.863 0,1.581 -1.282,2.863 -2.864,2.863 C 1.282,2.863 0,1.581 0,0"
             style="fill:#1e1c1c;fill-opacity:1;fill-rule:nonzero;stroke:none"
             id="path1994" /></g><g
           id="g1996"
           transform="translate(111.1484,381.5952)"><path
             d="m 0,0 c 0,-1.085 1.389,-1.965 3.102,-1.965 1.713,0 3.102,0.88 3.102,1.965 0,1.085 -1.389,1.965 -3.102,1.965 C 1.389,1.965 0,1.085 0,0"
             style="fill:#eacbc7;fill-opacity:1;fill-rule:nonzero;stroke:none"
             id="path1998" /></g><g
           id="g2000"
           transform="translate(92.0718,259.3408)"><path
             d="m 0,0 c -7.635,45.811 -1.909,66.808 -1.909,66.808 0,0 20.679,35.999 42.948,0 C 58.838,38.035 51.339,5.501 47.61,-6.402 46.7,-9.31 44.236,-11.485 41.239,-12.034 1.518,-19.309 0,0 0,0"
             style="fill:#ac8a6f;fill-opacity:1;fill-rule:nonzero;stroke:none"
             id="path2002" /></g><g
           id="g2004"
           transform="translate(146.0874,350.5747)"><path
             d="m 0,0 c 2.56,1.158 5.547,-0.245 6.763,-2.899 1.401,-3.058 3.194,-7.91 3.338,-12.946 0.239,-8.348 -7.396,-18.721 -16.225,-22.769 0,0 -8.112,1.518 -12.168,9.867 -4.057,8.348 6.919,3.541 6.919,3.541 l 9.306,13.662 c 0,0 -3.151,9.185 2.067,11.544"
             style="fill:#8a694c;fill-opacity:1;fill-rule:nonzero;stroke:none"
             id="path2006" /></g><g
           id="g2008"
           transform="translate(125.6313,312.8672)"><path
             d="m 0,0 c -0.586,-0.136 -0.434,0.56 -0.22,1.123 l 0.266,0.614 c -1.509,-1.992 -2.902,-2.504 -3.553,-2.634 -0.104,-0.021 -0.208,-0.004 -0.304,0.033 -0.091,0.048 -0.173,0.115 -0.225,0.206 -0.332,0.576 -0.867,1.959 -0.367,4.408 L -4.688,3.145 c -0.283,-0.532 -0.705,-1.106 -0.99,-0.576 -1.393,3.888 1.819,7.558 3.927,9.451 0.934,0.838 1.657,1.336 1.657,1.336 l -0.005,-0.01 0.123,0.091 C 0.853,13.83 1.82,13.779 2.651,13.416 3.472,13.031 4.148,12.339 4.4,11.456 l 0.013,-0.152 0.005,0.011 c 0,0 0.103,-0.872 0.089,-2.127 C 4.477,6.355 3.84,1.52 0,0"
             style="fill:#feca9e;fill-opacity:1;fill-rule:nonzero;stroke:none"
             id="path2010" /></g><g
           id="g2012"
           transform="translate(91.9917,330.5015)"><path
             d="m 0,0 c 0.346,-0.492 -0.357,-0.612 -0.959,-0.625 l -0.669,0.017 C 0.785,-1.261 1.78,-2.361 2.146,-2.917 2.203,-3.004 2.227,-3.108 2.229,-3.21 2.218,-3.313 2.187,-3.414 2.122,-3.497 1.712,-4.02 0.63,-5.034 -1.829,-5.487 l 0.669,-0.038 c 0.599,-0.062 1.289,-0.24 0.904,-0.702 -3.083,-2.748 -7.689,-1.144 -10.233,0.102 -1.128,0.552 -1.86,1.035 -1.86,1.035 h 0.012 l -0.13,0.08 c -0.676,0.621 -0.991,1.537 -0.965,2.443 0.049,0.906 0.437,1.792 1.161,2.357 l 0.137,0.068 -0.012,0.001 c 0,0 0.77,0.422 1.939,0.879 C -7.569,1.771 -2.847,2.991 0,0"
             style="fill:#feca9e;fill-opacity:1;fill-rule:nonzero;stroke:none"
             id="path2014" /></g><g
           id="g2016"
           transform="translate(147.6401,378.5435)"><path
             d="m 0,0 c 0,0 0.849,-8.353 -4.824,-10.261 0,0 6.256,-0.116 5.898,10.261 0,0 -0.477,1.314 -1.074,0"
             style="fill:#7a593f;fill-opacity:1;fill-rule:nonzero;stroke:none"
             id="path2018" /></g><g
           id="g2020"
           transform="translate(147.7505,371.7979)"><path
             d="m 0,0 c 0,0 2.006,-1.83 2.13,-4.748 0,0 0.421,2.82 -2.13,6.283"
             style="fill:#7a593f;fill-opacity:1;fill-rule:nonzero;stroke:none"
             id="path2022" /></g><g
           id="g2024"
           transform="translate(151.0322,382.3188)"><path
             d="m 0,0 c -0.96,1.253 -4.307,1.951 -7.958,0.146 -0.396,-0.196 -0.29,-0.838 0.004,-1.169 1.392,-1.569 5.449,-5.375 8.047,0.109 C 0.232,-0.621 0.197,-0.257 0,0"
             style="fill:#dcb3ae;fill-opacity:1;fill-rule:nonzero;stroke:none"
             id="path2026" /></g><g
           id="g2028"
           transform="translate(143.7559,248.6602)"><path
             d="m 0,0 c 0,0 -0.763,-2.746 2.898,-3.051 3.662,-0.305 18.918,-0.61 23.495,-3.204 2.829,-1.602 5.075,-3.964 6.378,-5.533 0.246,-0.296 -0.122,-0.704 -0.443,-0.492 -1.91,1.257 -4.98,3.171 -6.775,3.73 -0.3,0.094 -0.547,-0.253 -0.367,-0.511 0.911,-1.311 2.893,-4.235 3.652,-5.912 0.146,-0.322 -0.235,-0.622 -0.513,-0.403 l -6.554,5.174 c -0.287,0.226 -0.68,-0.1 -0.504,-0.42 0.725,-1.321 1.73,-3.233 2.167,-4.438 0.116,-0.318 -0.252,-0.59 -0.518,-0.381 -2.195,1.716 -8.474,6.14 -9.643,6.135 -1.365,-0.006 -19.986,3.509 -19.986,3.509 0,0 -2.84,1.355 0,2.899 0,0 1.697,0.648 1.469,2.079 C -5.473,0.61 0.267,4.024 0,0"
             style="fill:#feca9e;fill-opacity:1;fill-rule:nonzero;stroke:none"
             id="path2030" /></g></g></g></g></svg>
