<?xml version="1.0" encoding="UTF-8" standalone="no"?>
<!-- Created with Inkscape (http://www.inkscape.org/) -->

<svg
   width="32.022697mm"
   height="32.787159mm"
   viewBox="0 0 32.022697 32.787159"
   version="1.1"
   id="svg14601"
   inkscape:version="1.1.1 (c3084ef, 2021-09-22)"
   sodipodi:docname="daruma.svg"
   xmlns:inkscape="http://www.inkscape.org/namespaces/inkscape"
   xmlns:sodipodi="http://sodipodi.sourceforge.net/DTD/sodipodi-0.dtd"
   xmlns="http://www.w3.org/2000/svg"
   xmlns:svg="http://www.w3.org/2000/svg">
  <sodipodi:namedview
     id="namedview14603"
     pagecolor="#ffffff"
     bordercolor="#999999"
     borderopacity="1"
     inkscape:pageshadow="0"
     inkscape:pageopacity="0"
     inkscape:pagecheckerboard="0"
     inkscape:document-units="mm"
     showgrid="false"
     fit-margin-top="0"
     fit-margin-left="0"
     fit-margin-right="0"
     fit-margin-bottom="0"
     inkscape:zoom="0.55856481"
     inkscape:cx="59.975135"
     inkscape:cy="61.765437"
     inkscape:window-width="1312"
     inkscape:window-height="855"
     inkscape:window-x="0"
     inkscape:window-y="23"
     inkscape:window-maximized="0"
     inkscape:current-layer="layer1" />
  <defs
     id="defs14598" />
  <g
     inkscape:label="Layer 1"
     inkscape:groupmode="layer"
     id="layer1"
     transform="translate(-88.909704,-132.10642)">
    <path
       d="m 104.92158,164.89358 c 13.2327,0 16.01082,-7.74488 16.01082,-14.24022 0,-6.49464 -1.385,-9.44704 -3.46992,-12.64285 -2.08421,-3.19546 -6.79979,-5.90409 -12.5409,-5.90409 -5.741456,0 -10.456331,2.70863 -12.541248,5.90409 -2.085269,3.19581 -3.470628,6.14821 -3.470628,12.64285 0,6.49534 2.778831,14.24022 16.011876,14.24022"
       style="fill:#d81618;fill-opacity:1;fill-rule:nonzero;stroke:none;stroke-width:0.352778"
       id="path1266" />
    <path
       d="m 104.92158,152.21616 c 3.43888,0 7.25911,0 9.41282,0 2.15335,0 3.54224,-1.04175 3.54224,-3.92395 0,-3.4043 -0.87701,-6.72958 -3.36797,-8.89247 -1.89971,-1.64888 -6.2872,-1.87501 -9.58709,-1.87501 -3.29953,0 -7.687379,0.22613 -9.586029,1.87501 -2.492374,2.16289 -3.36938,5.48817 -3.36938,8.89247 0,2.8822 1.388886,3.92395 3.543653,3.92395 2.152297,0 5.972876,0 9.411756,0"
       style="fill:#ffffff;fill-opacity:1;fill-rule:nonzero;stroke:none;stroke-width:0.352778"
       id="path1268" />
    <path
       d="m 113.47256,142.02229 c 1.15112,1.90289 0.7613,4.24569 -0.8703,5.23099 -1.63089,0.98602 -3.8862,0.24236 -5.03626,-1.66052 -1.1497,-1.90324 -0.76058,-4.24533 0.87101,-5.23064 1.63089,-0.98566 3.8862,-0.24306 5.03555,1.66017"
       style="fill:#d81618;fill-opacity:1;fill-rule:nonzero;stroke:none;stroke-width:0.352778"
       id="path1270" />
    <path
       d="m 96.459149,142.02229 c -1.150056,1.90289 -0.760589,4.24569 0.871714,5.23099 1.630186,0.98602 3.884787,0.24236 5.035197,-1.66052 1.15006,-1.90324 0.75953,-4.24533 -0.87136,-5.23064 -1.63054,-0.98566 -3.885496,-0.24306 -5.035551,1.66017"
       style="fill:#d81618;fill-opacity:1;fill-rule:nonzero;stroke:none;stroke-width:0.352778"
       id="path1272" />
    <path
       d="m 111.83391,142.69751 c 0.70062,1.15817 0.46249,2.58304 -0.52917,3.18312 -0.99412,0.59936 -2.36467,0.14746 -3.06528,-1.01142 -0.70097,-1.15676 -0.46249,-2.58304 0.52987,-3.18347 0.99272,-0.59936 2.36537,-0.14675 3.06458,1.01177"
       style="fill:#ffffff;fill-opacity:1;fill-rule:nonzero;stroke:none;stroke-width:0.352778"
       id="path1274" />
    <path
       d="m 111.4328,143.35474 c 0.26282,0.9913 -0.27693,2.00095 -1.20756,2.2546 -0.93027,0.25259 -1.89829,-0.34608 -2.16147,-1.33809 -0.26387,-0.99236 0.27693,-2.00166 1.20756,-2.25531 0.93098,-0.25294 1.8983,0.34573 2.16147,1.3388"
       style="fill:#d81618;fill-opacity:1;fill-rule:nonzero;stroke:none;stroke-width:0.352778"
       id="path1276" />
    <path
       d="m 97.985265,142.69751 c -0.699205,1.15817 -0.461433,2.58304 0.530578,3.18312 0.99307,0.59936 2.363967,0.14746 3.065637,-1.01142 0.69921,-1.15676 0.46144,-2.58304 -0.53058,-3.18347 -0.99377,-0.59936 -2.365371,-0.14675 -3.065635,1.01177"
       style="fill:#ffffff;fill-opacity:1;fill-rule:nonzero;stroke:none;stroke-width:0.352778"
       id="path1278" />
    <path
       d="m 105.79682,148.62559 c 0,-1.22908 0.70274,-2.33363 1.60338,-2.33363 1.22908,0 2.32622,1.18781 2.44722,2.28353 0.0649,0.57609 -0.69427,0.66146 -0.81492,0.13547 -0.2166,-0.92392 -0.73201,-2.01189 -1.62066,-2.01189 -0.79587,0 -1.10525,1.26224 -1.10525,1.90994 0,0.36865 -0.50977,0.39088 -0.50977,0.0166"
       style="fill:#d81618;fill-opacity:1;fill-rule:nonzero;stroke:none;stroke-width:0.352778"
       id="path1280" />
    <path
       d="m 104.94451,149.77212 c -1.58397,0 -2.94075,0.44873 -3.62761,0.87912 -0.68721,0.43074 -1.17299,0.71473 -1.410407,0.45826 -0.275872,-0.29669 0.237417,-0.84314 1.172637,-1.21885 0.93415,-0.37465 2.49131,-0.4759 3.86538,-0.4759 1.37372,0 2.93088,0.10125 3.86539,0.4759 0.93486,0.37571 1.44815,0.92216 1.17334,1.21885 -0.23848,0.25647 -0.72496,-0.0275 -1.41111,-0.45826 -0.68686,-0.43039 -2.04365,-0.87912 -3.62762,-0.87912"
       style="fill:#d81618;fill-opacity:1;fill-rule:nonzero;stroke:none;stroke-width:0.352778"
       id="path1282" />
    <path
       d="m 103.92322,148.62559 c 0,-1.22908 -0.70132,-2.33363 -1.60337,-2.33363 -1.22908,0 -2.324457,1.18781 -2.447224,2.28353 -0.06421,0.57609 0.694624,0.66146 0.816324,0.13547 0.2152,-0.92392 0.73061,-2.01189 1.61996,-2.01189 0.79516,0 1.10596,1.26224 1.10596,1.90994 0,0.36865 0.50835,0.39088 0.50835,0.0166"
       style="fill:#d81618;fill-opacity:1;fill-rule:nonzero;stroke:none;stroke-width:0.352778"
       id="path1284" />
    <path
       d="m 109.39198,149.89629 c 1.01142,-0.01 2.1463,0.38383 2.7746,0.80046 0.62865,0.41769 1.49542,1.07703 2.26836,1.07985 -0.8061,0.26952 -1.56316,0.27693 -2.10432,0.0392 -0.43885,-0.19227 -1.23543,-0.74683 -1.6824,-1.08585 -0.44873,-0.33973 -0.61454,-0.52635 -1.25624,-0.83362"
       style="fill:#d81618;fill-opacity:1;fill-rule:nonzero;stroke:none;stroke-width:0.352778"
       id="path1286" />
    <path
       d="m 105.86844,140.62494 c 0.5147,-0.28469 1.08796,-0.74718 1.49154,-1.38783 0.40393,-0.63993 0.75812,-1.25659 1.61325,-1.37512 0.85232,-0.11854 1.18569,0.0709 1.51765,0.30868 0.33091,0.23671 0.36407,0.62336 -0.0991,0.92674 -0.55245,0.36231 -1.34408,0.84808 -2.29658,1.27882 -0.82056,0.37042 -1.53705,0.5895 -2.0133,0.6276 -0.44979,0.0363 -0.57185,-0.18063 -0.21343,-0.37889"
       style="fill:#d81618;fill-opacity:1;fill-rule:nonzero;stroke:none;stroke-width:0.352778"
       id="path1288" />
    <path
       d="m 95.310504,144.44411 c -1.8161,0.62266 -3.010958,2.48038 -3.042708,4.30848 -0.02046,1.1183 0.595489,2.23167 1.423458,2.61937 1.410406,0.66217 3.403953,-0.10583 4.611864,-2.24613 -1.469672,0.8703 -2.485319,0.91793 -3.053292,0.50094 -0.506236,-0.37324 -0.854427,-1.02446 -1.009297,-1.87184 -0.131586,-0.72072 -0.05856,-2.18299 1.069975,-3.31082"
       style="fill:#d81618;fill-opacity:1;fill-rule:nonzero;stroke:none;stroke-width:0.352778"
       id="path1290" />
    <path
       d="m 114.52384,144.44411 c 1.81716,0.62266 3.01096,2.48038 3.04412,4.30848 0.0187,1.1183 -0.59725,2.23167 -1.42487,2.61937 -1.41041,0.66217 -3.40431,-0.10583 -4.6101,-2.24613 1.46826,0.8703 2.48461,0.91793 3.05153,0.50094 0.50764,-0.37324 0.85372,-1.02446 1.00929,-1.87184 0.1323,-0.72072 0.0579,-2.18299 -1.06997,-3.31082"
       style="fill:#d81618;fill-opacity:1;fill-rule:nonzero;stroke:none;stroke-width:0.352778"
       id="path1292" />
    <path
       d="m 100.32877,149.89629 c -1.012121,-0.01 -2.147007,0.38383 -2.775305,0.80046 -0.627944,0.41769 -1.494719,1.07703 -2.268361,1.07985 0.807509,0.26952 1.563511,0.27693 2.10432,0.0392 0.438855,-0.19227 1.235427,-0.74683 1.683102,-1.08585 0.448028,-0.33973 0.614539,-0.52635 1.256244,-0.83362"
       style="fill:#d81618;fill-opacity:1;fill-rule:nonzero;stroke:none;stroke-width:0.352778"
       id="path1294" />
    <path
       d="m 103.85231,140.62494 c -0.51611,-0.28469 -1.08867,-0.74718 -1.49154,-1.38783 -0.40323,-0.63993 -0.75883,-1.25659 -1.61396,-1.37512 -0.852311,-0.11854 -1.184981,0.0709 -1.51765,0.30868 -0.331611,0.23671 -0.364067,0.62336 0.09984,0.92674 0.55245,0.36231 1.34478,0.84808 2.29728,1.27882 0.81915,0.37042 1.53565,0.5895 2.0126,0.6276 0.44909,0.0363 0.57256,-0.18063 0.21343,-0.37889"
       style="fill:#d81618;fill-opacity:1;fill-rule:nonzero;stroke:none;stroke-width:0.352778"
       id="path1296" />
    <path
       d="m 98.402954,143.35474 c -0.263172,0.9913 0.277636,2.00095 1.208617,2.2546 0.929219,0.25259 1.897589,-0.34608 2.160759,-1.33809 0.26318,-0.99236 -0.27657,-2.00166 -1.20861,-2.25531 -0.929571,-0.25294 -1.896888,0.34573 -2.160766,1.3388"
       style="fill:#d81618;fill-opacity:1;fill-rule:nonzero;stroke:none;stroke-width:0.352778"
       id="path1298" />
    <path
       d="m 102.4412,159.42059 c -0.0593,0.0695 -0.11712,0.13652 -0.17145,0.20038 0.0586,-0.16793 0.11783,-0.33408 0.17568,-0.49671 -7e-4,0.0963 -0.003,0.19579 -0.004,0.29633 z m -2.1657,-1.58186 c 0.0691,0.2025 0.28751,0.32703 0.54328,0.31468 0.15557,-0.0109 0.47801,-0.23142 0.70485,-0.33761 0.25541,-0.115 0.47166,-0.20602 0.64064,-0.27128 -0.2928,0.59796 -0.56691,1.13876 -0.82338,1.62031 -0.2473,0.49671 -0.37536,0.91157 -0.37677,1.25976 0.0159,0.39053 0.27199,0.68404 0.68898,0.67522 0.24518,-0.006 0.44908,-0.13582 0.68121,-0.33972 l 0.0519,-0.0406 c -0.0187,0.40851 -0.036,0.8576 -0.0543,1.34761 0,0.11359 0.0572,0.21696 0.14676,0.30515 0.11853,0.10195 0.23812,0.17498 0.39687,0.1778 h 0.007 c 0.15099,0 0.29422,-0.0628 0.38876,-0.1584 0.11077,-0.13299 0.1584,-0.28045 0.15769,-0.43885 0,-1.10737 0.0131,-2.00237 0.0356,-2.68252 0.28752,-0.51047 0.49424,-1.02235 0.6156,-1.53494 l 0.003,-0.0127 v -0.0123 c -7e-4,-0.0349 -0.002,-0.066 -0.0205,-0.10654 -0.009,-0.0374 -0.0854,-0.11112 -0.18344,-0.1083 h -0.0977 l -0.0483,0.0688 c -0.0681,0.0967 -0.13653,0.19156 -0.20179,0.28469 0.005,-0.0455 0.0109,-0.0808 0.0173,-0.10407 0.0723,-0.38029 0.11077,-0.66851 0.11077,-0.877 0,-0.17568 -0.12806,-0.32526 -0.32032,-0.44168 -0.19156,-0.11853 -0.36372,-0.19226 -0.54928,-0.19508 -0.16051,0.004 -0.29492,0.0681 -0.45473,0.16615 -0.93063,0.48825 -1.45838,0.57397 -1.88701,0.88865 -0.17427,0.12735 -0.25082,0.32315 -0.17321,0.5528 z m 1.70956,-1.89582 0.13159,-0.042 c 0.0889,-0.0317 0.1785,-0.0501 0.27975,-0.0667 0.15028,-0.0392 0.5147,-0.0889 1.06609,-0.14005 0.10654,-0.008 0.21978,-0.0603 0.28858,-0.15911 0.0709,-0.0984 0.0924,-0.21413 0.0924,-0.33549 0.001,-0.3556 -0.22048,-0.62971 -0.58243,-0.80116 -0.34573,-0.1778 -0.74189,-0.24623 -1.17758,-0.20496 -0.0695,0.004 -0.15486,0.0438 -0.20602,0.11748 -0.0494,0.0723 -0.061,0.14993 -0.0617,0.22436 0.0145,0.11854 0.0508,0.12206 0.0868,0.17286 0.0377,0.0423 0.0903,0.0896 0.15769,0.14676 0.24871,0.18485 0.33479,0.3489 0.32526,0.36054 l -0.005,0.009 c -0.0751,0.0794 -0.1852,0.15734 -0.29562,0.26529 -0.11078,0.109 -0.2025,0.25294 -0.19615,0.35701 0.004,0.0854 0.0289,0.11571 0.0963,0.0963 z m 5.8106,3.8682 c -0.10759,0.55281 -0.23213,0.9398 -0.35419,1.14124 -0.0787,0.14041 -0.13934,0.16334 -0.14816,0.1591 -0.0543,-7e-4 -0.11995,0.0138 -0.17004,0.0642 l -0.006,0.006 c -0.0247,-0.0752 -0.0702,-0.14182 -0.13652,-0.18592 -0.10054,-0.0677 -0.2219,-0.0896 -0.36442,-0.091 -0.0765,0 -0.15099,0.004 -0.2226,0.0102 0.004,-0.073 0.008,-0.14817 0.0116,-0.22437 l 0.008,-0.003 c 0.52846,-0.17428 0.84384,-0.34396 0.85231,-0.76094 0.004,-0.10795 -0.0519,-0.22367 -0.14676,-0.28293 -0.0938,-0.0593 -0.38946,-0.0836 -0.65934,-0.002 h -0.0116 l 10e-4,-0.0607 c 0.001,-0.14887 -0.037,-0.28857 -0.11359,-0.4064 0.15028,-0.0427 0.31009,-0.0931 0.48083,-0.15028 0.54257,-0.18133 0.92357,-0.26882 1.10384,-0.26741 h 0.0113 c -0.002,0.22049 -0.0462,0.57609 -0.13582,1.0541 z m -2.64795,1.50707 -0.008,7.1e-4 0.006,-0.0847 c 0,-0.1718 -0.0363,-0.33902 -0.10937,-0.50377 l 0.0593,0.0476 c 0.13547,0.0769 0.26847,0.11641 0.40428,0.12312 0.008,0.10477 0.0152,0.20249 0.0233,0.29563 -0.15558,0.0614 -0.28364,0.10124 -0.37536,0.12135 z m 3.63608,-2.98062 c -0.18274,-0.20743 -0.45684,-0.3048 -0.78493,-0.30268 -0.46037,0 -0.98389,0.11253 -1.57656,0.3309 -0.59796,0.2219 -1.01,0.36301 -1.22167,0.41805 -0.16933,0.0332 -0.34855,0.091 -0.36583,0.29774 -0.003,0.10125 0.0716,0.19367 0.15028,0.2286 0.0794,0.0402 0.17004,0.0568 0.28117,0.0642 0.0469,0 0.0903,-0.001 0.13582,-0.004 0.0289,0.0656 0.0399,0.12206 0.0399,0.1718 0,0.15346 0.006,0.32703 0.0166,0.52564 -0.14464,0.0903 -0.25964,0.14887 -0.3362,0.17215 -0.10054,0.007 -0.21166,0.0868 -0.2413,0.19439 -0.10936,-0.21167 -0.14958,-0.75989 -0.22648,-1.00189 l -0.003,-0.01 -0.006,-0.009 c -0.0346,-0.11712 -0.0346,-0.23636 -0.22119,-0.20179 -0.19579,0.0512 -0.26105,0.19297 -0.28046,0.2727 -0.024,0.091 -0.031,0.20355 -0.031,0.35031 0.006,0.5147 0.10548,1.21884 0.23107,1.54869 0.11712,0.23424 0.25823,0.39688 0.4699,0.40111 0.0667,-0.0109 0.11853,-0.036 0.16192,-0.0688 0.0406,0.0385 0.0907,0.0751 0.14993,0.121 0.15946,0.0967 0.32315,0.14429 0.49142,0.14429 0.18803,-7.1e-4 0.48648,-0.0526 0.92252,-0.15029 0.25435,-0.0656 0.45755,-0.16968 0.54715,-0.33549 0.0201,0.0744 0.0536,0.15981 0.0998,0.2734 0.14323,0.33902 0.23989,0.56515 0.49883,0.59338 0.15875,-0.002 0.2921,-0.0931 0.42122,-0.22896 0.254,-0.26317 0.47589,-0.71649 0.69708,-1.3723 0.16052,-0.55739 0.24201,-1.07703 0.24201,-1.5621 0,-0.36089 -0.0794,-0.65476 -0.26247,-0.86184 z m -3.46921,-0.0705 c 0.25894,-0.0448 0.31679,-0.27976 0.33125,-0.55034 l -0.004,-0.0847 c 0.0512,0.0466 0.11112,0.0868 0.1778,0.11959 0.34396,0.16192 0.70979,0.242 1.10102,0.242 0.14075,-10e-4 0.25717,-0.0194 0.3556,-0.0751 0.10054,-0.055 0.16686,-0.17286 0.16263,-0.28645 -0.0131,-0.14429 -0.0984,-0.1958 -0.1965,-0.27517 -0.0624,-0.0455 -0.14041,-0.0928 -0.23495,-0.14393 0.29175,-0.20532 0.51752,-0.38242 0.68227,-0.53517 0.19509,-0.18909 0.3168,-0.32279 0.32738,-0.50588 0,-0.20885 -0.15099,-0.36865 -0.36195,-0.46567 -0.19226,-0.0857 -0.36971,-0.13088 -0.53869,-0.13158 -0.38735,7e-4 -0.83432,0.0892 -1.34691,0.26246 -0.16474,0.0667 -0.28469,0.12171 -0.37288,0.1778 -0.0825,0.0593 -0.16405,0.0914 -0.17992,0.23495 0.0138,0.15558 0.127,0.20602 0.22966,0.24307 0.13829,0.0663 0.3182,0.0882 0.55315,0.0896 0.0367,0 0.0758,-7e-4 0.1143,-0.003 -0.34854,0.2226 -0.56021,0.40534 -0.61806,0.62724 l -0.0399,-0.0635 c -0.12947,-0.21449 -0.23918,-0.44732 -0.32808,-0.69462 l -0.004,-0.0102 -0.006,-0.01 c -0.0187,-0.0328 -0.0339,-0.0593 -0.0522,-0.084 -0.025,-0.0194 -0.0272,-0.06 -0.13511,-0.0737 -0.13864,0.005 -0.19932,0.12277 -0.21837,0.20461 -0.0257,0.0917 -0.0346,0.20532 -0.0353,0.35278 0.007,0.43815 0.066,0.79728 0.18733,1.08197 0.11112,0.20849 0.25082,0.35419 0.44944,0.35666 z m -0.27658,-2.91853 c 0.20355,0.10548 0.42333,0.15557 0.65828,0.15557 l 0.0198,-7.1e-4 v 0.21449 l 0.18344,-0.0642 c 0.24095,-0.0875 0.50977,-0.20391 0.8068,-0.34925 0.11219,-0.0557 0.25083,-0.0917 0.42016,-0.10478 0.13935,-0.003 0.27023,-0.037 0.36795,-0.12453 0.0988,-0.0878 0.14288,-0.21872 0.14005,-0.35348 0.005,-0.19156 -0.12347,-0.40323 -0.29915,-0.48578 l -0.0102,-0.006 -0.008,-0.002 c -0.18591,-0.0935 -0.35666,-0.10548 -0.54434,-0.0935 -0.27269,0.0169 -0.52493,0.11959 -0.81068,0.28292 -0.30868,0.17181 -0.53975,0.24871 -0.64699,0.2466 -0.10831,0 -0.24342,-0.0131 -0.40041,-0.0377 l -0.0102,-0.002 h -0.0113 c -0.0593,-0.003 -0.13687,0.0332 -0.17215,0.0903 -0.036,0.0557 -0.0413,0.10972 -0.0427,0.16405 v 0.01 l 0.001,0.0106 c 0.0303,0.18874 0.16616,0.3355 0.35878,0.4498"
       style="fill:#ffffff;fill-opacity:1;fill-rule:nonzero;stroke:none;stroke-width:0.352778"
       id="path1300" />
    <path
       d="m 114.43494,151.7766 c 0.72214,0 1.17898,0.79587 1.24495,1.79105 0.067,0.99484 0.0991,2.35621 -0.56444,3.68336 -0.66322,1.32715 -1.96356,2.48532 -2.45287,2.83457 -0.38382,0.27446 -0.51258,0.25646 -0.26775,-0.14676 0.27834,-0.45755 1.11548,-2.0133 1.22343,-2.91783 0.15099,-1.25906 0.10477,-2.47085 0.0462,-3.61315 -0.0441,-0.86748 0.0268,-1.63124 0.77047,-1.63124"
       style="fill:#ffffff;fill-opacity:1;fill-rule:nonzero;stroke:none;stroke-width:0.352778"
       id="path1302" />
    <path
       d="m 115.30736,152.96652 c 0.83573,0 1.26365,0.90205 1.3402,2.01824 0.0762,1.11548 0.0342,2.78483 -0.66428,4.1596 -0.75882,1.49225 -2.16006,2.74285 -2.72662,3.13549 -0.44415,0.30727 -0.59443,0.28681 -0.31009,-0.1651 0.32209,-0.51294 1.19556,-2.08456 1.41605,-3.27025 0.26035,-1.39806 0.1972,-2.75484 0.12876,-4.03472 -0.0508,-0.97225 -0.0427,-1.84326 0.81598,-1.84326"
       style="fill:#ffffff;fill-opacity:1;fill-rule:nonzero;stroke:none;stroke-width:0.352778"
       id="path1304" />
    <path
       d="m 118.50035,152.73792 c 0.95497,0.0328 1.11196,0.80257 1.13065,1.88489 0.0233,1.3402 -0.27975,2.69205 -1.03716,4.03225 -0.82938,1.46615 -2.10961,2.59892 -2.83246,3.08822 -0.48789,0.32985 -0.60289,0.17074 -0.26387,-0.25506 0.38523,-0.48225 1.31339,-1.91276 1.62736,-3.13619 0.3743,-1.45345 0.34925,-2.61762 0.31503,-3.85728 -0.0261,-0.94191 0.0769,-1.7907 1.06045,-1.75683"
       style="fill:#ffffff;fill-opacity:1;fill-rule:nonzero;stroke:none;stroke-width:0.352778"
       id="path1306" />
    <path
       d="m 97.412707,153.34117 c -0.722842,0 -1.180042,0.79587 -1.246364,1.79105 -0.06668,0.99484 -0.09984,2.35621 0.564445,3.68336 0.663927,1.32715 1.963561,2.48531 2.452863,2.83456 0.385234,0.27447 0.513292,0.25647 0.268112,-0.14675 -0.278695,-0.45755 -1.115131,-2.0133 -1.223787,-2.91783 -0.151694,-1.25906 -0.10548,-2.47085 -0.04621,-3.61315 0.0441,-0.86748 -0.02752,-1.63124 -0.769056,-1.63124"
       style="fill:#ffffff;fill-opacity:1;fill-rule:nonzero;stroke:none;stroke-width:0.352778"
       id="path1308" />
    <path
       d="m 94.545682,152.96652 c -0.835025,0 -1.262944,0.90205 -1.339497,2.01824 -0.07691,1.11548 -0.03563,2.78483 0.662869,4.1596 0.760942,1.49225 2.16147,2.74285 2.728031,3.13549 0.444147,0.30727 0.593725,0.28681 0.309386,-0.1651 -0.321733,-0.51294 -1.195564,-2.08456 -1.415345,-3.27025 -0.259644,-1.39806 -0.196497,-2.75484 -0.128763,-4.03472 0.0508,-0.97225 0.04339,-1.84326 -0.816681,-1.84326"
       style="fill:#ffffff;fill-opacity:1;fill-rule:nonzero;stroke:none;stroke-width:0.352778"
       id="path1310" />
    <path
       d="m 91.353396,152.73792 c -0.955675,0.0328 -1.113367,0.80257 -1.132064,1.88489 -0.02258,1.3402 0.280458,2.69205 1.039283,4.03225 0.827264,1.46615 2.107495,2.59892 2.830337,3.08822 0.487891,0.32985 0.604308,0.17074 0.264583,-0.25506 -0.385233,-0.48225 -1.313039,-1.91276 -1.627364,-3.13619 -0.374297,-1.45345 -0.349956,-2.61762 -0.315031,-3.85728 0.02646,-0.94191 -0.07761,-1.7907 -1.059744,-1.75683"
       style="fill:#ffffff;fill-opacity:1;fill-rule:nonzero;stroke:none;stroke-width:0.352778"
       id="path1312" />
  </g>
</svg>
