<?xml version="1.0" encoding="UTF-8" standalone="no"?>
<!-- Created with Inkscape (http://www.inkscape.org/) -->

<svg
   width="47.935791mm"
   height="28.757437mm"
   viewBox="0 0 47.935791 28.757437"
   version="1.1"
   id="svg14925"
   inkscape:version="1.1.1 (c3084ef, 2021-09-22)"
   sodipodi:docname="fan.svg"
   xmlns:inkscape="http://www.inkscape.org/namespaces/inkscape"
   xmlns:sodipodi="http://sodipodi.sourceforge.net/DTD/sodipodi-0.dtd"
   xmlns="http://www.w3.org/2000/svg"
   xmlns:svg="http://www.w3.org/2000/svg">
  <sodipodi:namedview
     id="namedview14927"
     pagecolor="#ffffff"
     bordercolor="#999999"
     borderopacity="1"
     inkscape:pageshadow="0"
     inkscape:pageopacity="0"
     inkscape:pagecheckerboard="0"
     inkscape:document-units="mm"
     showgrid="false"
     fit-margin-top="0"
     fit-margin-left="0"
     fit-margin-right="0"
     fit-margin-bottom="0"
     inkscape:zoom="0.55856481"
     inkscape:cx="-4.4757563"
     inkscape:cy="54.604227"
     inkscape:window-width="1312"
     inkscape:window-height="855"
     inkscape:window-x="0"
     inkscape:window-y="23"
     inkscape:window-maximized="0"
     inkscape:current-layer="layer1" />
  <defs
     id="defs14922" />
  <g
     inkscape:label="Layer 1"
     inkscape:groupmode="layer"
     id="layer1"
     transform="translate(-106.27885,-133.83208)">
    <path
       d="m 60.158091,193.9574 c 0.04057,0 0.07091,-0.0325 0.07091,-0.072 0,-0.0392 -0.03034,-0.0723 -0.07091,-0.0723 h -3.986036 c -0.03916,0 -0.07091,0.0332 -0.07091,0.0723 0,0.0395 0.03175,0.072 0.07091,0.072 h 3.986036"
       style="fill:#ffffff;fill-opacity:1;fill-rule:nonzero;stroke:none;stroke-width:0.352778"
       id="path1034" />
    <path
       d="m 107.12904,148.75987 c -0.0624,-0.0282 -0.13582,0 -0.16475,0.0621 l -0.51505,1.19062 c -0.0236,0.0642 0.0102,0.13582 0.0737,0.1591 l 26.42305,10.59921 c 0.10407,0.0483 0.22543,0.003 0.27199,-0.0991 0.0462,-0.10336 0.002,-0.22472 -0.10054,-0.27164 l -25.98843,-11.64025"
       style="fill:#d81618;fill-opacity:1;fill-rule:nonzero;stroke:none;stroke-width:0.352778"
       id="path1036" />
    <path
       d="m 128.08016,161.41859 10.63096,-8.11812 -0.14887,-0.19756 -0.16616,-0.21307 -10.62884,8.11882 c -0.1143,0.0868 -0.13582,0.24801 -0.0483,0.36231 0.0864,0.11324 0.24836,0.13441 0.36125,0.0476"
       style="fill:#d81618;fill-opacity:1;fill-rule:nonzero;stroke:none;stroke-width:0.352778"
       id="path1038" />
    <path
       d="m 128.31158,161.95834 c 0.1136,0.0882 0.27623,0.066 0.36266,-0.0462 l 8.17139,-10.59039 -0.2346,-0.18591 -0.17462,-0.12983 -8.17104,10.58969 c -0.0875,0.11359 -0.0667,0.27552 0.0462,0.36265"
       style="fill:#d81618;fill-opacity:1;fill-rule:nonzero;stroke:none;stroke-width:0.352778"
       id="path1040" />
    <path
       d="m 129.37485,162.23457 5.15797,-12.34405 -0.28187,-0.121 -0.19509,-0.078 -5.15726,12.3444 c -0.0543,0.13018 0.008,0.28117 0.13935,0.33761 0.13088,0.055 0.28328,-0.007 0.3369,-0.13899"
       style="fill:#d81618;fill-opacity:1;fill-rule:nonzero;stroke:none;stroke-width:0.352778"
       id="path1042" />
    <path
       d="m 129.84616,162.58734 c 0.14182,0.0183 0.272,-0.0808 0.29069,-0.22189 l 1.79141,-13.25669 -0.31221,-0.0448 -0.20108,-0.0236 -1.7907,13.25597 c -0.0187,0.14076 0.0811,0.27164 0.22189,0.29104"
       style="fill:#d81618;fill-opacity:1;fill-rule:nonzero;stroke:none;stroke-width:0.352778"
       id="path1044" />
    <path
       d="m 128.88132,149.06396 -0.18451,0.0275 1.69581,13.26832 c 0.0183,0.14147 0.14816,0.24201 0.28928,0.22472 0.14252,-0.0201 0.24165,-0.14887 0.22401,-0.28998 l -1.69651,-13.27009 -0.32808,0.0395"
       style="fill:#d81618;fill-opacity:1;fill-rule:nonzero;stroke:none;stroke-width:0.352778"
       id="path1046" />
    <path
       d="m 126.24748,149.76952 -0.16404,0.0702 5.06765,12.38356 c 0.055,0.13194 0.20532,0.19508 0.33761,0.14076 0.13229,-0.0543 0.19579,-0.20391 0.14181,-0.33691 l -5.06835,-12.3832 -0.31468,0.12559"
       style="fill:#d81618;fill-opacity:1;fill-rule:nonzero;stroke:none;stroke-width:0.352778"
       id="path1048" />
    <path
       d="m 123.8881,151.13583 -0.13511,0.10689 8.09554,10.65212 c 0.0875,0.1136 0.24942,0.13653 0.36301,0.0494 0.11289,-0.0868 0.13582,-0.24941 0.0494,-0.3623 l -8.09802,-10.65072 -0.27481,0.20462"
       style="fill:#d81618;fill-opacity:1;fill-rule:nonzero;stroke:none;stroke-width:0.352778"
       id="path1050" />
    <path
       d="m 132.43732,161.39813 c 0.11394,0.0868 0.27658,0.0674 0.36265,-0.0455 0.0882,-0.11394 0.0681,-0.27516 -0.0455,-0.36336 l -10.57521,-8.19855 -0.24377,0.3122 -0.073,0.097 10.57487,8.1982"
       style="fill:#d81618;fill-opacity:1;fill-rule:nonzero;stroke:none;stroke-width:0.352778"
       id="path1052" />
    <path
       d="m 106.27885,150.80069 0.40781,-1.10843 1.39347,-3.04059 1.92899,-2.73333 2.13395,-2.57563 2.57069,-2.13959 2.72874,-1.93499 3.03847,-1.39982 3.1369,-1.1617 3.29706,-0.56515 3.3334,-0.30938 3.33552,0.30938 3.29635,0.56515 3.13725,1.1617 3.03707,1.39982 2.72944,1.93499 2.57175,2.13959 2.13325,2.57563 1.93004,2.73333 1.39312,3.04059 0.40252,1.09608 -14.12204,5.13115 -0.19509,-0.49106 -0.54151,-1.26048 -0.79375,-1.06504 -0.87666,-1.11477 -1.07456,-0.85231 -1.10067,-0.82268 -1.25941,-0.54363 -1.276,-0.50941 -1.3589,-0.19615 -1.36772,-0.15945 -1.36701,0.15945 -1.35855,0.19615 -1.27529,0.50941 -1.26048,0.54363 -1.0989,0.82268 -1.07703,0.85231 -0.87559,1.11477 -0.79375,1.06504 -0.54152,1.26048 -0.19579,0.49106 -14.12557,-5.1188"
       style="fill:#d81618;fill-opacity:1;fill-rule:nonzero;stroke:none;stroke-width:0.352778"
       id="path1054" />
    <path
       d="m 120.60021,155.42843 -13.91355,-5.73617 -0.40288,1.09608 14.12064,5.13115 0.19579,-0.49106"
       style="fill:#d81618;fill-opacity:1;fill-rule:nonzero;stroke:none;stroke-width:0.352778"
       id="path1056" />
    <path
       d="m 153.38173,148.75987 c 0.0624,-0.0282 0.13618,0 0.1644,0.0621 l 0.5147,1.19062 c 0.025,0.0642 -0.009,0.13582 -0.0737,0.1591 l -26.42235,10.59921 c -0.10266,0.0483 -0.22472,0.003 -0.27164,-0.0991 -0.0473,-0.10336 -0.002,-0.22472 0.1016,-0.27164 l 25.98702,-11.64025"
       style="fill:#d81618;fill-opacity:1;fill-rule:nonzero;stroke:none;stroke-width:0.352778"
       id="path1058" />
    <path
       d="m 139.89751,155.42843 13.91461,-5.73617 0.40252,1.09608 -14.12204,5.13115 -0.19509,-0.49106"
       style="fill:#b00c0d;fill-opacity:1;fill-rule:nonzero;stroke:none;stroke-width:0.352778"
       id="path1060" />
    <path
       d="m 126.91493,134.14146 3.3334,-0.30938 -0.002,15.07243 -1.36454,0.15945 -1.96639,-14.9225"
       style="fill:#b00c0d;fill-opacity:1;fill-rule:nonzero;stroke:none;stroke-width:0.352778"
       id="path1062" />
    <path
       d="m 123.61787,134.70661 3.9049,14.5535 -1.27529,0.50941 -5.76651,-13.90121 3.1369,-1.1617"
       style="fill:#b00c0d;fill-opacity:1;fill-rule:nonzero;stroke:none;stroke-width:0.352778"
       id="path1064" />
    <path
       d="m 117.4425,137.26813 7.5445,13.04502 -1.14159,0.76623 -9.13165,-11.87626 2.72874,-1.93499"
       style="fill:#b00c0d;fill-opacity:1;fill-rule:nonzero;stroke:none;stroke-width:0.352778"
       id="path1066" />
    <path
       d="m 112.14307,141.34271 10.668,10.64543 -0.93204,1.07138 -11.86991,-9.14118 2.13395,-2.57563"
       style="fill:#b00c0d;fill-opacity:1;fill-rule:nonzero;stroke:none;stroke-width:0.352778"
       id="path1068" />
    <path
       d="m 108.08013,146.65167 13.0616,7.51628 -0.54152,1.26048 -13.91355,-5.73617 1.39347,-3.04059"
       style="fill:#b00c0d;fill-opacity:1;fill-rule:nonzero;stroke:none;stroke-width:0.352778"
       id="path1070" />
    <path
       d="m 133.58385,134.14146 -1.9678,14.9225 1.3589,0.19615 3.90525,-14.5535 -3.29635,-0.56515"
       style="fill:#b00c0d;fill-opacity:1;fill-rule:nonzero;stroke:none;stroke-width:0.352778"
       id="path1072" />
    <path
       d="m 140.01745,135.86831 -5.7665,13.90121 1.25941,0.54363 7.54416,-13.04502 -3.03707,-1.39982"
       style="fill:#b00c0d;fill-opacity:1;fill-rule:nonzero;stroke:none;stroke-width:0.352778"
       id="path1074" />
    <path
       d="m 145.78396,139.20312 -9.17293,11.93271 1.07456,0.85231 10.67012,-10.64543 -2.57175,-2.13959"
       style="fill:#b00c0d;fill-opacity:1;fill-rule:nonzero;stroke:none;stroke-width:0.352778"
       id="path1076" />
    <path
       d="m 150.48896,143.91834 -11.92671,9.18457 0.79375,1.06504 13.063,-7.51628 -1.93004,-2.73333"
       style="fill:#b00c0d;fill-opacity:1;fill-rule:nonzero;stroke:none;stroke-width:0.352778"
       id="path1078" />
  </g>
</svg>
