<?xml version="1.0" encoding="UTF-8" standalone="no"?>
<!-- Created with Inkscape (http://www.inkscape.org/) -->

<svg
   width="70.299225mm"
   height="34.9846mm"
   viewBox="0 0 70.299225 34.9846"
   version="1.1"
   id="svg1939"
   inkscape:version="1.1.1 (c3084ef, 2021-09-22)"
   sodipodi:docname="realistic-tan.svg"
   xmlns:inkscape="http://www.inkscape.org/namespaces/inkscape"
   xmlns:sodipodi="http://sodipodi.sourceforge.net/DTD/sodipodi-0.dtd"
   xmlns="http://www.w3.org/2000/svg"
   xmlns:svg="http://www.w3.org/2000/svg">
  <sodipodi:namedview
     id="namedview1941"
     pagecolor="#ffffff"
     bordercolor="#999999"
     borderopacity="1"
     inkscape:pageshadow="0"
     inkscape:pageopacity="0"
     inkscape:pagecheckerboard="0"
     inkscape:document-units="mm"
     showgrid="false"
     fit-margin-top="0"
     fit-margin-left="0"
     fit-margin-right="0"
     fit-margin-bottom="0"
     inkscape:zoom="0.55856481"
     inkscape:cx="129.79693"
     inkscape:cy="192.45752"
     inkscape:window-width="1312"
     inkscape:window-height="855"
     inkscape:window-x="0"
     inkscape:window-y="23"
     inkscape:window-maximized="0"
     inkscape:current-layer="layer1" />
  <defs
     id="defs1936">
    <clipPath
       clipPathUnits="userSpaceOnUse"
       id="clipPath1146">
      <path
         d="M 0,500 H 500 V 0 H 0 Z"
         id="path1144" />
    </clipPath>
  </defs>
  <g
     inkscape:label="Layer 1"
     inkscape:groupmode="layer"
     id="layer1"
     transform="translate(-70.481966,-97.612966)">
    <g
       id="g1140"
       transform="matrix(0.35277777,0,0,-0.35277777,58.416937,162.10913)">
      <g
         id="g1142"
         clip-path="url(#clipPath1146)">
        <g
           id="g1148"
           transform="translate(199.0752,170.2744)">
          <path
             d="M 0,0 C 0,0 0.253,5.645 -2.58,10.416 -5.412,15.187 5.107,11.57 6.469,3.399 7.831,-4.771 0,0 0,0"
             style="fill:#997166;fill-opacity:1;fill-rule:nonzero;stroke:none"
             id="path1150" />
        </g>
        <g
           id="g1152"
           transform="translate(128.3911,97.2627)">
          <path
             d="m 0,0 c 0,0 0.908,-3.6 3.294,-3.079 2.387,0.519 11.848,3.887 15.937,1.788 2.528,-1.297 5.079,-3.679 6.659,-5.309 0.297,-0.307 0.277,-0.904 -0.024,-0.72 -1.794,1.092 -4.625,2.716 -6,2.971 -0.229,0.043 -0.207,-0.448 0.031,-0.724 1.212,-1.406 3.884,-4.552 5.186,-6.448 0.25,-0.366 0.167,-0.833 -0.112,-0.628 l -6.586,4.819 c -0.288,0.211 -0.365,-0.291 -0.097,-0.646 1.102,-1.463 2.672,-3.593 3.541,-4.981 0.23,-0.367 0.141,-0.796 -0.126,-0.603 -2.197,1.594 -8.24,5.549 -8.951,5.256 -0.83,-0.342 -13.949,-0.548 -13.949,-0.548 0,0 -2.41,0.986 -1.449,3.602 0,0 0.711,1.223 -0.144,2.943 C -3.645,-0.586 -1.849,5.065 0,0"
             style="fill:#f98e8c;fill-opacity:1;fill-rule:nonzero;stroke:none"
             id="path1154" />
        </g>
        <g
           id="g1156"
           transform="translate(106.0366,107.2676)">
          <path
             d="m 0,0 c 0,0 -16.539,-5.104 -33.919,0 -15.963,4.687 -43.513,8.2 -26.4,-2.58 0.635,-0.4 0.039,-1.218 -0.677,-0.925 -6.65,2.723 -15.241,7.36 -8.223,11.085 7.973,4.232 25.261,0.774 33.407,-1.22 5.084,-1.244 10.368,-1.9 15.666,-1.734 C -12.955,4.852 -4.214,6.362 0,11.839 7.849,22.037 0,0 0,0"
             style="fill:#f98e8c;fill-opacity:1;fill-rule:nonzero;stroke:none"
             id="path1158" />
        </g>
        <g
           id="g1160"
           transform="translate(190.0508,94.6924)">
          <path
             d="M 0,0 C 0.295,0.354 -0.14,0.543 -0.527,0.631 L -0.961,0.704 C 0.691,0.923 1.495,1.687 1.812,2.092 1.863,2.155 1.893,2.236 1.91,2.319 1.917,2.403 1.912,2.49 1.882,2.565 1.695,3.044 1.146,4.008 -0.375,4.693 L 0.062,4.638 C 0.458,4.611 0.93,4.666 0.749,5.091 -0.837,7.722 -4.044,7.014 -5.869,6.33 -6.677,6.027 -7.221,5.729 -7.221,5.729 h 0.008 L -7.309,5.68 C -7.836,5.263 -8.173,4.56 -8.29,3.819 -8.391,3.078 -8.271,2.308 -7.886,1.756 l 0.078,-0.073 -0.008,10e-4 c 0,0 0.435,-0.443 1.122,-0.965 C -5.144,-0.461 -2.276,-2.063 0,0"
             style="fill:#f98e8c;fill-opacity:1;fill-rule:nonzero;stroke:none"
             id="path1162" />
        </g>
        <g
           id="g1164"
           transform="translate(99.4316,114.1934)">
          <path
             d="m 0,0 c 5.218,43.108 44.478,43.232 44.478,43.232 10.605,1.352 19.223,-0.421 19.223,-0.421 0,0 4.735,-2.043 12.545,-0.201 -3.441,2.009 -6.586,5.476 -3.942,11.059 4.884,10.317 14.528,5.612 18.195,3.347 0.586,-0.362 1.183,-0.636 1.775,-0.842 2.894,-1.005 6.105,-0.364 8.581,1.439 14.595,10.632 27.1,9.472 30.324,8.934 0.558,-0.093 1.053,-0.403 1.383,-0.862 C 142.916,51.323 95.546,4.842 95.546,4.842 c 0,0 -10.41,-5.819 -10.41,-11.636 0,-3.083 -0.086,-5.908 -0.167,-7.883 -0.079,-1.928 -2.141,-3.136 -3.849,-2.237 -4.542,2.392 -8.539,9.813 -8.539,9.813 -10.104,-8.879 -17.759,-6.124 -17.759,-6.124 -6.125,3.369 -16.535,0 -16.535,0 0,0 -11.636,-11.635 -17.76,-3.98 -6.124,7.655 -15.31,8.267 -15.31,8.267 -3.793,1.626 -5.24,3.75 -5.535,5.815 C -0.473,-2.038 -0.312,-0.972 0,0"
             style="fill:#ae7b56;fill-opacity:1;fill-rule:nonzero;stroke:none"
             id="path1166" />
        </g>
        <g
           id="g1168"
           transform="translate(193.8696,165.1436)">
          <path
             d="m 0,0 c 0.24,-1.64 0.961,-3.92 2.884,-6.481 0,0 1.542,-2.842 0.23,-3.878 0,0 -0.619,-2.118 -2.867,-1.18 l -5.566,-2.166 c 0,0 -2.248,-1.174 -5.208,0.588 l -8.512,4.693 c 0,0 -6.726,3.069 -3.095,11.143 3.631,8.075 13.566,3.843 13.566,3.843 l 5.439,-2.49 C -1.477,3.315 -0.263,1.798 0,0"
             style="fill:#f98e8c;fill-opacity:1;fill-rule:nonzero;stroke:none"
             id="path1170" />
        </g>
        <g
           id="g1172"
           transform="translate(194.0596,128.5273)">
          <path
             d="m 0,0 c 0,0 14.698,10.717 20.209,21.435 5.512,10.716 11.638,6.011 11.638,6.011 C 20.636,9.858 0.918,-9.492 0.918,-9.492 c 0,0 -10.41,-5.819 -10.41,-11.636 C -12.554,-6.736 0,0 0,0"
             style="fill:#c9b5a6;fill-opacity:1;fill-rule:nonzero;stroke:none"
             id="path1174" />
        </g>
        <g
           id="g1176"
           transform="translate(141.0864,107.3994)">
          <path
             d="m 0,0 c 0,0 3.98,0.919 14.085,7.349 10.105,6.43 16.841,-7.656 16.841,-7.656 -10.104,-8.88 -17.759,-6.124 -17.759,-6.124 -6.125,3.368 -16.535,0 -16.535,0 C -4.287,-1.531 0,0 0,0"
             style="fill:#c9b5a6;fill-opacity:1;fill-rule:nonzero;stroke:none"
             id="path1178" />
        </g>
        <g
           id="g1180"
           transform="translate(104.6484,105.2559)">
          <path
             d="m 0,0 c -3.792,1.625 -5.24,3.749 -5.535,5.814 -0.155,1.085 0.006,2.152 0.318,3.124 0.58,4.791 1.583,9.049 2.904,12.837 C -2.687,19.438 -1.85,15.836 5.205,13.167 16.535,8.88 15.31,-8.268 15.31,-8.268 9.186,-0.612 0,0 0,0"
             style="fill:#c9b5a6;fill-opacity:1;fill-rule:nonzero;stroke:none"
             id="path1182" />
        </g>
        <g
           id="g1184"
           transform="translate(194.978,119.0352)">
          <path
             d="m 0,0 8.468,8.811 c 0,0 0.149,-4.864 2.331,-7.964 2.181,-3.1 0.459,-4.248 -3.216,-2.756 C 3.909,-0.416 0,0 0,0"
             style="fill:#997166;fill-opacity:1;fill-rule:nonzero;stroke:none"
             id="path1186" />
        </g>
        <g
           id="g1188"
           transform="translate(206.1587,171.3926)">
          <path
             d="m 0,0 c 0,0 2.053,-1.649 3.702,-1.085 1.648,0.564 2.266,3.128 2.266,3.128 0,0 -2.053,1.649 -3.701,1.085 C 0.618,2.563 0,0 0,0"
             style="fill:#121111;fill-opacity:1;fill-rule:nonzero;stroke:none"
             id="path1190" />
        </g>
        <g
           id="g1192"
           transform="translate(207.373,172.2822)">
          <path
             d="M 0,0 C 0.148,-0.187 0.42,-0.218 0.607,-0.068 0.794,0.08 0.826,0.353 0.677,0.54 0.528,0.727 0.256,0.757 0.069,0.608 -0.118,0.459 -0.149,0.187 0,0"
             style="fill:#ffffff;fill-opacity:1;fill-rule:nonzero;stroke:none"
             id="path1194" />
        </g>
        <g
           id="g1196"
           transform="translate(228.3662,178.6377)">
          <path
             d="M 0,0 C 1.049,1.071 2.101,1.509 2.954,1.686 3.278,1.752 3.369,1.229 3.41,1.038 3.667,-0.17 4.474,-1.899 0.221,-0.546 0.017,-0.481 -0.153,-0.156 0,0"
             style="fill:#f98e8c;fill-opacity:1;fill-rule:nonzero;stroke:none"
             id="path1198" />
        </g>
        <g
           id="g1200"
           transform="translate(209.2681,112.1699)">
          <path
             d="M 0,0 C 0.421,0.188 0.114,0.55 -0.194,0.8 L -0.552,1.057 C 1.028,0.523 2.086,0.855 2.549,1.078 2.623,1.113 2.686,1.173 2.737,1.24 2.781,1.312 2.814,1.392 2.821,1.473 2.864,1.984 2.796,3.092 1.734,4.378 L 2.102,4.136 C 2.445,3.937 2.892,3.778 2.917,4.239 2.655,7.3 -0.536,8.079 -2.475,8.271 -3.334,8.355 -3.953,8.327 -3.953,8.327 L -3.947,8.323 -4.054,8.322 C -4.711,8.18 -5.324,7.697 -5.755,7.085 -6.173,6.464 -6.405,5.72 -6.303,5.055 l 0.037,-0.101 -0.006,0.005 c 0,0 0.195,-0.589 0.581,-1.361 C -4.82,1.855 -2.953,-0.847 0,0"
             style="fill:#f98e8c;fill-opacity:1;fill-rule:nonzero;stroke:none"
             id="path1202" />
        </g>
      </g>
    </g>
  </g>
</svg>
