<?xml version="1.0" encoding="UTF-8" standalone="no"?>
<!-- Created with Inkscape (http://www.inkscape.org/) -->

<svg
   width="85.347633mm"
   height="64.05648mm"
   viewBox="0 0 85.347633 64.05648"
   version="1.1"
   id="svg16089"
   inkscape:version="1.1.1 (c3084ef, 2021-09-22)"
   sodipodi:docname="tiger.svg"
   xmlns:inkscape="http://www.inkscape.org/namespaces/inkscape"
   xmlns:sodipodi="http://sodipodi.sourceforge.net/DTD/sodipodi-0.dtd"
   xmlns="http://www.w3.org/2000/svg"
   xmlns:svg="http://www.w3.org/2000/svg">
  <sodipodi:namedview
     id="namedview16091"
     pagecolor="#ffffff"
     bordercolor="#999999"
     borderopacity="1"
     inkscape:pageshadow="0"
     inkscape:pageopacity="0"
     inkscape:pagecheckerboard="0"
     inkscape:document-units="mm"
     showgrid="false"
     fit-margin-top="0"
     fit-margin-left="0"
     fit-margin-right="0"
     fit-margin-bottom="0"
     inkscape:zoom="0.55856481"
     inkscape:cx="162.02238"
     inkscape:cy="120.84542"
     inkscape:window-width="1312"
     inkscape:window-height="855"
     inkscape:window-x="0"
     inkscape:window-y="23"
     inkscape:window-maximized="0"
     inkscape:current-layer="layer1" />
  <defs
     id="defs16086">
    <clipPath
       clipPathUnits="userSpaceOnUse"
       id="clipPath14162">
      <path
         d="m 220.727,352.14 c -2.123,0 -3.844,1.721 -3.844,3.843 0,2.123 1.721,3.844 3.844,3.844 2.122,0 3.843,-1.721 3.843,-3.844 0,-2.122 -1.721,-3.843 -3.843,-3.843"
         id="path14160" />
    </clipPath>
  </defs>
  <g
     inkscape:label="Layer 1"
     inkscape:groupmode="layer"
     id="layer1"
     transform="translate(-62.247244,-116.47177)">
    <path
       d="m 147.29137,134.53518 c -0.36654,-2.09903 -1.12466,-4.53143 -1.89936,-5.73088 -1.09114,-1.6898 -2.69169,-2.46732 -4.33141,-1.83268 -1.03293,0.40005 -1.69933,1.66617 -1.41605,2.64054 0.0579,0.20003 0.12489,0.40852 0.29105,0.90312 0.23989,0.7567 0.43991,1.524 0.56832,2.30787 0.30515,1.86549 0.1711,3.86503 -0.76094,5.50933 -0.93204,1.64394 -2.45357,2.909 -4.33564,2.73403 -0.20496,-0.019 -0.39546,-0.0508 -0.56903,-0.1069 -0.45614,-0.1471 -0.89711,-0.60289 -1.31269,-1.14123 -1.68169,-3.12561 -4.03154,-5.6508 -7.50499,-7.2898 -4.83129,-2.27965 -10.8772,-2.35762 -15.87006,-2.04541 -3.6389,0.22719 -6.24099,0.078 -7.70008,-0.16827 -1.03505,-0.17463 -2.733676,-1.11654 -3.906662,-2.34386 -1.432278,-1.4993 -3.357386,-3.95464 -5.180894,-5.64726 -1.822803,-1.69298 -3.448403,-2.34915 -4.897614,-2.79894 -1.199797,-2.49908 -5.548136,-5.29802 -7.597069,-0.20003 -1.643592,0.25824 -4.651728,1.00542 -7.043914,1.83656 -1.516239,0.52705 -2.602089,1.43722 -3.376789,2.36185 -1.181453,1.4097 -1.828447,2.28706 -3.457222,2.94852 -0.8382,0.34078 -1.5621,0.63288 -2.181225,0.99801 -0.956028,0.56444 -1.661583,1.30386 -2.150181,2.66735 -0.949677,2.64901 -0.09984,6.59729 0.966259,8.92986 1.078089,2.35797 2.432403,4.13138 4.298244,5.2645 2.53612,1.53988 3.360914,2.86879 4.402667,5.7337 1.041752,2.86491 2.951691,11.37285 4.427361,15.53986 1.476022,4.16701 3.429352,9.2456 5.903383,12.11051 l -0.0021,-0.0282 c 1.439334,1.73531 3.611739,2.84092 6.042731,2.84092 1.630186,0 3.144308,-0.49742 4.399138,-1.34867 4.12362,-2.65924 8.002057,-3.28719 11.431767,-3.28719 3.37432,0 7.65069,0.94968 10.42987,2.76825 0.23213,0.15205 0.45826,0.30233 0.71191,0.47308 1.26753,0.87912 2.8067,1.39453 4.46617,1.39453 1.96462,0 3.76061,-0.72214 5.13715,-1.91523 3.78671,-3.33269 7.7791,-9.75254 9.47208,-14.31008 1.10913,-2.98591 1.81716,-8.2229 1.69792,-12.98116 3.0607,0.0691 6.03779,-1.58398 8.249,-3.92501 2.8321,-2.99861 3.3341,-8.64941 2.59892,-12.86157"
       style="fill:#d81618;fill-opacity:1;fill-rule:nonzero;stroke:none;stroke-width:0.352778"
       id="path14154" />
    <g
       id="g14156"
       transform="matrix(0.35277777,0,0,-0.35277777,-4.6863558,255.35592)">
      <g
         id="g14158"
         clip-path="url(#clipPath14162)">
        <path
           d="m 216.883,359.827 h 7.687 v -7.687 h -7.687 z"
           style="fill:#660102;fill-opacity:1;fill-rule:nonzero;stroke:none"
           id="path14164" />
      </g>
    </g>
    <path
       d="m 77.424434,138.92232 c -0.334786,0 -0.670983,-0.0258 -1.004358,-0.0804 -1.159228,-0.18944 -2.161822,-0.56233 -2.674056,-0.92463 -0.814564,-0.57609 -0.633941,-1.40194 0.30092,-1.40194 0.07302,0 0.150636,0.005 0.232833,0.0155 0.3175,0.0409 0.633589,0.0617 0.946503,0.0617 1.863019,0 3.615619,-0.73307 4.942064,-2.27401 0.912988,-1.05974 1.518002,-2.17628 1.382888,-3.83998 -0.03916,-0.48119 -0.09172,-1.04952 -0.152047,-1.43263 -0.105833,-0.67099 0.295275,-1.09961 0.754239,-1.09961 0.253647,0 0.525286,0.13123 0.739069,0.42474 0.275167,0.37853 0.599723,1.03717 0.7747,1.49931 0.851606,2.25143 0.349603,4.67324 -0.724958,6.27274 -1.020233,1.5815 -3.242733,2.77918 -5.517797,2.77918"
       style="fill:#830303;fill-opacity:1;fill-rule:nonzero;stroke:none;stroke-width:0.352778"
       id="path14166" />
    <path
       d="m 85.717181,123.33025 c -0.195439,0 -0.390172,-0.0875 -0.550686,-0.28187 -0.474839,-0.57503 -1.099608,-1.31621 -2.265892,-2.34915 -0.436386,-0.38629 -0.433211,-1.11618 -0.28328,-1.51623 0.14993,-0.3997 0.41663,-0.99096 0.816328,-1.24108 0.197555,-0.12347 0.449086,-0.21625 0.743302,-0.21625 0.411692,0 0.906992,0.18168 1.455914,0.71614 0.863953,0.84102 1.149703,2.91571 1.007886,3.88161 -0.0889,0.60819 -0.506941,1.00683 -0.923572,1.00683"
       style="fill:#830303;fill-opacity:1;fill-rule:nonzero;stroke:none;stroke-width:0.352778"
       id="path14168" />
    <path
       d="m 67.05559,135.173 c -0.173567,0 -0.338314,-0.0998 -0.413103,-0.26811 -0.101247,-0.22825 0.0014,-0.4953 0.229306,-0.59655 1.025877,-0.45579 2.832805,-1.1109 4.738158,-1.1109 0.48648,0 0.978958,0.0427 1.46685,0.14217 0.244828,0.0501 0.402519,0.28858 0.352778,0.53305 -0.0374,0.18239 -0.179212,0.31644 -0.350309,0.35243 -0.02999,0.006 -0.06068,0.01 -0.09172,0.01 -0.02999,0 -0.06068,-0.003 -0.09102,-0.009 -0.427919,-0.0875 -0.862894,-0.12524 -1.293283,-0.12524 -1.736372,0 -3.412067,0.61066 -4.364214,1.03399 -0.05997,0.0265 -0.122061,0.0388 -0.183444,0.0388"
       style="fill:#660102;fill-opacity:1;fill-rule:nonzero;stroke:none;stroke-width:0.352778"
       id="path14170" />
    <path
       d="m 71.750709,139.30756 c -0.145697,0 -0.288925,-0.0702 -0.376061,-0.20038 -0.509411,-0.7613 -2.020005,-1.49895 -4.144433,-2.02424 -0.242006,-0.06 -0.390172,-0.30515 -0.3302,-0.54751 0.05115,-0.20567 0.235655,-0.34325 0.438855,-0.34325 0.03598,0 0.07232,0.004 0.108303,0.0134 1.679928,0.41522 3.855508,1.16875 4.678539,2.39889 0.138642,0.20743 0.08326,0.48789 -0.124178,0.62689 -0.06033,0.0402 -0.126647,0.0639 -0.19438,0.0727 -0.0187,0.002 -0.03775,0.004 -0.05644,0.004"
       style="fill:#660102;fill-opacity:1;fill-rule:nonzero;stroke:none;stroke-width:0.352778"
       id="path14172" />
    <path
       d="m 135.75412,141.08273 c -0.1143,0 -0.22966,-0.005 -0.34678,-0.0162 -0.0818,-0.007 -0.16157,-0.0173 -0.23883,-0.0296 0.078,0.0116 0.15699,0.0222 0.23918,0.0296 0.11677,0.0109 0.23213,0.0162 0.34608,0.0162 1.53247,0 2.80282,-0.95814 3.68018,-2.25566 3.5e-4,3.6e-4 10e-4,0.001 10e-4,0.001 -0.87736,1.29717 -2.14877,2.25425 -3.68124,2.25425"
       style="fill:#9b1f24;fill-opacity:1;fill-rule:nonzero;stroke:none;stroke-width:0.352778"
       id="path14174" />
    <path
       d="m 140.0887,145.21976 c -0.40075,0 -0.79093,-0.0804 -1.12395,-0.19685 -2.13219,-0.74472 -3.38349,-2.76578 -3.85374,-3.99486 0.019,0.003 0.0381,0.006 0.0575,0.009 0.0773,0.0123 0.15699,0.0222 0.23883,0.0296 0.11712,0.0109 0.23248,0.0162 0.34678,0.0162 1.53247,0 2.80388,-0.95708 3.68124,-2.25425 1.32574,1.23861 2.02529,2.33786 2.57704,3.39761 0.4064,0.78034 0.34008,1.76318 -0.22084,2.3241 -0.49424,0.49424 -1.11054,0.66957 -1.70286,0.66957"
       style="fill:#830303;fill-opacity:1;fill-rule:nonzero;stroke:none;stroke-width:0.352778"
       id="path14176" />
    <path
       d="m 82.716806,144.37591 c -0.509764,0 -1.002594,-0.0445 -1.448858,-0.13617 -0.56127,-0.11571 -0.92075,-0.51823 -0.974372,-0.92463 -0.05856,-0.44132 0.31115,-0.82762 0.664633,-0.97225 5.05848,-2.07081 5.853642,-8.30863 4.818239,-12.51338 -0.189442,-0.77012 0.339372,-1.30246 0.923219,-1.30246 0.269522,0 0.550686,0.11324 0.778228,0.36901 0.612422,0.68721 1.1303,1.86231 1.403703,2.54035 0.933097,2.31598 1.507772,4.65666 0.933097,7.55544 -0.354895,1.78929 -1.260828,3.31752 -3.049058,4.39843 -1.051278,0.63536 -2.617259,0.98566 -4.048831,0.98566"
       style="fill:#830303;fill-opacity:1;fill-rule:nonzero;stroke:none;stroke-width:0.352778"
       id="path14178" />
    <path
       d="m 62.618704,130.25351 c 3.53e-4,-0.002 0.0011,-0.004 0.0018,-0.005 -7.06e-4,0.002 -0.0014,0.004 -0.0018,0.005 m 0.0025,-0.008 c 0.01235,-0.0363 0.0247,-0.0723 0.03775,-0.1083 0.02575,-0.072 0.05221,-0.14217 0.07902,-0.21061 -0.02681,0.0688 -0.05327,0.13864 -0.07902,0.21061 -0.01305,0.036 -0.0254,0.072 -0.03775,0.1083 m 0.117828,-0.32173 c 7.06e-4,-0.001 0.0014,-0.003 0.0021,-0.005 -7.06e-4,0.002 -0.0014,0.004 -0.0021,0.005"
       style="fill:#780d13;fill-opacity:1;fill-rule:nonzero;stroke:none;stroke-width:0.352778"
       id="path14180" />
    <path
       d="m 63.250882,133.04328 c -0.195439,0 -0.387703,-0.0427 -0.570089,-0.13264 -0.145345,-0.0716 -0.306211,-0.19509 -0.426861,-0.31927 0.01834,-0.83044 0.128058,-1.62842 0.364772,-2.33786 3.53e-4,-0.002 0.0011,-0.004 0.0018,-0.005 3.52e-4,-0.001 3.52e-4,-0.002 7.05e-4,-0.003 0.01235,-0.0363 0.0247,-0.0723 0.03775,-0.1083 0.02575,-0.072 0.05221,-0.14182 0.07902,-0.21061 3.52e-4,-7.1e-4 7.05e-4,-0.002 0.0011,-0.003 7.06e-4,-0.001 0.0014,-0.003 0.0021,-0.005 0.370769,-0.93663 0.856897,-1.55857 1.468261,-2.0387 0.127353,0.0173 0.290689,0.0459 0.396522,0.0787 0.987072,0.30621 1.197328,1.95333 0.675922,3.31011 -0.417689,1.08655 -1.247422,1.77447 -2.030941,1.77447"
       style="fill:#660102;fill-opacity:1;fill-rule:nonzero;stroke:none;stroke-width:0.352778"
       id="path14182" />
    <path
       d="m 78.957959,124.6895 c -0.870303,0 -1.498247,-0.83996 -1.767417,-1.25377 -0.656519,-1.01071 -1.195563,-1.82915 -1.832327,-2.77142 1.28023,-0.38982 2.610908,-0.73731 3.748616,-0.99307 0.694972,1.21955 1.144764,2.16923 1.328209,3.16865 0.09772,0.53375 0.01658,1.44956 -1.049514,1.78294 -0.14852,0.0462 -0.291042,0.0667 -0.427567,0.0667"
       style="fill:#830303;fill-opacity:1;fill-rule:nonzero;stroke:none;stroke-width:0.352778"
       id="path14184" />
    <path
       d="m 73.780945,121.17654 c 0.0014,-3.5e-4 0.0028,-7e-4 0.0039,-0.001 -0.0011,7.1e-4 -0.0025,0.001 -0.0039,0.001 m 0.01305,-0.005 c 0.0025,-7.1e-4 0.0049,-0.002 0.0078,-0.002 -0.0025,7e-4 -0.0053,0.002 -0.0078,0.002 m 0.01517,-0.005 c 0.0049,-0.002 0.0099,-0.004 0.01517,-0.005 -0.0053,0.002 -0.01023,0.004 -0.01517,0.005"
       style="fill:#9b1f24;fill-opacity:1;fill-rule:nonzero;stroke:none;stroke-width:0.352778"
       id="path14186" />
    <path
       d="m 73.920645,125.35131 c -0.453319,0 -0.88265,-0.26634 -1.182511,-0.66216 -0.333728,-0.44062 -0.933097,-1.016 -1.672166,-1.82809 0.697794,-0.67099 1.585736,-1.28447 2.714977,-1.68452 0.0014,-3.5e-4 0.0028,-7e-4 0.0039,-0.001 0.0032,-0.001 0.0063,-0.002 0.0092,-0.003 0.0025,-7.1e-4 0.0053,-0.002 0.0078,-0.002 0.0025,-0.001 0.0049,-0.002 0.0074,-0.003 0.0049,-0.002 0.0099,-0.004 0.01517,-0.005 l 0.0074,-0.002 c 0.520347,0.55598 1.137709,1.6249 1.255536,2.33081 0.09984,0.59972 0.140053,1.3462 -0.633236,1.73284 -0.177447,0.0885 -0.357364,0.12876 -0.5334,0.12876"
       style="fill:#830303;fill-opacity:1;fill-rule:nonzero;stroke:none;stroke-width:0.352778"
       id="path14188" />
    <path
       d="m 106.74768,130.59536 c -1.90112,0 -3.34328,-0.1196 -4.29719,-0.28046 0.95391,0.16086 2.39748,0.2801 4.29824,0.2801 0.0642,0 0.12912,-3.5e-4 0.19438,-7e-4 0,7e-4 0,3.5e-4 0,7e-4 -0.066,3.6e-4 -0.13088,3.6e-4 -0.19543,3.6e-4 m -4.29719,-0.28046 c -0.003,-3.6e-4 -0.006,-0.001 -0.008,-0.001 0.003,3.5e-4 0.006,0.001 0.008,0.001 m -0.0106,-0.002 c -0.003,-7e-4 -0.006,-0.001 -0.008,-0.002 0.003,7.1e-4 0.006,0.001 0.008,0.002 m -0.01,-0.002 c -0.4191,-0.0744 -0.94404,-0.27164 -1.49754,-0.56092 0,-3.5e-4 3.5e-4,-0.001 3.5e-4,-0.001 0.55315,0.28928 1.07809,0.48789 1.49719,0.56233"
       style="fill:#9b1f24;fill-opacity:1;fill-rule:nonzero;stroke:none;stroke-width:0.352778"
       id="path14190" />
    <path
       d="m 99.850517,145.67519 c -0.28575,0 -0.569736,-0.0339 -0.839611,-0.11112 -1.470025,-0.41981 -1.999192,-2.03235 -1.632656,-2.99861 1.331736,-3.5112 2.031295,-5.22252 3.0988,-9.92928 0.19438,-0.85831 0.33302,-1.85456 0.45544,-2.88573 0.5535,0.28928 1.07844,0.48648 1.49754,0.56092 3.5e-4,0 7e-4,0 0.001,0 0.003,7.1e-4 0.006,10e-4 0.008,0.002 7e-4,0 10e-4,0 0.002,3.6e-4 0.003,3.5e-4 0.006,0.001 0.008,0.001 0.95391,0.16086 2.39607,0.28046 4.29719,0.28046 0.0645,0 0.12946,0 0.19543,-3.6e-4 -0.30233,6.73912 -1.96814,11.20423 -4.2672,14.00281 -0.39863,0.48578 -1.62948,1.07738 -2.825393,1.07738"
       style="fill:#830303;fill-opacity:1;fill-rule:nonzero;stroke:none;stroke-width:0.352778"
       id="path14192" />
    <path
       d="m 111.50347,148.16475 c -0.38382,0 -0.768,-0.0526 -1.13065,-0.16828 -1.56598,-0.49988 -1.92017,-1.97449 -1.71591,-2.68217 1.29963,-4.49827 1.71803,-7.34765 2.21897,-13.05207 0.0497,-0.56797 0.072,-1.18427 0.0797,-1.82457 1.01212,-0.0529 2.06057,-0.0861 3.12808,-0.0861 1.29152,0 2.61091,0.0487 3.92712,0.17109 -0.0575,7.19455 -0.98143,13.23411 -3.61421,16.47649 -0.54786,0.67451 -1.71908,1.16558 -2.89313,1.16558"
       style="fill:#830303;fill-opacity:1;fill-rule:nonzero;stroke:none;stroke-width:0.352778"
       id="path14194" />
    <path
       d="m 125.99664,132.51729 c -0.001,-7.1e-4 -0.003,-0.001 -0.005,-0.002 10e-4,7.1e-4 0.003,0.001 0.005,0.002 m -0.0265,-0.0123 c -3.5e-4,0 -3.5e-4,-3.5e-4 -7e-4,-3.5e-4 3.5e-4,0 3.5e-4,3.5e-4 7e-4,3.5e-4"
       style="fill:#9b1f24;fill-opacity:1;fill-rule:nonzero;stroke:none;stroke-width:0.352778"
       id="path14196" />
    <path
       d="m 122.27096,147.42885 c -0.27164,0 -0.55281,-0.0399 -0.83574,-0.13194 -1.34761,-0.43815 -1.48448,-1.73602 -1.26012,-2.36043 1.22308,-3.40784 1.55222,-6.34718 2.22956,-11.12555 0.10724,-0.7553 0.16404,-1.61008 0.20143,-2.50014 1.16311,0.30515 2.29377,0.69356 3.36339,1.1938 3.5e-4,0 3.5e-4,3.5e-4 7e-4,3.5e-4 0.007,0.004 0.0148,0.007 0.0219,0.0102 0.002,7.1e-4 0.003,0.001 0.005,0.002 0.008,0.004 0.0159,0.007 0.024,0.0113 0.8195,0.38664 1.57021,0.82797 2.27083,1.30916 -0.25894,5.8621 -1.39206,9.86049 -3.75779,12.59275 -0.40675,0.4699 -1.27388,0.99836 -2.26271,0.99836"
       style="fill:#830303;fill-opacity:1;fill-rule:nonzero;stroke:none;stroke-width:0.352778"
       id="path14198" />
    <path
       d="m 140.62281,135.29894 v 0 c 0.0621,-0.80398 0.0166,-1.62278 -0.10972,-2.41794 0.1263,0.79516 0.17181,1.61361 0.10972,2.41794 m -0.10972,-2.41864 c -0.001,-0.006 -0.002,-0.0116 -0.003,-0.0176 0.001,0.006 0.002,0.0116 0.003,0.0176 m -0.003,-0.0201 c -0.001,-0.006 -0.002,-0.0113 -0.003,-0.0169 0.001,0.006 0.002,0.0113 0.003,0.0169 m -0.003,-0.0194 c -0.001,-0.006 -0.002,-0.0117 -0.003,-0.0176 0.001,0.006 0.002,0.012 0.003,0.0176 m -0.006,-0.0339 c -3.5e-4,-0.002 -7.1e-4,-0.005 -0.001,-0.007 3.5e-4,0.002 7.1e-4,0.005 0.001,0.007 m -0.002,-0.0145 c -0.0995,-0.59761 -0.24341,-1.18463 -0.41134,-1.76566 0.001,0 0.002,-3.5e-4 0.003,-3.5e-4 0.16792,0.58067 0.30868,1.16875 0.40816,1.76601"
       style="fill:#9b1f24;fill-opacity:1;fill-rule:nonzero;stroke:none;stroke-width:0.352778"
       id="path14200" />
    <path
       d="m 141.17102,135.31693 c -0.18908,0 -0.37288,-0.006 -0.54821,-0.018 0.0621,-0.80433 0.0166,-1.62278 -0.10972,-2.41794 0,-3.5e-4 0,-3.5e-4 0,-7e-4 -0.001,-0.006 -0.002,-0.0116 -0.003,-0.0176 0,-7.1e-4 -3.5e-4,-0.002 -3.5e-4,-0.002 -0.001,-0.006 -0.002,-0.0113 -0.003,-0.0169 0,-7.1e-4 -3.6e-4,-0.002 -3.6e-4,-0.002 -0.001,-0.006 -0.002,-0.0117 -0.003,-0.0176 -0.001,-0.005 -0.002,-0.0106 -0.003,-0.0162 -3.5e-4,-0.002 -7.1e-4,-0.005 -0.001,-0.007 -3.5e-4,-0.002 -7e-4,-0.005 -0.001,-0.007 -0.0995,-0.59726 -0.24024,-1.18534 -0.40816,-1.76601 1.02341,-0.18309 1.81963,-0.29527 2.69452,-0.29527 0.11218,0 0.22577,0.002 0.34113,0.006 0.85055,0.0279 1.72015,0.76341 1.91347,1.73531 0.13793,0.69356 -0.16475,1.44604 -0.6477,1.89548 -0.77364,0.72002 -2.08809,0.94932 -3.22122,0.94932"
       style="fill:#830303;fill-opacity:1;fill-rule:nonzero;stroke:none;stroke-width:0.352778"
       id="path14202" />
    <path
       d="m 64.019232,139.45854 c -0.06844,0 -0.138995,-0.007 -0.208139,-0.01 -0.06174,-0.12771 -0.125942,-0.25083 -0.185914,-0.38241 -0.03422,-0.0744 -0.06668,-0.15699 -0.100189,-0.2346 l 0.01129,0.001 c 0.159103,0.0148 0.317147,0.0219 0.472722,0.0219 0.769056,0 1.478492,-0.17568 1.958269,-0.49494 0.05115,-0.0339 0.109362,-0.0501 0.166512,-0.0501 0.09772,0 0.193322,0.0469 0.251177,0.13406 0.09208,0.13864 0.05468,0.32561 -0.08396,0.41769 -0.582083,0.38735 -1.393825,0.59654 -2.281766,0.59654"
       style="fill:#660102;fill-opacity:1;fill-rule:nonzero;stroke:none;stroke-width:0.352778"
       id="path14204" />
    <path
       d="m 102.7627,175.49621 c -1.16523,-1.72897 -3.141841,-2.86562 -5.383744,-2.86562 -2.24155,0 -4.218164,1.13665 -5.383742,2.86562 -0.398286,-0.15276 -0.811036,-0.27623 -1.23578,-0.36689 1.353255,-2.2405 3.811058,-3.73839 6.619522,-3.73839 2.807754,0 5.265914,1.49789 6.619174,3.73839 -0.42475,0.0907 -0.8375,0.21413 -1.23543,0.36689"
       style="fill:#f5c5c5;fill-opacity:1;fill-rule:nonzero;stroke:none;stroke-width:0.352778"
       id="path14206" />
    <path
       d="m 100.61216,176.2127 c -7e-4,-7.1e-4 -0.001,-0.001 -0.002,-0.002 0.32279,-0.0557 0.64276,-0.10301 0.96026,-0.14252 l -0.007,0.004 c -0.31433,0.0395 -0.63148,0.0854 -0.95145,0.14076"
       style="fill:#ffffff;fill-opacity:1;fill-rule:nonzero;stroke:none;stroke-width:0.352778"
       id="path14208" />
    <path
       d="m 93.888925,176.51891 c -0.249766,-0.17992 -0.509764,-0.34572 -0.778227,-0.49707 0.959555,-1.32009 2.511777,-2.18193 4.268258,-2.18193 1.75648,0 3.308354,0.86184 4.268614,2.18193 l -0.0769,0.0462 c -0.3175,0.0395 -0.63747,0.0868 -0.96026,0.14252 -0.797278,-0.88582 -1.945922,-1.44815 -3.231444,-1.44815 -1.430514,0 -2.695928,0.69215 -3.490031,1.75648"
       style="fill:#f5c5c5;fill-opacity:1;fill-rule:nonzero;stroke:none;stroke-width:0.352778"
       id="path14210" />
    <path
       d="m 95.379764,177.89545 c -3.53e-4,-7.1e-4 -7.05e-4,-0.001 -0.0014,-0.002 0.102658,-0.0494 0.204964,-0.0981 0.306917,-0.14534 -0.0025,0.003 -0.0053,0.006 -0.0078,0.01 -0.09948,0.0462 -0.198261,0.0889 -0.297745,0.13723 m 2.290939,-0.9391 c -0.0018,-3.5e-4 -0.0032,-3.5e-4 -0.0046,-7e-4 0.474839,-0.16052 0.944739,-0.29881 1.4097,-0.41769 3.53e-4,3.5e-4 7.05e-4,3.5e-4 0.0011,7e-4 -0.46355,0.11854 -0.932744,0.25753 -1.406172,0.41769"
       style="fill:#ffffff;fill-opacity:1;fill-rule:nonzero;stroke:none;stroke-width:0.352778"
       id="path14212" />
    <path
       d="m 95.378353,177.89368 c -0.166158,-0.19438 -0.338667,-0.38311 -0.521758,-0.56197 0.560916,-0.78917 1.479903,-1.30528 2.522361,-1.30528 0.627944,0 1.209675,0.18979 1.696861,0.51153 -0.464961,0.11888 -0.934861,0.25717 -1.4097,0.41769 -0.09419,-0.0123 -0.190147,-0.019 -0.287867,-0.019 -0.684389,0 -1.29293,0.31785 -1.69298,0.81174 -0.101953,0.0473 -0.204259,0.0959 -0.306917,0.14534"
       style="fill:#f5c5c5;fill-opacity:1;fill-rule:nonzero;stroke:none;stroke-width:0.352778"
       id="path14214" />
    <path
       d="m 107.63597,173.75489 c -0.37853,-0.65052 -1.08126,-1.08832 -1.88736,-1.08832 -0.8061,0 -1.50848,0.43745 -1.88736,1.08832 -0.19791,-0.24306 -0.41064,-0.47413 -0.63465,-0.69356 0.56056,-0.78881 1.48026,-1.30563 2.52236,-1.30563 1.04175,0 1.9618,0.51717 2.52236,1.30599 -0.22436,0.21907 -0.43709,0.45014 -0.63535,0.6932"
       style="fill:#f5c5c5;fill-opacity:1;fill-rule:nonzero;stroke:none;stroke-width:0.352778"
       id="path14216" />
    <path
       d="m 106.83587,174.92329 c -0.13617,-0.0173 -0.27376,-0.0314 -0.41346,-0.0427 l 0.002,-0.0183 -10e-4,-0.0109 c -0.006,-0.36407 -0.30233,-0.65793 -0.66781,-0.65793 -0.36971,0 -0.66922,0.29951 -0.66922,0.66886 l 0.002,0.0173 c -0.14323,0.0106 -0.28505,0.0258 -0.42686,0.0437 -0.0631,-0.11147 -0.12877,-0.22225 -0.19756,-0.33125 0.12489,-0.59937 0.65546,-1.04987 1.29187,-1.04987 0.63148,0 1.15712,0.44379 1.28729,1.03611 -0.0568,0.0896 -0.19332,0.32138 -0.20708,0.34501"
       style="fill:#f5c5c5;fill-opacity:1;fill-rule:nonzero;stroke:none;stroke-width:0.352778"
       id="path14218" />
    <path
       d="m 109.17549,176.41025 c -1.19556,-0.25753 -2.40418,-0.42086 -3.54506,-0.48577 1.14018,0.0646 2.34844,0.22719 3.54295,0.48471 7e-4,3.6e-4 0.001,7.1e-4 0.002,0.001 m -3.55071,-0.48613 c -10e-4,0 -0.002,0 -0.004,0 10e-4,0 0.003,0 0.004,0 m -2.00448,-0.0141 c 0.003,-7e-4 0.006,-0.002 0.008,-0.002 0.30339,-0.0102 0.60289,-0.0152 0.89958,-0.0152 10e-4,0 10e-4,0 0.002,0 -0.29951,3.6e-4 -0.60396,0.007 -0.91017,0.0176"
       style="fill:#ffffff;fill-opacity:1;fill-rule:nonzero;stroke:none;stroke-width:0.352778"
       id="path14220" />
    <path
       d="m 109.17338,176.40919 c -1.19451,-0.25752 -2.40277,-0.42015 -3.54295,-0.48471 -0.002,0 -0.004,-3.6e-4 -0.006,-3.6e-4 -0.001,0 -0.002,0 -0.004,0 -0.37077,-0.0212 -0.73483,-0.0317 -1.08867,-0.0317 -3.5e-4,0 -0.001,0 -0.002,0 -7.1e-4,0 -10e-4,0 -0.002,0 -0.29669,0 -0.59619,0.005 -0.89958,0.0152 0.67416,-0.19191 1.38465,-0.29739 2.12019,-0.29739 1.22978,0 2.39219,0.28787 3.42442,0.79904"
       style="fill:#f5c5c5;fill-opacity:1;fill-rule:nonzero;stroke:none;stroke-width:0.352778"
       id="path14222" />
    <path
       d="m 86.023392,175.49621 c -1.16593,-1.72897 -3.142191,-2.86562 -5.384094,-2.86562 -0.354189,0 -0.700617,0.0314 -1.039283,0.0861 -0.181681,-0.38241 -0.358423,-0.77188 -0.531637,-1.16487 0.507295,-0.10478 1.032581,-0.16087 1.57092,-0.16087 2.808111,0 5.265914,1.49789 6.619522,3.73839 -0.424392,0.0907 -0.837494,0.21413 -1.235428,0.36689"
       style="fill:#f5c5c5;fill-opacity:1;fill-rule:nonzero;stroke:none;stroke-width:0.352778"
       id="path14224" />
    <path
       d="m 84.128976,176.51891 c -0.790928,-1.0601 -2.05105,-1.75084 -3.475214,-1.75542 -0.164747,-0.29352 -0.327378,-0.59302 -0.486481,-0.90029 0.155928,-0.0138 0.312914,-0.0233 0.472017,-0.0233 1.756128,0 3.307997,0.86184 4.267905,2.18193 -0.268464,0.15135 -0.528461,0.31715 -0.778227,0.49707"
       style="fill:#f5c5c5;fill-opacity:1;fill-rule:nonzero;stroke:none;stroke-width:0.352778"
       id="path14226" />
    <path
       d="m 82.660714,177.71553 c -0.0014,-0.001 -0.0028,-0.003 -0.0042,-0.005 l -0.0018,-0.0236 c 0.0014,0.002 0.0028,0.004 0.0042,0.005 l 0.0018,0.0229"
       style="fill:#ffffff;fill-opacity:1;fill-rule:nonzero;stroke:none;stroke-width:0.352778"
       id="path14228" />
    <path
       d="m 82.739031,177.77903 -0.08043,-0.0917 3.53e-4,0.005 c -0.0014,-0.002 -0.0028,-0.004 -0.0042,-0.005 l 0.0018,0.0236 c -0.401461,-0.46566 -0.788811,-0.9913 -1.163108,-1.55998 0.681214,0.19615 1.26753,0.61666 1.667933,1.18075 -0.146755,0.14358 -0.286103,0.29386 -0.422275,0.44732"
       style="fill:#f5c5c5;fill-opacity:1;fill-rule:nonzero;stroke:none;stroke-width:0.352778"
       id="path14230" />
    <path
       d="m 90.896312,173.75489 c -0.378531,-0.65052 -1.080912,-1.08832 -1.887362,-1.08832 -0.805744,0 -1.508124,0.43745 -1.887008,1.08832 -0.197908,-0.24306 -0.410986,-0.47413 -0.635,-0.69356 0.56127,-0.78881 1.480256,-1.30563 2.522008,-1.30563 1.042459,0 1.961798,0.51717 2.522362,1.30599 -0.223662,0.21907 -0.436034,0.45014 -0.635,0.6932"
       style="fill:#f5c5c5;fill-opacity:1;fill-rule:nonzero;stroke:none;stroke-width:0.352778"
       id="path14232" />
    <path
       d="m 90.096212,174.92329 c -0.136525,-0.0173 -0.274462,-0.0314 -0.412398,-0.0427 l 0.0011,-0.0183 -7.06e-4,-0.0109 c -0.0071,-0.36407 -0.30233,-0.65793 -0.668867,-0.65793 -0.368652,0 -0.668161,0.29951 -0.668161,0.66886 l 0.0018,0.0173 c -0.143933,0.0106 -0.28575,0.0258 -0.426861,0.0437 -0.06315,-0.11147 -0.129822,-0.22225 -0.197908,-0.33125 0.124883,-0.59937 0.655461,-1.04987 1.291166,-1.04987 0.631825,0 1.15817,0.44379 1.287992,1.03611 -0.05644,0.0896 -0.193675,0.32138 -0.20708,0.34501"
       style="fill:#f5c5c5;fill-opacity:1;fill-rule:nonzero;stroke:none;stroke-width:0.352778"
       id="path14234" />
    <path
       d="m 93.671967,178.82713 c -0.0014,-0.001 -0.0028,-0.003 -0.0039,-0.004 0.371828,-0.22472 0.741892,-0.43286 1.109134,-0.62583 0.0011,10e-4 0.0021,0.002 0.0032,0.003 -0.367242,0.19297 -0.736953,0.40217 -1.108428,0.62653"
       style="fill:#ffffff;fill-opacity:1;fill-rule:nonzero;stroke:none;stroke-width:0.352778"
       id="path14236" />
    <path
       d="m 84.133209,179.05961 c -0.336197,-0.2413 -0.652639,-0.508 -0.946503,-0.79798 1.417108,-1.62348 3.49885,-2.65148 5.822244,-2.65148 2.293409,0 4.352925,1.00013 5.76827,2.58727 -0.367242,0.19297 -0.737306,0.40111 -1.109134,0.62583 -1.179688,-1.21708 -2.830336,-1.97344 -4.659136,-1.97344 -1.943099,0 -3.686527,0.85514 -4.875741,2.2098"
       style="fill:#f5c5c5;fill-opacity:1;fill-rule:nonzero;stroke:none;stroke-width:0.352778"
       id="path14238" />
    <path
       d="m 92.225225,179.69214 c 0.12947,-0.0653 0.257175,-0.1344 0.382764,-0.20672 3.53e-4,7e-4 7.06e-4,7e-4 0.0011,0.001 -0.125589,0.0723 -0.253648,0.1404 -0.383823,0.20531"
       style="fill:#ffffff;fill-opacity:1;fill-rule:nonzero;stroke:none;stroke-width:0.352778"
       id="path14240" />
    <path
       d="m 86.117231,180.09219 c -0.317853,-0.11077 -0.625475,-0.24306 -0.922867,-0.39228 0.960614,-1.0086 2.312106,-1.64042 3.814586,-1.64042 1.393825,0 2.65677,0.54328 3.599039,1.42593 -0.125589,0.0723 -0.253294,0.14146 -0.382764,0.20672 -0.170038,0.0847 -0.343605,0.16299 -0.519641,0.23601 -0.741892,-0.58878 -1.674989,-0.9465 -2.696634,-0.9465 -1.112661,0 -2.122311,0.42263 -2.891719,1.11054"
       style="fill:#f5c5c5;fill-opacity:1;fill-rule:nonzero;stroke:none;stroke-width:0.352778"
       id="path14242" />
    <path
       d="m 87.835964,180.4799 c 0.284339,0.0314 0.572559,0.048 0.865011,0.048 0.446264,0 0.88265,-0.0402 1.308453,-0.11183 -0.314325,-0.10795 -0.649464,-0.17074 -1.000478,-0.17074 -0.416277,0 -0.811036,0.0854 -1.172986,0.2346"
       style="fill:#ffffff;fill-opacity:1;fill-rule:nonzero;stroke:none;stroke-width:0.352778"
       id="path14244" />
    <path
       d="m 130.30441,172.6567 c 0.28046,-0.41416 0.55492,-0.83432 0.82162,-1.25695 3.5e-4,0 3.5e-4,3.5e-4 7.1e-4,3.5e-4 -0.26706,0.42298 -0.54152,0.84208 -0.82198,1.2566 -3.5e-4,0 -3.5e-4,0 -3.5e-4,0"
       style="fill:#ffffff;fill-opacity:1;fill-rule:nonzero;stroke:none;stroke-width:0.352778"
       id="path14246" />
    <path
       d="m 125.47418,175.49621 c -0.39864,-0.15276 -0.81033,-0.27623 -1.23578,-0.36689 1.35325,-2.2405 3.81176,-3.73839 6.61987,-3.73839 0.09,0 0.17851,0.006 0.26776,0.009 -0.2667,0.42263 -0.54116,0.84279 -0.82162,1.25695 -2.01119,0.17039 -3.76132,1.25483 -4.83023,2.83951"
       style="fill:#f5c5c5;fill-opacity:1;fill-rule:nonzero;stroke:none;stroke-width:0.352778"
       id="path14248" />
    <path
       d="m 127.35378,176.50974 c -3.6e-4,0 -7.1e-4,-3.6e-4 -0.001,-7.1e-4 0.66287,-0.75318 1.31798,-1.57374 1.95157,-2.43487 h 3.5e-4 c -0.63394,0.86113 -1.28799,1.68204 -1.95086,2.43558"
       style="fill:#ffffff;fill-opacity:1;fill-rule:nonzero;stroke:none;stroke-width:0.352778"
       id="path14250" />
    <path
       d="m 127.35272,176.50903 c -0.24483,-0.17604 -0.49918,-0.33867 -0.76306,-0.48719 0.66428,-0.91334 1.61184,-1.6069 2.71463,-1.94768 -0.63359,0.86113 -1.2887,1.68169 -1.95157,2.43487"
       style="fill:#f5c5c5;fill-opacity:1;fill-rule:nonzero;stroke:none;stroke-width:0.352778"
       id="path14252" />
    <path
       d="m 119.50236,175.49621 c -1.16558,-1.72897 -3.1422,-2.86562 -5.3841,-2.86562 -2.24155,0 -4.21816,1.13665 -5.38374,2.86562 -0.39758,-0.15276 -0.81104,-0.27623 -1.23578,-0.36689 1.35361,-2.2405 3.81247,-3.73839 6.61952,-3.73839 2.80846,0 5.26662,1.49789 6.61988,3.73839 -0.42545,0.0907 -0.83715,0.21413 -1.23578,0.36689"
       style="fill:#f5c5c5;fill-opacity:1;fill-rule:nonzero;stroke:none;stroke-width:0.352778"
       id="path14254" />
    <path
       d="m 117.60864,176.51891 c -0.7948,-1.06398 -2.05987,-1.75648 -3.49038,-1.75648 -1.42981,0 -2.69557,0.69215 -3.49003,1.75648 -0.24977,-0.17992 -0.50976,-0.34572 -0.77823,-0.49707 0.96026,-1.32009 2.51213,-2.18193 4.26826,-2.18193 1.75683,0 3.3087,0.86184 4.26861,2.18193 -0.26917,0.15135 -0.52881,0.31715 -0.77823,0.49707"
       style="fill:#f5c5c5;fill-opacity:1;fill-rule:nonzero;stroke:none;stroke-width:0.352778"
       id="path14256" />
    <path
       d="m 112.4147,177.37439 c -0.21626,-0.0843 -0.43604,-0.16474 -0.65829,-0.24235 3.6e-4,-3.6e-4 7.1e-4,-7.1e-4 10e-4,-10e-4 0.22225,0.0776 0.44133,0.15911 0.65723,0.24377"
       style="fill:#ffffff;fill-opacity:1;fill-rule:nonzero;stroke:none;stroke-width:0.352778"
       id="path14258" />
    <path
       d="m 116.00562,178.02527 c -0.37853,-0.65052 -1.08126,-1.08867 -1.88736,-1.08867 -0.55139,0 -1.05092,0.20814 -1.43475,0.54539 -0.0889,-0.0363 -0.1785,-0.0723 -0.26881,-0.1076 -0.2159,-0.0847 -0.43498,-0.16615 -0.65723,-0.24377 0.56727,-0.6731 1.41147,-1.10419 2.36079,-1.10419 1.04175,0 1.9618,0.51611 2.52201,1.30528 -0.22331,0.21943 -0.43639,0.44979 -0.63465,0.69356"
       style="fill:#f5c5c5;fill-opacity:1;fill-rule:nonzero;stroke:none;stroke-width:0.352778"
       id="path14260" />
    <path
       d="m 114.29677,178.25951 c -0.21555,-0.12029 -0.4378,-0.23636 -0.66534,-0.34819 7e-4,0 0.001,-3.5e-4 0.002,-7e-4 0.22683,0.11183 0.44838,0.22789 0.66287,0.34889"
       style="fill:#ffffff;fill-opacity:1;fill-rule:nonzero;stroke:none;stroke-width:0.352778"
       id="path14262" />
    <path
       d="m 115.36462,178.92662 c -0.13581,-0.0903 -0.26916,-0.17886 -0.40251,-0.266 -0.21273,-0.13935 -0.43533,-0.2727 -0.66534,-0.40111 -0.21449,-0.121 -0.43604,-0.23706 -0.66287,-0.34889 0.15204,-0.0614 0.31714,-0.0981 0.49142,-0.0981 0.63147,0 1.15711,0.4438 1.28764,1.03611 l -0.0483,0.078"
       style="fill:#f5c5c5;fill-opacity:1;fill-rule:nonzero;stroke:none;stroke-width:0.352778"
       id="path14264" />
    <path
       d="m 124.37527,173.75489 c -0.37782,-0.65052 -1.08091,-1.08832 -1.88736,-1.08832 -0.80574,0 -1.50812,0.43745 -1.88665,1.08832 -0.19897,-0.24306 -0.41134,-0.47413 -0.635,-0.69356 0.56127,-0.78881 1.48025,-1.30563 2.52236,-1.30563 1.0414,0 1.9618,0.51717 2.52201,1.30599 -0.22402,0.21907 -0.43674,0.45014 -0.63536,0.6932"
       style="fill:#f5c5c5;fill-opacity:1;fill-rule:nonzero;stroke:none;stroke-width:0.352778"
       id="path14266" />
    <path
       d="m 123.57517,174.92329 c -0.13652,-0.0173 -0.27446,-0.0314 -0.4131,-0.0427 l 0.002,-0.0183 -10e-4,-0.0109 c -0.006,-0.36407 -0.30268,-0.65793 -0.66816,-0.65793 -0.36901,0 -0.66887,0.29951 -0.66887,0.66886 l 10e-4,0.0173 c -0.14252,0.0106 -0.28504,0.0258 -0.42545,0.0437 -0.0638,-0.11147 -0.13017,-0.22225 -0.19826,-0.33125 0.12418,-0.59937 0.65546,-1.04987 1.29152,-1.04987 0.63182,0 1.15817,0.44379 1.28764,1.03611 -0.0572,0.0896 -0.19368,0.32138 -0.20744,0.34501"
       style="fill:#f5c5c5;fill-opacity:1;fill-rule:nonzero;stroke:none;stroke-width:0.352778"
       id="path14268" />
    <path
       d="m 126.25029,177.69084 c 0.21943,-0.22049 0.43921,-0.4505 0.65793,-0.68792 7e-4,3.5e-4 0.001,0.001 0.002,0.001 -0.21978,0.23848 -0.43992,0.46637 -0.66005,0.68651"
       style="fill:#ffffff;fill-opacity:1;fill-rule:nonzero;stroke:none;stroke-width:0.352778"
       id="path14270" />
    <path
       d="m 117.10488,179.71613 c -0.32421,-0.12453 -0.66005,-0.22401 -1.00189,-0.30762 -0.0656,-0.0395 -0.12841,-0.0822 -0.19262,-0.12347 1.36137,-2.20451 3.7973,-3.67489 6.57825,-3.67489 1.64465,0 3.16689,0.51682 4.4196,1.39277 -0.21872,0.23742 -0.4385,0.46743 -0.65793,0.68792 -0.0723,0.0723 -0.14499,0.14393 -0.21731,0.21484 -1.01918,-0.6664 -2.23591,-1.05587 -3.54436,-1.05587 -2.2419,0 -4.21852,1.13665 -5.38374,2.86632"
       style="fill:#f5c5c5;fill-opacity:1;fill-rule:nonzero;stroke:none;stroke-width:0.352778"
       id="path14272" />
    <path
       d="m 119.22401,180.46931 c -0.29315,-0.0342 -0.58243,-0.0797 -0.86501,-0.14534 -0.0462,-0.0275 -0.0914,-0.0568 -0.13864,-0.0833 0.95956,-1.31974 2.51213,-2.18122 4.26826,-2.18122 0.95074,0 1.84044,0.254 2.60985,0.69497 -0.26917,0.22013 -0.55104,0.42475 -0.84843,0.60819 -0.53905,-0.24059 -1.13277,-0.381 -1.76142,-0.381 -1.30422,0 -2.46662,0.57926 -3.26461,1.48766"
       style="fill:#f5c5c5;fill-opacity:1;fill-rule:nonzero;stroke:none;stroke-width:0.352778"
       id="path14274" />
    <path
       d="m 122.13584,180.26682 c -0.21061,0.024 -0.4124,0.0727 -0.60783,0.13652 0.20602,-0.0367 0.40781,-0.084 0.60783,-0.13652"
       style="fill:#ffffff;fill-opacity:1;fill-rule:nonzero;stroke:none;stroke-width:0.352778"
       id="path14276" />
    <path
       d="m 102.7627,158.51736 c -1.16523,-1.72861 -3.141841,-2.86596 -5.383744,-2.86596 -2.24155,0 -4.218164,1.13735 -5.383742,2.86596 -0.398286,-0.15275 -0.811036,-0.27622 -1.23578,-0.36689 1.353255,-2.24049 3.811058,-3.73838 6.619522,-3.73838 2.807754,0 5.265914,1.49789 6.619174,3.73838 -0.42475,0.0907 -0.8375,0.21414 -1.23543,0.36689"
       style="fill:#f5c5c5;fill-opacity:1;fill-rule:nonzero;stroke:none;stroke-width:0.352778"
       id="path14278" />
    <path
       d="m 100.86934,159.54007 c -0.79481,-1.06398 -2.05987,-1.75648 -3.490384,-1.75648 -1.430514,0 -2.695928,0.69179 -3.490031,1.75648 -0.249766,-0.17957 -0.509764,-0.34573 -0.778227,-0.49742 0.959555,-1.31974 2.511777,-2.18158 4.268258,-2.18158 1.75648,0 3.308354,0.86184 4.268614,2.18193 -0.26953,0.15134 -0.52952,0.3175 -0.77823,0.49707"
       style="fill:#f5c5c5;fill-opacity:1;fill-rule:nonzero;stroke:none;stroke-width:0.352778"
       id="path14280" />
    <path
       d="m 99.265964,161.04607 c -0.37853,-0.65016 -1.081264,-1.08867 -1.887714,-1.08867 -0.805391,0 -1.508125,0.43851 -1.886655,1.08797 -0.198614,-0.24271 -0.410634,-0.47308 -0.635,-0.6925 0.560916,-0.78917 1.479903,-1.30563 2.522361,-1.30563 1.042105,0 1.961444,0.51646 2.522714,1.30563 -0.225073,0.21942 -0.437092,0.45014 -0.635706,0.6932"
       style="fill:#f5c5c5;fill-opacity:1;fill-rule:nonzero;stroke:none;stroke-width:0.352778"
       id="path14282" />
    <path
       d="m 98.465864,162.21483 c -0.136878,-0.018 -0.274461,-0.0325 -0.413808,-0.043 l 0.0025,-0.018 -7.05e-4,-0.0113 c -0.0067,-0.36372 -0.303036,-0.65793 -0.668514,-0.65793 -0.369006,0 -0.66922,0.29986 -0.66922,0.66922 l 0.0021,0.0169 c -0.143228,0.0113 -0.285397,0.0258 -0.426155,0.0441 -0.0635,-0.11183 -0.130528,-0.22261 -0.198614,-0.33126 0.125236,-0.59972 0.656166,-1.04987 1.292577,-1.04987 0.630767,0 1.157111,0.44344 1.286934,1.03576 -0.05644,0.09 -0.19297,0.32103 -0.207081,0.34537"
       style="fill:#f5c5c5;fill-opacity:1;fill-rule:nonzero;stroke:none;stroke-width:0.352778"
       id="path14284" />
    <path
       d="m 102.7627,167.00731 c -1.16523,-1.72931 -3.141841,-2.86632 -5.383744,-2.86632 -2.24155,0 -4.218164,1.13701 -5.383742,2.86632 -0.398286,-0.15275 -0.811036,-0.27622 -1.23578,-0.36759 1.353255,-2.24014 3.811058,-3.73839 6.619522,-3.73839 2.807754,0 5.265914,1.49825 6.619174,3.73839 -0.42475,0.0914 -0.8375,0.21484 -1.23543,0.36759"
       style="fill:#f5c5c5;fill-opacity:1;fill-rule:nonzero;stroke:none;stroke-width:0.352778"
       id="path14286" />
    <path
       d="m 100.86934,168.03002 c -0.79481,-1.06469 -2.05987,-1.75719 -3.490384,-1.75719 -1.430514,0 -2.695928,0.6925 -3.490031,1.75719 -0.249766,-0.17992 -0.509764,-0.34608 -0.778227,-0.49848 0.959555,-1.31939 2.511777,-2.18052 4.268258,-2.18052 1.75648,0 3.308354,0.86113 4.268614,2.18052 -0.26953,0.1524 -0.52952,0.31856 -0.77823,0.49848"
       style="fill:#f5c5c5;fill-opacity:1;fill-rule:nonzero;stroke:none;stroke-width:0.352778"
       id="path14288" />
    <path
       d="M 99.265964,169.53532 C 98.887434,168.8855 98.1847,168.447 97.37825,168.447 c -0.805391,0 -1.508125,0.43815 -1.886655,1.08797 -0.198614,-0.24271 -0.410634,-0.47378 -0.635,-0.69251 0.560916,-0.78951 1.479903,-1.30563 2.522361,-1.30563 1.042105,0 1.961444,0.51647 2.522714,1.30634 -0.225073,0.21872 -0.437092,0.44909 -0.635706,0.69215"
       style="fill:#f5c5c5;fill-opacity:1;fill-rule:nonzero;stroke:none;stroke-width:0.352778"
       id="path14290" />
    <path
       d="m 98.465864,170.70442 c -0.136878,-0.0176 -0.274461,-0.0321 -0.413808,-0.0434 l 0.0025,-0.0176 -7.05e-4,-0.0113 c -0.0067,-0.36442 -0.303036,-0.65794 -0.668514,-0.65794 -0.369006,0 -0.66922,0.29951 -0.66922,0.66922 l 0.0021,0.0169 c -0.143228,0.0109 -0.285397,0.0258 -0.426155,0.0441 -0.0635,-0.11253 -0.130528,-0.2226 -0.198614,-0.33125 0.125236,-0.59973 0.656166,-1.05022 1.292577,-1.05022 0.630767,0 1.157111,0.44344 1.286934,1.03611 -0.05644,0.0896 -0.19297,0.32138 -0.207081,0.34536"
       style="fill:#f5c5c5;fill-opacity:1;fill-rule:nonzero;stroke:none;stroke-width:0.352778"
       id="path14292" />
    <path
       d="m 107.63597,156.77605 c -0.37853,-0.65017 -1.08126,-1.08832 -1.88736,-1.08832 -0.8061,0 -1.50848,0.4378 -1.88736,1.08832 -0.19791,-0.24306 -0.41064,-0.47413 -0.63465,-0.69285 0.56056,-0.78987 1.48026,-1.30634 2.52236,-1.30634 1.04175,0 1.9618,0.51717 2.52236,1.30669 -0.22436,0.21872 -0.43709,0.44944 -0.63535,0.6925"
       style="fill:#f5c5c5;fill-opacity:1;fill-rule:nonzero;stroke:none;stroke-width:0.352778"
       id="path14294" />
    <path
       d="m 106.83587,157.94481 c -0.13617,-0.0173 -0.27376,-0.0317 -0.41346,-0.043 l 0.002,-0.018 -10e-4,-0.0113 c -0.006,-0.36407 -0.30233,-0.65829 -0.66781,-0.65829 -0.36971,0 -0.66922,0.30022 -0.66922,0.66957 l 0.002,0.0173 c -0.14323,0.0106 -0.28505,0.0254 -0.42686,0.0437 -0.0631,-0.11184 -0.12877,-0.22225 -0.19756,-0.33091 0.12489,-0.59972 0.65546,-1.05057 1.29187,-1.05057 0.63148,0 1.15712,0.44344 1.28729,1.03611 -0.0568,0.09 -0.19332,0.32138 -0.20708,0.34537"
       style="fill:#f5c5c5;fill-opacity:1;fill-rule:nonzero;stroke:none;stroke-width:0.352778"
       id="path14296" />
    <path
       d="m 111.1327,162.73764 c -1.16557,-1.72967 -3.14219,-2.86667 -5.38374,-2.86667 -2.2419,0 -4.21816,1.137 -5.38339,2.86667 -0.398989,-0.15381 -0.811386,-0.27693 -1.236484,-0.36759 1.353604,-2.24084 3.811414,-3.73874 6.619874,-3.73874 2.80776,0 5.26627,1.4979 6.61952,3.73874 -0.42474,0.0907 -0.83749,0.21378 -1.23578,0.36759"
       style="fill:#f5c5c5;fill-opacity:1;fill-rule:nonzero;stroke:none;stroke-width:0.352778"
       id="path14298" />
    <path
       d="m 109.23899,163.75964 c -0.79481,-1.06433 -2.05987,-1.75648 -3.49003,-1.75648 -1.43051,0 -2.69557,0.6918 -3.49003,1.75648 -0.25047,-0.17956 -0.50941,-0.34572 -0.77858,-0.49777 0.96026,-1.31939 2.51213,-2.18122 4.26861,-2.18122 1.75683,0 3.30835,0.86183 4.26826,2.18122 -0.26882,0.15205 -0.52881,0.31821 -0.77823,0.49777"
       style="fill:#f5c5c5;fill-opacity:1;fill-rule:nonzero;stroke:none;stroke-width:0.352778"
       id="path14300" />
    <path
       d="m 107.63597,165.2653 c -0.37853,-0.64982 -1.08126,-1.08832 -1.88736,-1.08832 -0.8061,0 -1.50848,0.4385 -1.88736,1.08761 -0.19791,-0.24271 -0.41064,-0.47307 -0.63465,-0.6925 0.56056,-0.78881 1.48026,-1.30563 2.52236,-1.30563 1.04175,0 1.9618,0.51682 2.52236,1.30563 -0.22436,0.21943 -0.43709,0.4505 -0.63535,0.69321"
       style="fill:#f5c5c5;fill-opacity:1;fill-rule:nonzero;stroke:none;stroke-width:0.352778"
       id="path14302" />
    <path
       d="m 106.83587,166.43476 c -0.13617,-0.018 -0.27376,-0.0325 -0.41346,-0.0434 l 0.002,-0.0183 -10e-4,-0.0113 c -0.006,-0.36407 -0.30233,-0.65722 -0.66781,-0.65722 -0.36971,0 -0.66922,0.2995 -0.66922,0.66851 l 0.002,0.0173 c -0.14323,0.0113 -0.28505,0.0257 -0.42686,0.0445 -0.0631,-0.11289 -0.12877,-0.22261 -0.19756,-0.33162 0.12489,-0.59972 0.65546,-1.05022 1.29187,-1.05022 0.63148,0 1.15712,0.44345 1.28729,1.03647 -0.0568,0.0896 -0.19332,0.32067 -0.20708,0.34537"
       style="fill:#f5c5c5;fill-opacity:1;fill-rule:nonzero;stroke:none;stroke-width:0.352778"
       id="path14304" />
    <path
       d="m 86.023392,158.51736 c -0.04904,-0.0727 -0.1016,-0.14287 -0.153458,-0.21343 0.325261,-0.25364 0.656167,-0.50024 0.991305,-0.74118 0.140406,0.19014 0.275167,0.38488 0.397581,0.58772 -0.424392,0.0907 -0.837494,0.21414 -1.235428,0.36689"
       style="fill:#f5c5c5;fill-opacity:1;fill-rule:nonzero;stroke:none;stroke-width:0.352778"
       id="path14306" />
    <path
       d="m 81.726559,162.21483 -0.03598,-0.004 c 0.03916,-0.0437 0.07691,-0.0889 0.116064,-0.13229 -0.03986,0.067 -0.07373,0.12453 -0.08008,0.13617"
       style="fill:#f5c5c5;fill-opacity:1;fill-rule:nonzero;stroke:none;stroke-width:0.352778"
       id="path14308" />
    <path
       d="m 86.023392,167.00731 c -1.16593,-1.72931 -3.142191,-2.86632 -5.384094,-2.86632 -0.189795,0 -0.376767,0.0109 -0.562681,0.0268 0.32385,-0.42545 0.65652,-0.8435 1.000478,-1.25201 2.624314,0.14675 4.899025,1.60126 6.181725,3.72392 -0.424392,0.0914 -0.837494,0.21484 -1.235428,0.36759"
       style="fill:#f5c5c5;fill-opacity:1;fill-rule:nonzero;stroke:none;stroke-width:0.352778"
       id="path14310" />
    <path
       d="m 84.128976,168.03002 c -0.79375,-1.06469 -2.059164,-1.75719 -3.489678,-1.75719 -0.958497,0 -1.838678,0.31609 -2.556933,0.84173 0.30868,-0.51682 0.633236,-1.02235 0.970138,-1.51942 0.500592,-0.15839 1.033287,-0.24412 1.586795,-0.24412 1.756128,0 3.307997,0.86113 4.267905,2.18052 -0.268464,0.1524 -0.528461,0.31856 -0.778227,0.49848"
       style="fill:#f5c5c5;fill-opacity:1;fill-rule:nonzero;stroke:none;stroke-width:0.352778"
       id="path14312" />
    <path
       d="m 82.526659,169.53532 c -0.378531,-0.64982 -1.081264,-1.08832 -1.887714,-1.08832 -0.806097,0 -1.508478,0.43815 -1.886655,1.08797 -0.198967,-0.24271 -0.410281,-0.47378 -0.635,-0.69251 0.560916,-0.78951 1.479902,-1.30563 2.522008,-1.30563 1.041753,0 1.961797,0.51647 2.522008,1.30634 -0.224014,0.21872 -0.436739,0.44909 -0.634647,0.69215"
       style="fill:#f5c5c5;fill-opacity:1;fill-rule:nonzero;stroke:none;stroke-width:0.352778"
       id="path14314" />
    <path
       d="m 81.726559,170.70442 c -0.136525,-0.0176 -0.274461,-0.0321 -0.41275,-0.0434 l 0.0011,-0.0176 -0.0011,-0.0113 c -0.0064,-0.36442 -0.302331,-0.65794 -0.668161,-0.65794 -0.369358,0 -0.668867,0.29951 -0.668867,0.66922 l 0.0014,0.0169 c -0.143227,0.0109 -0.284339,0.0258 -0.426155,0.0441 -0.06315,-0.11253 -0.129822,-0.2226 -0.197909,-0.33125 0.124531,-0.59973 0.655462,-1.05022 1.29152,-1.05022 0.631825,0 1.157817,0.44344 1.288344,1.03611 -0.05715,0.0896 -0.194027,0.32138 -0.207433,0.34536"
       style="fill:#f5c5c5;fill-opacity:1;fill-rule:nonzero;stroke:none;stroke-width:0.352778"
       id="path14316" />
    <path
       d="m 90.896312,156.77605 c -0.276931,-0.47554 -0.727781,-0.83573 -1.265414,-0.99589 0.326319,-0.18662 0.655461,-0.36795 0.988836,-0.54328 0.357364,0.21943 0.669219,0.50553 0.911578,0.84667 -0.223662,0.21872 -0.436034,0.44944 -0.635,0.6925"
       style="fill:#f5c5c5;fill-opacity:1;fill-rule:nonzero;stroke:none;stroke-width:0.352778"
       id="path14318" />
    <path
       d="m 90.096212,157.94481 c -0.136525,-0.0173 -0.274462,-0.0317 -0.412398,-0.043 l 0.0011,-0.018 -7.06e-4,-0.0113 c -0.0071,-0.36407 -0.30233,-0.65829 -0.668867,-0.65829 -0.368652,0 -0.668161,0.30022 -0.668161,0.66957 l 0.0018,0.0173 c -0.143933,0.0106 -0.28575,0.0254 -0.426861,0.0437 -0.06315,-0.11184 -0.129822,-0.22225 -0.197908,-0.33091 0.124883,-0.59972 0.655461,-1.05057 1.291166,-1.05057 0.631825,0 1.15817,0.44344 1.287992,1.03611 -0.05644,0.09 -0.193675,0.32138 -0.20708,0.34537"
       style="fill:#f5c5c5;fill-opacity:1;fill-rule:nonzero;stroke:none;stroke-width:0.352778"
       id="path14320" />
    <path
       d="m 94.393398,162.73764 c -1.166637,-1.72967 -3.142192,-2.86667 -5.384448,-2.86667 -2.241197,0 -4.217811,1.137 -5.383388,2.86667 -0.398639,-0.15381 -0.811036,-0.27693 -1.235781,-0.36759 1.353961,-2.24084 3.811764,-3.73874 6.619169,-3.73874 2.808112,0 5.266267,1.4979 6.619875,3.73874 -0.425097,0.0907 -0.837141,0.21378 -1.235427,0.36759"
       style="fill:#f5c5c5;fill-opacity:1;fill-rule:nonzero;stroke:none;stroke-width:0.352778"
       id="path14322" />
    <path
       d="m 92.499687,163.75964 c -0.795162,-1.06433 -2.05987,-1.75648 -3.490737,-1.75648 -1.429808,0 -2.694869,0.6918 -3.490383,1.75648 -0.248708,-0.17956 -0.508353,-0.34572 -0.777522,-0.49777 0.959908,-1.31939 2.511778,-2.18122 4.267905,-2.18122 1.757539,0 3.308703,0.86183 4.268611,2.18122 -0.268463,0.15205 -0.528813,0.31821 -0.777874,0.49777"
       style="fill:#f5c5c5;fill-opacity:1;fill-rule:nonzero;stroke:none;stroke-width:0.352778"
       id="path14324" />
    <path
       d="m 90.896312,165.2653 c -0.378531,-0.64982 -1.080912,-1.08832 -1.887362,-1.08832 -0.805744,0 -1.508124,0.4385 -1.887008,1.08761 -0.197908,-0.24271 -0.410986,-0.47307 -0.635,-0.6925 0.56127,-0.78881 1.480256,-1.30563 2.522008,-1.30563 1.042459,0 1.961798,0.51682 2.522362,1.30563 -0.223662,0.21943 -0.436034,0.4505 -0.635,0.69321"
       style="fill:#f5c5c5;fill-opacity:1;fill-rule:nonzero;stroke:none;stroke-width:0.352778"
       id="path14326" />
    <path
       d="m 90.096212,166.43476 c -0.136525,-0.018 -0.274462,-0.0325 -0.412398,-0.0434 l 0.0011,-0.0183 -7.06e-4,-0.0113 c -0.0071,-0.36407 -0.30233,-0.65722 -0.668867,-0.65722 -0.368652,0 -0.668161,0.2995 -0.668161,0.66851 l 0.0018,0.0173 c -0.143933,0.0113 -0.28575,0.0257 -0.426861,0.0445 -0.06315,-0.11289 -0.129822,-0.22261 -0.197908,-0.33162 0.124883,-0.59972 0.655461,-1.05022 1.291166,-1.05022 0.631825,0 1.15817,0.44345 1.287992,1.03647 -0.05644,0.0896 -0.193675,0.32067 -0.20708,0.34537"
       style="fill:#f5c5c5;fill-opacity:1;fill-rule:nonzero;stroke:none;stroke-width:0.352778"
       id="path14328" />
    <path
       d="m 125.03038,158.36673 c -0.25929,-0.0833 -0.52176,-0.15875 -0.79198,-0.21626 0.0536,-0.0889 0.11183,-0.17427 0.16898,-0.2607 0.20955,0.15664 0.41733,0.31539 0.623,0.47696"
       style="fill:#f5c5c5;fill-opacity:1;fill-rule:nonzero;stroke:none;stroke-width:0.352778"
       id="path14330" />
    <path
       d="m 125.47418,167.00731 c -0.39864,-0.15275 -0.81033,-0.27622 -1.23578,-0.36759 1.17827,-1.95051 3.19511,-3.33763 5.5506,-3.66395 0.32068,0.38241 0.63253,0.77188 0.93522,1.16946 -2.18652,0.0445 -4.1074,1.16769 -5.25004,2.86208"
       style="fill:#f5c5c5;fill-opacity:1;fill-rule:nonzero;stroke:none;stroke-width:0.352778"
       id="path14332" />
    <path
       d="m 127.36754,168.03002 c -0.24942,-0.17992 -0.50871,-0.34608 -0.77788,-0.49848 0.95991,-1.31939 2.51143,-2.18052 4.26861,-2.18052 0.26635,0 0.52705,0.0219 0.78282,0.06 0.25717,0.3743 0.50517,0.7546 0.74647,1.13983 -0.47554,-0.17921 -0.9906,-0.27799 -1.52929,-0.27799 -1.43086,0 -2.69557,0.6925 -3.49073,1.75719"
       style="fill:#f5c5c5;fill-opacity:1;fill-rule:nonzero;stroke:none;stroke-width:0.352778"
       id="path14334" />
    <path
       d="m 132.45988,169.15432 c -3.5e-4,0 -3.5e-4,-3.5e-4 -3.5e-4,-3.5e-4 0.0981,-0.17604 0.19403,-0.35137 0.28857,-0.5267 -0.0942,0.17533 -0.1905,0.35101 -0.28822,0.52705"
       style="fill:#ffffff;fill-opacity:1;fill-rule:nonzero;stroke:none;stroke-width:0.352778"
       id="path14336" />
    <path
       d="m 128.97091,169.53497 c -0.19826,-0.24271 -0.41099,-0.47378 -0.63535,-0.69251 0.56091,-0.78951 1.48061,-1.30563 2.52271,-1.30563 0.78881,0 1.50742,0.29739 2.05317,0.78458 -0.0536,0.10195 -0.1083,0.20391 -0.16334,0.30586 -0.0945,0.17533 -0.1905,0.35066 -0.28857,0.5267 -0.39899,-0.43251 -0.96696,-0.70697 -1.60126,-0.70697 -0.80645,0 -1.50883,0.43815 -1.88736,1.08797"
       style="fill:#f5c5c5;fill-opacity:1;fill-rule:nonzero;stroke:none;stroke-width:0.352778"
       id="path14338" />
    <path
       d="m 131.58076,170.66632 h -7e-4 c 0.14075,-0.23248 0.27975,-0.46566 0.41557,-0.6985 0,3.6e-4 3.5e-4,7.1e-4 3.5e-4,7.1e-4 -0.13582,0.23283 -0.27446,0.46531 -0.41522,0.69779"
       style="fill:#ffffff;fill-opacity:1;fill-rule:nonzero;stroke:none;stroke-width:0.352778"
       id="path14340" />
    <path
       d="m 129.77101,170.70442 c -0.0635,-0.11253 -0.12982,-0.2226 -0.19861,-0.33125 0.12488,-0.59973 0.65581,-1.05022 1.29222,-1.05022 0.48154,0 0.90064,0.25929 1.13101,0.64487 -0.13582,0.23284 -0.27482,0.46602 -0.41557,0.6985 l -0.0483,-0.005 0.002,-0.0176 -0.001,-0.0113 c -0.007,-0.36442 -0.30233,-0.65794 -0.66816,-0.65794 -0.36936,0 -0.66957,0.29951 -0.66957,0.66922 l 0.002,0.0169 c -0.14323,0.0109 -0.2854,0.0258 -0.42616,0.0441"
       style="fill:#f5c5c5;fill-opacity:1;fill-rule:nonzero;stroke:none;stroke-width:0.352778"
       id="path14342" />
    <path
       d="m 119.50236,158.51736 c -1.16558,-1.72861 -3.1422,-2.86596 -5.3841,-2.86596 -2.24155,0 -4.21816,1.13735 -5.38374,2.86596 -0.39758,-0.15275 -0.81104,-0.27622 -1.23578,-0.36689 1.35361,-2.24049 3.81247,-3.73838 6.61952,-3.73838 2.80846,0 5.26662,1.49789 6.61988,3.73838 -0.42545,0.0907 -0.83715,0.21414 -1.23578,0.36689"
       style="fill:#f5c5c5;fill-opacity:1;fill-rule:nonzero;stroke:none;stroke-width:0.352778"
       id="path14344" />
    <path
       d="m 117.60864,159.54007 c -0.7948,-1.06398 -2.05987,-1.75648 -3.49038,-1.75648 -1.42981,0 -2.69557,0.69179 -3.49003,1.75648 -0.24977,-0.17957 -0.50976,-0.34573 -0.77823,-0.49742 0.96026,-1.31974 2.51213,-2.18158 4.26826,-2.18158 1.75683,0 3.3087,0.86184 4.26861,2.18193 -0.26917,0.15134 -0.52881,0.3175 -0.77823,0.49707"
       style="fill:#f5c5c5;fill-opacity:1;fill-rule:nonzero;stroke:none;stroke-width:0.352778"
       id="path14346" />
    <path
       d="m 116.00562,161.04607 c -0.37853,-0.65016 -1.08126,-1.08867 -1.88736,-1.08867 -0.8061,0 -1.50812,0.43851 -1.88665,1.08797 -0.19862,-0.24271 -0.41134,-0.47308 -0.63536,-0.6925 0.56092,-0.78917 1.47991,-1.30563 2.52201,-1.30563 1.04175,0 1.9618,0.51646 2.52201,1.30563 -0.22331,0.21942 -0.43639,0.45014 -0.63465,0.6932"
       style="fill:#f5c5c5;fill-opacity:1;fill-rule:nonzero;stroke:none;stroke-width:0.352778"
       id="path14348" />
    <path
       d="m 115.20552,162.21483 c -0.13617,-0.018 -0.27516,-0.0325 -0.4131,-0.043 l 0.002,-0.018 -0.002,-0.0113 c -0.006,-0.36372 -0.30198,-0.65793 -0.66816,-0.65793 -0.36865,0 -0.66851,0.29986 -0.66851,0.66922 l 0.001,0.0169 c -0.14288,0.0113 -0.28505,0.0258 -0.4258,0.0441 -0.0639,-0.11183 -0.12983,-0.22261 -0.19862,-0.33126 0.12453,-0.59972 0.65617,-1.04987 1.29223,-1.04987 0.63147,0 1.15711,0.44344 1.28764,1.03576 -0.0571,0.09 -0.19368,0.32103 -0.20744,0.34537"
       style="fill:#f5c5c5;fill-opacity:1;fill-rule:nonzero;stroke:none;stroke-width:0.352778"
       id="path14350" />
    <path
       d="m 119.50236,167.00731 c -1.16558,-1.72931 -3.1422,-2.86632 -5.3841,-2.86632 -2.24155,0 -4.21816,1.13701 -5.38374,2.86632 -0.39758,-0.15275 -0.81104,-0.27622 -1.23578,-0.36759 1.35361,-2.24014 3.81247,-3.73839 6.61952,-3.73839 2.80846,0 5.26662,1.49825 6.61988,3.73839 -0.42545,0.0914 -0.83715,0.21484 -1.23578,0.36759"
       style="fill:#f5c5c5;fill-opacity:1;fill-rule:nonzero;stroke:none;stroke-width:0.352778"
       id="path14352" />
    <path
       d="m 117.60864,168.03002 c -0.7948,-1.06469 -2.05987,-1.75719 -3.49038,-1.75719 -1.42981,0 -2.69557,0.6925 -3.49003,1.75719 -0.24977,-0.17992 -0.50976,-0.34608 -0.77823,-0.49848 0.96026,-1.31939 2.51213,-2.18052 4.26826,-2.18052 1.75683,0 3.3087,0.86113 4.26861,2.18052 -0.26917,0.1524 -0.52881,0.31856 -0.77823,0.49848"
       style="fill:#f5c5c5;fill-opacity:1;fill-rule:nonzero;stroke:none;stroke-width:0.352778"
       id="path14354" />
    <path
       d="m 116.00562,169.53532 c -0.37853,-0.64982 -1.08126,-1.08832 -1.88736,-1.08832 -0.8061,0 -1.50812,0.43815 -1.88665,1.08797 -0.19862,-0.24271 -0.41134,-0.47378 -0.63536,-0.69251 0.56092,-0.78951 1.47991,-1.30563 2.52201,-1.30563 1.04175,0 1.9618,0.51647 2.52201,1.30634 -0.22331,0.21872 -0.43639,0.44909 -0.63465,0.69215"
       style="fill:#f5c5c5;fill-opacity:1;fill-rule:nonzero;stroke:none;stroke-width:0.352778"
       id="path14356" />
    <path
       d="m 115.20552,170.70442 c -0.13617,-0.0176 -0.27516,-0.0321 -0.4131,-0.0434 l 0.002,-0.0176 -0.002,-0.0113 c -0.006,-0.36442 -0.30198,-0.65794 -0.66816,-0.65794 -0.36865,0 -0.66851,0.29951 -0.66851,0.66922 l 0.001,0.0169 c -0.14288,0.0109 -0.28505,0.0258 -0.4258,0.0441 -0.0639,-0.11253 -0.12983,-0.2226 -0.19862,-0.33125 0.12453,-0.59973 0.65617,-1.05022 1.29223,-1.05022 0.63147,0 1.15711,0.44344 1.28764,1.03611 -0.0571,0.0896 -0.19368,0.32138 -0.20744,0.34536"
       style="fill:#f5c5c5;fill-opacity:1;fill-rule:nonzero;stroke:none;stroke-width:0.352778"
       id="path14358" />
    <path
       d="m 120.60126,156.77605 c -0.19897,-0.24306 -0.41134,-0.47413 -0.635,-0.69285 0.17286,-0.24342 0.38311,-0.4565 0.61701,-0.641 0.2988,0.16263 0.59478,0.3302 0.88759,0.502 -0.3609,0.19191 -0.66393,0.47872 -0.8696,0.83185"
       style="fill:#f5c5c5;fill-opacity:1;fill-rule:nonzero;stroke:none;stroke-width:0.352778"
       id="path14360" />
    <path
       d="m 123.57517,157.94481 c -0.13652,-0.0173 -0.27446,-0.0317 -0.4131,-0.043 l 0.002,-0.018 -10e-4,-0.0113 c -0.006,-0.36407 -0.30268,-0.65829 -0.66816,-0.65829 -0.36901,0 -0.66887,0.30022 -0.66887,0.66957 l 10e-4,0.0173 c -0.14252,0.0106 -0.28504,0.0254 -0.42545,0.0437 -0.0638,-0.11184 -0.13017,-0.22225 -0.19826,-0.33091 0.12382,-0.59725 0.65123,-1.04599 1.28376,-1.04987 0.41733,0.26635 0.82726,0.54328 1.23119,0.82833 0.0268,0.0667 0.0487,0.13581 0.0642,0.20708 -0.0572,0.09 -0.19368,0.32138 -0.20744,0.34537"
       style="fill:#f5c5c5;fill-opacity:1;fill-rule:nonzero;stroke:none;stroke-width:0.352778"
       id="path14362" />
    <path
       d="m 127.87236,162.73764 c -1.16593,-1.72967 -3.14219,-2.86667 -5.38374,-2.86667 -2.2419,0 -4.21852,1.137 -5.38374,2.86667 -0.39864,-0.15381 -0.81104,-0.27693 -1.23614,-0.36759 1.35397,-2.24084 3.81177,-3.73874 6.61988,-3.73874 1.77588,0 3.41065,0.60043 4.71558,1.60761 0.48366,0.45544 0.95285,0.92604 1.40723,1.4104 0.1778,0.23107 0.34502,0.47061 0.49636,0.72073 -0.42475,0.0907 -0.83714,0.21378 -1.23543,0.36759"
       style="fill:#f5c5c5;fill-opacity:1;fill-rule:nonzero;stroke:none;stroke-width:0.352778"
       id="path14364" />
    <path
       d="m 125.9783,163.75964 c -0.79446,-1.06433 -2.05987,-1.75648 -3.48968,-1.75648 -1.43051,0 -2.69558,0.6918 -3.49003,1.75648 -0.24977,-0.17956 -0.50941,-0.34572 -0.77823,-0.49777 0.95956,-1.31939 2.51213,-2.18122 4.26826,-2.18122 1.75613,0 3.3087,0.86183 4.26826,2.18122 -0.26952,0.15205 -0.52917,0.31821 -0.77858,0.49777"
       style="fill:#f5c5c5;fill-opacity:1;fill-rule:nonzero;stroke:none;stroke-width:0.352778"
       id="path14366" />
    <path
       d="m 124.37527,165.2653 c -0.37782,-0.64982 -1.08091,-1.08832 -1.88736,-1.08832 -0.80574,0 -1.50812,0.4385 -1.88665,1.08761 -0.19897,-0.24271 -0.41134,-0.47307 -0.635,-0.6925 0.56127,-0.78881 1.48025,-1.30563 2.52236,-1.30563 1.0414,0 1.9618,0.51682 2.52201,1.30563 -0.22402,0.21943 -0.43674,0.4505 -0.63536,0.69321"
       style="fill:#f5c5c5;fill-opacity:1;fill-rule:nonzero;stroke:none;stroke-width:0.352778"
       id="path14368" />
    <path
       d="m 123.57517,166.43476 c -0.13652,-0.018 -0.27446,-0.0325 -0.4131,-0.0434 l 0.002,-0.0183 -10e-4,-0.0113 c -0.006,-0.36407 -0.30268,-0.65722 -0.66816,-0.65722 -0.36901,0 -0.66887,0.2995 -0.66887,0.66851 l 10e-4,0.0173 c -0.14252,0.0113 -0.28504,0.0257 -0.42545,0.0445 -0.0638,-0.11289 -0.13017,-0.22261 -0.19826,-0.33162 0.12418,-0.59972 0.65546,-1.05022 1.29152,-1.05022 0.63182,0 1.15817,0.44345 1.28764,1.03647 -0.0572,0.0896 -0.19368,0.32067 -0.20744,0.34537"
       style="fill:#f5c5c5;fill-opacity:1;fill-rule:nonzero;stroke:none;stroke-width:0.352778"
       id="path14370" />
    <path
       d="m 111.1327,171.22724 c -1.16557,-1.72932 -3.14219,-2.86667 -5.38374,-2.86667 -2.2419,0 -4.21816,1.13735 -5.38339,2.86667 -0.398989,-0.15346 -0.811386,-0.27658 -1.236484,-0.36724 1.353604,-2.24084 3.811414,-3.73909 6.619874,-3.73909 2.80776,0 5.26627,1.49825 6.61952,3.73909 -0.42474,0.0907 -0.83749,0.21378 -1.23578,0.36724"
       style="fill:#f5c5c5;fill-opacity:1;fill-rule:nonzero;stroke:none;stroke-width:0.352778"
       id="path14372" />
    <path
       d="m 109.23899,172.24924 c -0.79481,-1.06433 -2.05987,-1.75613 -3.49003,-1.75613 -1.43051,0 -2.69557,0.6918 -3.49003,1.75613 -0.25047,-0.17957 -0.50941,-0.34572 -0.77858,-0.49742 0.96026,-1.31939 2.51213,-2.18122 4.26861,-2.18122 1.75683,0 3.30835,0.86183 4.26826,2.18122 -0.26882,0.1517 -0.52881,0.31785 -0.77823,0.49742"
       style="fill:#f5c5c5;fill-opacity:1;fill-rule:nonzero;stroke:none;stroke-width:0.352778"
       id="path14374" />
    <path
       d="m 94.393398,171.22724 c -1.166637,-1.72932 -3.142192,-2.86667 -5.384448,-2.86667 -2.241197,0 -4.217811,1.13735 -5.383388,2.86667 -0.398639,-0.15346 -0.811036,-0.27658 -1.235781,-0.36724 1.353961,-2.24084 3.811764,-3.73909 6.619169,-3.73909 2.808112,0 5.266267,1.49825 6.619875,3.73909 -0.425097,0.0907 -0.837141,0.21378 -1.235427,0.36724"
       style="fill:#f5c5c5;fill-opacity:1;fill-rule:nonzero;stroke:none;stroke-width:0.352778"
       id="path14376" />
    <path
       d="m 92.499687,172.24924 c -0.795162,-1.06433 -2.05987,-1.75613 -3.490737,-1.75613 -1.429808,0 -2.694869,0.6918 -3.490383,1.75613 -0.248708,-0.17957 -0.508353,-0.34572 -0.777522,-0.49742 0.959908,-1.31939 2.511778,-2.18122 4.267905,-2.18122 1.757539,0 3.308703,0.86183 4.268611,2.18122 -0.268463,0.1517 -0.528813,0.31785 -0.777874,0.49742"
       style="fill:#f5c5c5;fill-opacity:1;fill-rule:nonzero;stroke:none;stroke-width:0.352778"
       id="path14378" />
    <path
       d="m 127.87236,171.22724 c -1.16593,-1.72932 -3.14219,-2.86667 -5.38374,-2.86667 -2.2419,0 -4.21852,1.13735 -5.38374,2.86667 -0.39864,-0.15346 -0.81104,-0.27658 -1.23614,-0.36724 1.35397,-2.24084 3.81177,-3.73909 6.61988,-3.73909 2.80811,0 5.26556,1.49825 6.61917,3.73909 -0.42475,0.0907 -0.83714,0.21378 -1.23543,0.36724"
       style="fill:#f5c5c5;fill-opacity:1;fill-rule:nonzero;stroke:none;stroke-width:0.352778"
       id="path14380" />
    <path
       d="m 125.9783,172.24924 c -0.79446,-1.06433 -2.05987,-1.75613 -3.48968,-1.75613 -1.43051,0 -2.69558,0.6918 -3.49003,1.75613 -0.24977,-0.17957 -0.50941,-0.34572 -0.77823,-0.49742 0.95956,-1.31939 2.51213,-2.18122 4.26826,-2.18122 1.75613,0 3.3087,0.86183 4.26826,2.18122 -0.26952,0.1517 -0.52917,0.31785 -0.77858,0.49742"
       style="fill:#f5c5c5;fill-opacity:1;fill-rule:nonzero;stroke:none;stroke-width:0.352778"
       id="path14382" />
    <path
       d="m 99.265964,152.55683 c -0.06738,-0.11571 -0.147814,-0.22154 -0.234244,-0.32244 0.207786,-0.0423 0.416983,-0.0815 0.62618,-0.11959 -0.135114,0.14288 -0.267053,0.28928 -0.391936,0.44203"
       style="fill:#f5c5c5;fill-opacity:1;fill-rule:nonzero;stroke:none;stroke-width:0.352778"
       id="path14384" />
    <path
       d="m 98.465864,153.72523 c -0.136878,-0.0173 -0.274461,-0.0314 -0.413808,-0.043 l 0.0025,-0.0176 -7.05e-4,-0.0113 c -0.0067,-0.36406 -0.303036,-0.65793 -0.668514,-0.65793 -0.369006,0 -0.66922,0.29951 -0.66922,0.66922 l 0.0021,0.0169 c -0.143228,0.0109 -0.285397,0.0261 -0.426155,0.0437 -0.0635,-0.11183 -0.130528,-0.22225 -0.198614,-0.3309 0.03634,-0.17357 0.109714,-0.33232 0.206727,-0.47379 0.543278,-0.16192 1.091848,-0.31256 1.64712,-0.44591 0.363361,0.17251 0.637469,0.50236 0.725664,0.90558 -0.05644,0.0896 -0.19297,0.32103 -0.207081,0.34502"
       style="fill:#f5c5c5;fill-opacity:1;fill-rule:nonzero;stroke:none;stroke-width:0.352778"
       id="path14386" />
    <path
       d="m 112.23161,152.55648 c -0.0787,-0.0963 -0.16122,-0.18909 -0.24448,-0.28187 0.12629,0.0265 0.25083,0.0572 0.37641,0.085 -0.0466,0.0635 -0.0921,0.12841 -0.13193,0.19685"
       style="fill:#f5c5c5;fill-opacity:1;fill-rule:nonzero;stroke:none;stroke-width:0.352778"
       id="path14388" />
    <path
       d="m 115.20552,153.72523 c -0.13617,-0.0173 -0.27516,-0.0314 -0.4131,-0.043 l 0.002,-0.0176 -0.002,-0.0113 c -0.006,-0.36406 -0.30198,-0.65793 -0.66816,-0.65793 -0.36865,0 -0.66851,0.29951 -0.66851,0.66922 l 0.001,0.0169 c -0.14288,0.0109 -0.28505,0.0261 -0.4258,0.0437 -0.0639,-0.11183 -0.12983,-0.22225 -0.19862,-0.3309 0.0681,-0.32774 0.26035,-0.60749 0.52211,-0.79693 0.67416,0.17357 1.33985,0.3683 1.99567,0.58385 0.0254,0.0642 0.0469,0.13017 0.0621,0.19896 -0.0571,0.0896 -0.19368,0.32103 -0.20744,0.34502"
       style="fill:#f5c5c5;fill-opacity:1;fill-rule:nonzero;stroke:none;stroke-width:0.352778"
       id="path14390" />
    <path
       d="m 100.36557,154.2484 c -0.398989,-0.15311 -0.811386,-0.27622 -1.236484,-0.36689 0.449792,-0.74471 1.023764,-1.40476 1.689454,-1.95756 1.03999,-0.15029 2.09656,-0.24906 3.16689,-0.29634 -1.49543,0.42157 -2.77249,1.36349 -3.61986,2.62079"
       style="fill:#f5c5c5;fill-opacity:1;fill-rule:nonzero;stroke:none;stroke-width:0.352778"
       id="path14392" />
    <path
       d="m 111.1327,154.2484 c -0.81879,-1.21461 -2.03835,-2.13501 -3.4678,-2.57634 1.07209,0.0752 2.12936,0.2032 3.16971,0.38206 0.60007,0.52529 1.11936,1.14089 1.53387,1.82739 -0.42474,0.0907 -0.83749,0.21378 -1.23578,0.36689"
       style="fill:#f5c5c5;fill-opacity:1;fill-rule:nonzero;stroke:none;stroke-width:0.352778"
       id="path14394" />
    <path
       d="m 109.23899,155.27075 c -0.79481,-1.06433 -2.05987,-1.75648 -3.49003,-1.75648 -1.43051,0 -2.69557,0.6918 -3.49003,1.75648 -0.25047,-0.17956 -0.50941,-0.34572 -0.77858,-0.49777 0.96026,-1.31939 2.51213,-2.18122 4.26861,-2.18122 1.75683,0 3.30835,0.86183 4.26826,2.18157 -0.26882,0.1517 -0.52881,0.31786 -0.77823,0.49742"
       style="fill:#f5c5c5;fill-opacity:1;fill-rule:nonzero;stroke:none;stroke-width:0.352778"
       id="path14396" />
    <path
       d="m 94.393398,154.2484 c -0.126648,-0.18732 -0.264231,-0.36618 -0.40887,-0.5394 0.404989,-0.15557 0.814564,-0.30233 1.226961,-0.44203 0.147814,0.19862 0.289278,0.40217 0.417336,0.61454 -0.425097,0.0907 -0.837141,0.21378 -1.235427,0.36689"
       style="fill:#f5c5c5;fill-opacity:1;fill-rule:nonzero;stroke:none;stroke-width:0.352778"
       id="path14398" />
    <path
       d="m 92.499687,155.27075 c -0.182034,-0.24342 -0.391231,-0.46461 -0.61842,-0.66534 0.299861,-0.14111 0.601486,-0.27834 0.906639,-0.41028 0.176036,0.18133 0.340783,0.37324 0.489655,0.5782 -0.268463,0.1517 -0.528813,0.31786 -0.777874,0.49742"
       style="fill:#f5c5c5;fill-opacity:1;fill-rule:nonzero;stroke:none;stroke-width:0.352778"
       id="path14400" />
    <path
       d="m 117.10488,154.2484 c -0.39864,-0.15311 -0.81104,-0.27622 -1.23614,-0.36689 0.0885,-0.14605 0.18204,-0.28857 0.2794,-0.42827 0.40393,0.14499 0.80328,0.29951 1.19945,0.46002 -0.0843,0.10936 -0.16545,0.22084 -0.24271,0.33514"
       style="fill:#f5c5c5;fill-opacity:1;fill-rule:nonzero;stroke:none;stroke-width:0.352778"
       id="path14402" />
    <path
       d="m 118.99859,155.27075 c -0.24977,-0.17956 -0.50941,-0.34572 -0.77823,-0.49777 0.091,-0.12488 0.18874,-0.24412 0.28998,-0.36054 0.29422,0.13335 0.58597,0.27058 0.8756,0.41275 -0.13794,0.14041 -0.26917,0.28752 -0.38735,0.44556"
       style="fill:#f5c5c5;fill-opacity:1;fill-rule:nonzero;stroke:none;stroke-width:0.352778"
       id="path14404" />
  </g>
</svg>
