<?xml version="1.0" encoding="UTF-8" standalone="no"?>
<!-- Created with Inkscape (http://www.inkscape.org/) -->

<svg
   width="75.128632mm"
   height="50.890236mm"
   viewBox="0 0 75.128632 50.890236"
   version="1.1"
   id="svg2769"
   inkscape:version="1.1.1 (c3084ef, 2021-09-22)"
   sodipodi:docname="white-all-fours.svg"
   xmlns:inkscape="http://www.inkscape.org/namespaces/inkscape"
   xmlns:sodipodi="http://sodipodi.sourceforge.net/DTD/sodipodi-0.dtd"
   xmlns="http://www.w3.org/2000/svg"
   xmlns:svg="http://www.w3.org/2000/svg">
  <sodipodi:namedview
     id="namedview2771"
     pagecolor="#ffffff"
     bordercolor="#999999"
     borderopacity="1"
     inkscape:pageshadow="0"
     inkscape:pageopacity="0"
     inkscape:pagecheckerboard="0"
     inkscape:document-units="mm"
     showgrid="false"
     fit-margin-top="0"
     fit-margin-left="0"
     fit-margin-right="0"
     fit-margin-bottom="0"
     inkscape:zoom="0.64052329"
     inkscape:cx="-66.351998"
     inkscape:cy="222.47435"
     inkscape:window-width="1312"
     inkscape:window-height="969"
     inkscape:window-x="0"
     inkscape:window-y="23"
     inkscape:window-maximized="0"
     inkscape:current-layer="layer1" />
  <defs
     id="defs2766" />
  <g
     inkscape:label="Layer 1"
     inkscape:groupmode="layer"
     id="layer1"
     transform="translate(0.80075605,-94.759335)">
    <g
       id="g862"
       transform="matrix(0.35277777,0,0,-0.35277777,0.55353488,96.184831)">
      <path
         d="M 0,0 C -1.004,-0.247 -1.545,1.055 -0.611,1.479 9.627,6.124 22.759,7.457 16.033,-21.484 5.568,-66.506 -6.65,-88.551 24.845,-87.829 c 0,0 7.942,-3.975 0,-10.481 0,0 -51.728,-9.763 -16.253,74.461 1.464,3.477 2.575,7.096 3.043,10.806 C 12.518,-6.034 11.547,2.833 0,0"
         style="fill:#dcb3ae;fill-opacity:1;fill-rule:nonzero;stroke:none"
         id="path864" />
    </g>
    <g
       id="g866"
       transform="matrix(0.35277777,0,0,-0.35277777,41.572382,139.94063)">
      <path
         d="m 0,0 -59.649,1.928 c -0.471,0.179 -0.959,0.315 -1.455,0.409 -21.548,4.071 -31.924,8.23 -36.846,11.018 -2.668,1.511 -4.28,4.363 -4.28,7.43 v 15.019 c 0,1.666 0.476,3.288 1.388,4.682 6.664,10.187 36.286,52.465 66.657,48.775 26.799,-3.256 41.733,-20.517 47.068,-28.066 1.612,-2.282 4.248,-3.599 7.043,-3.571 6.536,0.066 18.558,0.587 28.126,3.257 9.938,2.774 28.492,-3.564 38.206,-7.377 3.707,-1.456 5.903,-5.29 5.321,-9.23 -0.399,-2.707 -2.066,-5.061 -4.486,-6.337 L 17.036,0.991 C 15.802,0.34 14.428,0 13.033,0 H 0"
         style="fill:#eee7d1;fill-opacity:1;fill-rule:nonzero;stroke:none"
         id="path868" />
    </g>
    <g
       id="g870"
       transform="matrix(0.35277777,0,0,-0.35277777,19.376698,134.39539)">
      <path
         d="m 0,0 c 0,0 -0.743,-5.673 2.972,-6.283 3.715,-0.61 19.183,-1.156 23.852,-6.485 2.885,-3.294 5.189,-8.155 6.527,-11.387 0.253,-0.61 -0.116,-1.454 -0.444,-1.02 -1.949,2.584 -5.084,6.52 -6.909,7.665 -0.306,0.192 -0.552,-0.525 -0.367,-1.057 0.938,-2.702 2.98,-8.726 3.769,-12.183 0.152,-0.665 -0.232,-1.287 -0.516,-0.836 l -6.701,10.645 c -0.293,0.465 -0.688,-0.21 -0.506,-0.871 0.749,-2.722 1.789,-6.666 2.246,-9.148 0.12,-0.656 -0.249,-1.221 -0.522,-0.792 -2.244,3.532 -8.658,12.63 -9.843,12.613 -1.383,-0.019 -20.298,7.135 -20.298,7.135 0,0 -2.895,2.78 -0.032,5.983 0,0 1.712,1.348 1.464,4.299 C -5.556,1.23 0.226,8.308 0,0"
         style="fill:#feca9e;fill-opacity:1;fill-rule:nonzero;stroke:none"
         id="path872" />
    </g>
    <g
       id="g874"
       transform="matrix(0.35277777,0,0,-0.35277777,58.467509,121.00017)">
      <path
         d="m 0,0 v 0 c -1.604,-3.251 -4.824,-5.448 -8.446,-5.604 -4.967,-0.215 -11.51,1.11 -14.053,8.792 -0.946,2.857 -1.007,5.935 -0.493,8.9 l 1.709,9.875 C -17.826,28.014 -4.182,6.785 0,0"
         style="fill:#eacbc7;fill-opacity:1;fill-rule:nonzero;stroke:none"
         id="path876" />
    </g>
    <g
       id="g878"
       transform="matrix(0.35277777,0,0,-0.35277777,52.405517,112.55076)">
      <path
         d="m 0,0 c 4.813,-2.641 13.552,-7.783 18.771,-12.945 1.558,-1.54 1.911,-3.921 0.941,-5.884 l -2.528,-5.122 C 13.002,-17.166 -0.643,4.063 -4.1,-1.988 -3.771,-0.091 -1.687,0.926 0,0"
         style="fill:#dcb3ae;fill-opacity:1;fill-rule:nonzero;stroke:none"
         id="path880" />
    </g>
    <g
       id="g882"
       transform="matrix(0.35277777,0,0,-0.35277777,65.941635,120.51186)">
      <path
         d="m 0,0 c 0,-1.603 -1.3,-2.902 -2.902,-2.902 -1.604,0 -2.904,1.299 -2.904,2.902 0,1.603 1.3,2.902 2.904,2.902 C -1.3,2.902 0,1.603 0,0"
         style="fill:#181717;fill-opacity:1;fill-rule:nonzero;stroke:none"
         id="path884" />
    </g>
    <g
       id="g886"
       transform="matrix(0.35277777,0,0,-0.35277777,63.893513,122.98472)">
      <path
         d="m 0,0 c 0,-1.1 -1.407,-1.992 -3.144,-1.992 -1.737,0 -3.144,0.892 -3.144,1.992 0,1.1 1.407,1.992 3.144,1.992 C -1.407,1.992 0,1.1 0,0"
         style="fill:#eacbc7;fill-opacity:1;fill-rule:nonzero;stroke:none"
         id="path888" />
    </g>
    <g
       id="g890"
       transform="matrix(0.35277777,0,0,-0.35277777,71.881319,121.40671)">
      <path
         d="M 0,0 C 1.266,1.652 5.334,1.355 6.62,0.192 7.102,-0.244 6.915,-1.037 6.81,-1.425 6.142,-3.868 5.938,-7.789 -0.123,-1.205 -0.412,-0.89 -0.26,-0.339 0,0"
         style="fill:#dcb3ae;fill-opacity:1;fill-rule:nonzero;stroke:none"
         id="path892" />
    </g>
    <g
       id="g894"
       transform="matrix(0.35277777,0,0,-0.35277777,49.765187,145.42213)">
      <path
         d="m 0,0 v 0 c 1.229,0.678 1.676,2.224 0.998,3.453 l -6.606,11.98 c -0.383,0.693 -0.131,1.566 0.563,1.948 l 8.135,4.487 c 0.916,0.505 1.42,1.515 1.295,2.553 -0.348,2.881 -1.728,8.417 -7.183,10.053 -3.465,1.039 -7.208,-0.174 -9.735,-2.764 -2.473,-2.533 -5.963,-6.732 -8.998,-12.687 -0.454,-0.89 -0.322,-1.969 0.319,-2.735 2.754,-3.29 10.601,-12.114 18.858,-16.351 C -1.614,-0.443 -0.729,-0.401 0,0"
         style="fill:#dcd6c4;fill-opacity:1;fill-rule:nonzero;stroke:none"
         id="path896" />
    </g>
    <g
       id="g898"
       transform="matrix(0.35277777,0,0,-0.35277777,53.21546,144.23528)">
      <path
         d="M 0,0 C 0.179,0.583 -0.536,0.479 -1.12,0.303 L -1.76,0.076 C 0.361,1.462 0.977,2.834 1.154,3.484 1.183,3.587 1.173,3.694 1.143,3.794 1.101,3.889 1.038,3.977 0.949,4.036 0.391,4.412 -0.971,5.051 -3.482,4.717 l 0.631,0.247 c 0.559,0.247 1.168,0.635 0.653,0.959 -3.834,1.682 -7.772,-1.307 -9.834,-3.305 -0.914,-0.886 -1.469,-1.582 -1.469,-1.582 l 0.012,0.005 -0.101,-0.118 c -0.456,-0.811 -0.473,-1.792 -0.164,-2.658 0.331,-0.858 0.983,-1.59 1.858,-1.908 l 0.154,-0.023 -0.012,-0.004 c 0,0 0.875,-0.166 2.146,-0.24 2.866,-0.169 7.8,0.134 9.608,3.91"
         style="fill:#feca9e;fill-opacity:1;fill-rule:nonzero;stroke:none"
         id="path900" />
    </g>
    <g
       id="g902"
       transform="matrix(0.35277777,0,0,-0.35277777,25.187865,129.15385)">
      <path
         d="m 0,0 c -5.604,15.83 -19.378,29.149 -52.768,12.347 0,0 -3.018,-3.412 -3.018,-7.12 V -9.792 c 0,0 0.182,-6.198 7.492,-9.053 4.259,-1.663 13.458,-5.327 24.892,-7.78 C -7.848,-29.963 5.31,-14.997 0,0"
         style="fill:#dcd6c4;fill-opacity:1;fill-rule:nonzero;stroke:none"
         id="path904" />
    </g>
  </g>
</svg>
