<?xml version="1.0" encoding="UTF-8" standalone="no"?>
<!-- Created with Inkscape (http://www.inkscape.org/) -->

<svg
   width="62.641792mm"
   height="46.981667mm"
   viewBox="0 0 62.641792 46.981667"
   version="1.1"
   id="svg1999"
   inkscape:version="1.1.1 (c3084ef, 2021-09-22)"
   sodipodi:docname="white-sideways-facing.svg"
   xmlns:inkscape="http://www.inkscape.org/namespaces/inkscape"
   xmlns:sodipodi="http://sodipodi.sourceforge.net/DTD/sodipodi-0.dtd"
   xmlns="http://www.w3.org/2000/svg"
   xmlns:svg="http://www.w3.org/2000/svg">
  <sodipodi:namedview
     id="namedview2001"
     pagecolor="#ffffff"
     bordercolor="#999999"
     borderopacity="1"
     inkscape:pageshadow="0"
     inkscape:pageopacity="0"
     inkscape:pagecheckerboard="0"
     inkscape:document-units="mm"
     showgrid="false"
     fit-margin-top="0"
     fit-margin-left="0"
     fit-margin-right="0"
     fit-margin-bottom="0"
     inkscape:zoom="0.55856481"
     inkscape:cx="81.458765"
     inkscape:cy="79.668462"
     inkscape:window-width="1312"
     inkscape:window-height="855"
     inkscape:window-x="0"
     inkscape:window-y="23"
     inkscape:window-maximized="0"
     inkscape:current-layer="layer1" />
  <defs
     id="defs1996" />
  <g
     inkscape:label="Layer 1"
     inkscape:groupmode="layer"
     id="layer1"
     transform="translate(-83.310684,-127.61443)">
    <g
       id="g1038"
       transform="matrix(0.35277777,0,0,-0.35277777,102.69375,128.16004)">
      <path
         d="M 0,0 C -0.923,0.433 -0.532,1.768 0.447,1.515 11.185,-1.263 22.092,-8.374 -1,-26.425 c -35.923,-28.082 -58.96,-37.437 -34.333,-56.393 0,0 3.634,-7.971 -6.492,-8.046 0,0 -45.761,24.548 33.648,67.232 3.278,1.763 6.373,3.853 9.03,6.411 C 5.872,-12.387 10.62,-4.979 0,0"
         style="fill:#dcb3ae;fill-opacity:1;fill-rule:nonzero;stroke:none"
         id="path1040" />
    </g>
    <g
       id="g1042"
       transform="matrix(0.35277777,0,0,-0.35277777,136.36247,167.72004)">
      <path
         d="m 0,0 v 0 c 1.012,1.116 0.542,3.191 -1.05,4.635 l -15.513,14.066 c -0.899,0.815 -1.164,1.986 -0.593,2.615 l 6.697,7.386 c 0.754,0.832 0.697,2.229 -0.12,3.538 -2.268,3.631 -7.464,10.465 -14.949,11.477 -4.756,0.642 -8.386,-1.662 -9.695,-5.492 -1.282,-3.748 -2.689,-9.837 -2.426,-18.091 0.039,-1.234 0.89,-2.593 2.14,-3.449 C -30.141,13.009 -15.201,3.243 -2.735,-0.552 -1.617,-0.892 -0.6,-0.661 0,0"
         style="fill:#dcd6c4;fill-opacity:1;fill-rule:nonzero;stroke:none"
         id="path1044" />
    </g>
    <g
       id="g1046"
       transform="matrix(0.35277777,0,0,-0.35277777,94.558654,168.11656)">
      <path
         d="m 0,0 c 0,0 -9.025,-1.908 -18.051,32.768 0,0 0.705,2.128 2.282,5.517 14.022,30.155 44.837,45.865 74.977,39.094 13.636,-3.065 54.427,-2.853 65.636,-16.266 0,0 -27.863,-60.625 -58.12,-63.34 C 63.178,-2.545 0,0 0,0"
         style="fill:#eee7d1;fill-opacity:1;fill-rule:nonzero;stroke:none"
         id="path1048" />
    </g>
    <g
       id="g1050"
       transform="matrix(0.35277777,0,0,-0.35277777,97.572788,164.7669)">
      <path
         d="m 0,0 c 0,0 0.066,-5.644 3.779,-5.721 3.713,-0.077 18.895,1.546 24.197,-3.007 3.277,-2.813 6.204,-7.239 7.962,-10.209 0.332,-0.561 0.09,-1.437 -0.291,-1.058 -2.264,2.252 -5.874,5.657 -7.816,6.521 -0.325,0.145 -0.466,-0.589 -0.211,-1.083 1.293,-2.507 4.128,-8.106 5.38,-11.373 0.241,-0.628 -0.047,-1.289 -0.388,-0.887 l -8.028,9.461 c -0.352,0.414 -0.643,-0.301 -0.374,-0.921 1.112,-2.555 2.678,-6.26 3.47,-8.621 0.209,-0.623 -0.073,-1.227 -0.399,-0.845 -2.684,3.136 -10.216,11.126 -11.371,10.944 -1.348,-0.212 -20.818,4.136 -20.818,4.136 0,0 -3.214,2.311 -0.866,5.84 0,0 1.485,1.554 0.831,4.402 C -5.596,0.427 -0.938,8.146 0,0"
         style="fill:#feca9e;fill-opacity:1;fill-rule:nonzero;stroke:none"
         id="path1052" />
    </g>
    <g
       id="g1054"
       transform="matrix(0.35277777,0,0,-0.35277777,106.60838,160.53876)">
      <path
         d="m 0,0 c -5.529,15.616 -19.116,28.755 -52.054,12.18 0,0 -2.978,-3.366 -2.978,-7.023 V -9.658 c 0,0 0.18,-6.115 7.391,-8.932 4.201,-1.64 13.276,-5.255 24.556,-7.675 C -7.742,-29.558 5.238,-14.793 0,0"
         style="fill:#dcd6c4;fill-opacity:1;fill-rule:nonzero;stroke:none"
         id="path1056" />
    </g>
    <g
       id="g1058"
       transform="matrix(0.35277777,0,0,-0.35277777,121.80763,170.35692)">
      <path
         d="m 0,0 v 0 c 0.571,1.261 0.012,2.747 -1.25,3.318 l -12.293,5.568 c -0.712,0.323 -1.027,1.161 -0.705,1.873 l 3.781,8.347 c 0.426,0.941 0.228,2.037 -0.484,2.784 -1.975,2.072 -6.334,5.631 -11.611,3.705 -3.352,-1.225 -5.594,-4.393 -6.063,-7.931 -0.458,-3.463 -0.739,-8.842 0.378,-15.34 0.167,-0.971 0.909,-1.746 1.868,-1.973 4.118,-0.975 15.529,-3.317 24.556,-1.791 C -1.014,-1.304 -0.338,-0.748 0,0"
         style="fill:#dcd6c4;fill-opacity:1;fill-rule:nonzero;stroke:none"
         id="path1060" />
    </g>
    <g
       id="g1062"
       transform="matrix(0.35277777,0,0,-0.35277777,124.51926,172.64792)">
      <path
         d="M 0,0 C 0.536,0.273 -0.029,0.708 -0.556,1.001 L -1.155,1.299 C 1.283,0.748 2.677,1.255 3.26,1.575 3.352,1.627 3.421,1.707 3.471,1.797 3.509,1.892 3.528,1.996 3.51,2.1 3.392,2.754 2.909,4.156 0.948,5.706 L 1.557,5.427 c 0.558,-0.225 1.251,-0.391 1.127,0.198 -1.442,3.87 -6.263,4.604 -9.095,4.692 -1.255,0.039 -2.128,-0.046 -2.128,-0.046 l 0.011,-0.005 -0.153,-0.01 c -0.887,-0.234 -1.593,-0.897 -1.994,-1.709 -0.38,-0.823 -0.451,-1.789 -0.075,-2.626 l 0.089,-0.125 -0.011,0.005 c 0,0 0.484,-0.733 1.303,-1.684 C -7.52,1.972 -3.916,-1.314 0,0"
         style="fill:#feca9e;fill-opacity:1;fill-rule:nonzero;stroke:none"
         id="path1064" />
    </g>
    <g
       id="g1066"
       transform="matrix(0.35277777,0,0,-0.35277777,135.84004,143.65986)">
      <path
         d="m 0,0 1.593,-5.607 c 0,0 16.914,-9.373 24.541,4.533 1.665,3.037 2.374,6.509 2.41,9.972 l 0.121,11.535 C 26.011,28.002 6.146,6.811 0,0"
         style="fill:#eacbc7;fill-opacity:1;fill-rule:nonzero;stroke:none"
         id="path1068" />
    </g>
    <g
       id="g1070"
       transform="matrix(0.35277777,0,0,-0.35277777,144.46122,135.35681)">
      <path
         d="m 0,0 c -7.091,-2.349 -21.122,-7.515 -27.312,-13.415 l 2.874,-10.121 C -18.292,-16.726 1.573,4.466 4.227,-3.104 4.25,-0.888 2.103,0.697 0,0"
         style="fill:#dcb3ae;fill-opacity:1;fill-rule:nonzero;stroke:none"
         id="path1072" />
    </g>
    <g
       id="g1074"
       transform="matrix(0.35277777,0,0,-0.35277777,123.36395,141.36574)">
      <path
         d="m 0,0 -3.483,-4.675 c 0,0 -19.142,-2.743 -21.324,12.967 -0.476,3.431 0.096,6.927 1.294,10.178 l 3.991,10.823 C -14.35,35.423 -3.322,8.551 0,0"
         style="fill:#eacbc7;fill-opacity:1;fill-rule:nonzero;stroke:none"
         id="path1076" />
    </g>
    <g
       id="g1078"
       transform="matrix(0.35277777,0,0,-0.35277777,118.26006,130.53921)">
      <path
         d="m 0,0 c 5.792,-4.718 17.067,-14.536 20.755,-22.253 l -6.287,-8.436 C 11.146,-22.139 0.118,4.733 -5.054,-1.396 -4.288,0.682 -1.717,1.399 0,0"
         style="fill:#dcb3ae;fill-opacity:1;fill-rule:nonzero;stroke:none"
         id="path1080" />
    </g>
    <g
       id="g1082"
       transform="matrix(0.35277777,0,0,-0.35277777,125.12681,138.57453)">
      <path
         d="m 0,0 c 1.968,1.009 4.201,1.322 6.375,0.923 l 8.437,-1.551 8.435,-1.552 c 2.175,-0.399 4.15,-1.487 5.63,-3.13 3.903,-4.33 10.833,-14.319 12.11,-31.635 0.223,-3.028 -0.98,-5.988 -3.23,-8.025 -0.075,-0.067 -0.151,-0.134 -0.228,-0.204 -18.771,-16.767 -48.217,-11.353 -59.796,10.995 -0.047,0.092 -0.093,0.182 -0.139,0.272 -1.379,2.704 -1.45,5.898 -0.164,8.648 C -15.218,-9.529 -5.187,-2.658 0,0"
         style="fill:#dcd6c4;fill-opacity:1;fill-rule:nonzero;stroke:none"
         id="path1084" />
    </g>
    <g
       id="g1086"
       transform="matrix(0.35277777,0,0,-0.35277777,135.51654,147.63757)">
      <path
         d="m 0,0 c -0.333,-1.814 -2.075,-3.015 -3.89,-2.681 -1.814,0.333 -3.015,2.075 -2.681,3.89 0.334,1.814 2.075,3.015 3.89,2.682 C -0.867,3.557 0.334,1.815 0,0"
         style="fill:#1e1c1c;fill-opacity:1;fill-rule:nonzero;stroke:none"
         id="path1088" />
    </g>
    <g
       id="g1090"
       transform="matrix(0.35277777,0,0,-0.35277777,124.69826,145.64836)">
      <path
         d="m 0,0 c -0.333,-1.814 -2.075,-3.015 -3.89,-2.682 -1.814,0.334 -3.015,2.076 -2.681,3.89 0.334,1.815 2.075,3.016 3.89,2.682 C -0.867,3.557 0.334,1.814 0,0"
         style="fill:#1e1c1c;fill-opacity:1;fill-rule:nonzero;stroke:none"
         id="path1092" />
    </g>
    <g
       id="g1094"
       transform="matrix(0.35277777,0,0,-0.35277777,121.8469,147.66099)">
      <path
         d="m 0,0 c -0.229,-1.245 -2.008,-1.962 -3.974,-1.601 -1.966,0.362 -3.374,1.664 -3.145,2.91 0.229,1.245 2.009,1.962 3.974,1.6 C -1.179,2.548 0.229,1.245 0,0"
         style="fill:#dcb3ae;fill-opacity:1;fill-rule:nonzero;stroke:none"
         id="path1096" />
    </g>
    <g
       id="g1098"
       transform="matrix(0.35277777,0,0,-0.35277777,138.07453,150.64479)">
      <path
         d="m 0,0 c -0.229,-1.245 -2.008,-1.962 -3.974,-1.601 -1.966,0.363 -3.374,1.664 -3.145,2.91 0.229,1.246 2.008,1.962 3.974,1.6 C -1.179,2.548 0.229,1.245 0,0"
         style="fill:#dcb3ae;fill-opacity:1;fill-rule:nonzero;stroke:none"
         id="path1100" />
    </g>
    <g
       id="g1102"
       transform="matrix(0.35277777,0,0,-0.35277777,137.74088,167.04137)">
      <path
         d="M 0,0 C 0.115,-0.591 -0.575,-0.414 -1.13,-0.181 L -1.734,0.107 C 0.203,-1.472 0.665,-2.882 0.771,-3.538 0.789,-3.642 0.768,-3.746 0.728,-3.84 0.677,-3.929 0.606,-4.009 0.514,-4.058 -0.073,-4.369 -1.476,-4.854 -3.905,-4.267 l 0.595,-0.307 c 0.522,-0.3 1.08,-0.743 0.54,-1.009 -3.935,-1.254 -7.488,2.087 -9.304,4.262 -0.805,0.963 -1.277,1.703 -1.277,1.703 l 0.01,-0.005 -0.086,0.126 c -0.364,0.843 -0.278,1.807 0.115,2.624 0.413,0.807 1.129,1.459 2.02,1.679 l 0.153,0.007 -0.011,0.005 c 0,0 0.875,0.072 2.129,0.014 C -6.191,4.7 -1.381,3.892 0,0"
         style="fill:#feca9e;fill-opacity:1;fill-rule:nonzero;stroke:none"
         id="path1104" />
    </g>
    <g
       id="g1106"
       transform="matrix(0.35277777,0,0,-0.35277777,128.1323,153.17554)">
      <path
         d="m 0,0 -1.015,0.272 c 0,0 -1.834,-6.756 -7.03,-2.142 0,0 3.565,-4.382 6.174,-2.219 0.174,0.146 0.417,0.08 0.496,-0.133 C -0.202,-7.4 5.079,-5.396 5.079,-5.396 -1.73,-6.785 0,0 0,0"
         style="fill:#eee7d1;fill-opacity:1;fill-rule:nonzero;stroke:none"
         id="path1108" />
    </g>
    <g
       id="g1110"
       transform="matrix(0.35277777,0,0,-0.35277777,126.73121,152.16992)">
      <path
         d="M 0,0 C 1.252,0.971 5.715,0.549 7.761,-1.896 8.046,-2.236 7.721,-2.768 7.458,-3.03 6.214,-4.271 1.721,-6.727 -0.325,-0.863 -0.432,-0.556 -0.258,-0.199 0,0"
         style="fill:#dcb3ae;fill-opacity:1;fill-rule:nonzero;stroke:none"
         id="path1112" />
    </g>
  </g>
</svg>
